<svg width="967" height="775" viewBox="0 0 967 775" fill="none" xmlns="http://www.w3.org/2000/svg">
<g clip-path="url(#clip0_1048_1494)" filter="url(#filter0_b_1048_1494)">
<rect width="670" height="670" transform="translate(182 54)" fill="white"/>
<path d="M517.013 54C331.978 54 182 203.978 182 389.013C182 574.048 331.978 724.025 517.013 724.025C702.048 724.025 852.025 574.048 852.025 389.013C852.025 203.978 702.022 54 517.013 54ZM517.013 644.339C376.001 644.339 261.687 530.024 261.687 389.013C261.687 248.001 376.001 133.687 517.013 133.687C658.024 133.687 772.339 248.001 772.339 389.013C772.339 530.024 658.024 644.339 517.013 644.339Z" fill="#D1E9FF"/>
<path d="M740.93 545.677C749.248 536.41 763.504 535.642 772.771 543.961C782.037 552.28 782.806 566.535 774.487 575.802L752.797 599.963C744.478 609.23 730.222 609.998 720.956 601.679C711.689 593.36 710.921 579.105 719.24 569.838L740.93 545.677Z" fill="url(#paint0_linear_1048_1494)"/>
<mask id="mask0_1048_1494" style="mask-type:alpha" maskUnits="userSpaceOnUse" x="693" y="553" width="76" height="75">
<rect x="693.23" y="588.914" width="47.5005" height="58.3234" transform="rotate(-48.085 693.23 588.914)" fill="#D9D9D9"/>
</mask>
<g mask="url(#mask0_1048_1494)">
<rect x="737.328" y="617.195" width="45.0954" height="77.5642" rx="22.5477" transform="rotate(-138.085 737.328 617.195)" fill="url(#paint1_linear_1048_1494)"/>
</g>
<g filter="url(#filter1_b_1048_1494)">
<ellipse cx="746.906" cy="572.881" rx="22.4892" ry="8.43343" transform="rotate(41.915 746.906 572.881)" fill="#14A25D" fill-opacity="0.72"/>
<path d="M763.269 587.57C762.621 588.292 761.575 588.675 760.136 588.667C758.698 588.658 756.929 588.255 754.938 587.476C750.959 585.92 746.195 582.904 741.606 578.785C737.018 574.665 733.507 570.253 731.532 566.464C730.544 564.568 729.953 562.853 729.79 561.424C729.626 559.995 729.895 558.914 730.543 558.192C731.191 557.47 732.237 557.087 733.676 557.096C735.114 557.104 736.883 557.507 738.874 558.286C742.853 559.842 747.617 562.858 752.206 566.977C756.794 571.097 760.305 575.509 762.28 579.298C763.268 581.194 763.859 582.909 764.022 584.338C764.185 585.767 763.917 586.849 763.269 587.57Z" stroke="#90E6BC" stroke-opacity="0.4"/>
</g>
<path d="M454.227 650.943C466.256 654.163 473.398 666.525 470.178 678.554C466.958 690.584 454.596 697.725 442.567 694.505L411.202 686.11C399.173 682.89 392.031 670.528 395.251 658.499C398.471 646.47 410.833 639.328 422.862 642.548L454.227 650.943Z" fill="url(#paint2_linear_1048_1494)"/>
<mask id="mask1_1048_1494" style="mask-type:alpha" maskUnits="userSpaceOnUse" x="378" y="628" width="62" height="69">
<rect x="394.078" y="628" width="47.5005" height="58.3234" transform="rotate(14.9851 394.078 628)" fill="#D9D9D9"/>
</mask>
<g mask="url(#mask1_1048_1494)">
<rect x="388.836" y="680.125" width="45.0954" height="77.5642" rx="22.5477" transform="rotate(-75.0149 388.836 680.125)" fill="url(#paint3_linear_1048_1494)"/>
</g>
<g filter="url(#filter2_b_1048_1494)">
<ellipse cx="432.683" cy="668.595" rx="22.4892" ry="8.43343" transform="rotate(104.985 432.683 668.595)" fill="#14A25D" fill-opacity="0.72"/>
<path d="M426.997 689.836C426.06 689.585 425.245 688.826 424.601 687.539C423.958 686.253 423.516 684.494 423.308 682.366C422.893 678.113 423.425 672.5 425.019 666.543C426.614 660.587 428.958 655.458 431.441 651.982C432.684 650.242 433.946 648.938 435.146 648.146C436.346 647.353 437.432 647.102 438.369 647.353C439.306 647.604 440.121 648.363 440.765 649.65C441.408 650.936 441.85 652.695 442.058 654.824C442.472 659.076 441.941 664.689 440.347 670.646C438.752 676.602 436.408 681.731 433.925 685.207C432.682 686.947 431.42 688.251 430.22 689.043C429.02 689.836 427.934 690.087 426.997 689.836Z" stroke="#90E6BC" stroke-opacity="0.4"/>
</g>
<path d="M538.715 71.3833C551.163 71.7239 560.978 82.0912 560.637 94.5393C560.297 106.987 549.929 116.802 537.481 116.462L505.025 115.574C492.576 115.233 482.761 104.866 483.102 92.4178C483.443 79.9697 493.81 70.1546 506.258 70.4952L538.715 71.3833Z" fill="url(#paint4_linear_1048_1494)"/>
<mask id="mask2_1048_1494" style="mask-type:alpha" maskUnits="userSpaceOnUse" x="473" y="63" width="50" height="60">
<rect x="474.883" y="63.0273" width="47.5005" height="58.3234" transform="rotate(1.56734 474.883 63.0273)" fill="#D9D9D9"/>
</mask>
<g mask="url(#mask2_1048_1494)">
<rect x="481.879" y="114.945" width="45.0954" height="77.5642" rx="22.5477" transform="rotate(-88.4327 481.879 114.945)" fill="url(#paint5_linear_1048_1494)"/>
</g>
<g filter="url(#filter3_b_1048_1494)">
<ellipse cx="521.853" cy="93.5548" rx="22.4892" ry="8.43343" transform="rotate(91.5673 521.853 93.5548)" fill="#14A25D" fill-opacity="0.72"/>
<path d="M521.252 115.536C520.282 115.509 519.313 114.96 518.388 113.858C517.464 112.756 516.626 111.147 515.93 109.125C514.54 105.085 513.754 99.5016 513.923 93.3378C514.091 87.1739 515.181 81.6416 516.79 77.6837C517.595 75.7029 518.52 74.1421 519.503 73.0927C520.487 72.0427 521.485 71.5473 522.454 71.5738C523.424 71.6004 524.394 72.1496 525.318 73.2518C526.242 74.3534 527.081 75.9624 527.776 77.9843C529.166 82.0243 529.952 87.6079 529.784 93.7718C529.615 99.9356 528.525 105.468 526.916 109.426C526.111 111.407 525.186 112.967 524.203 114.017C523.219 115.067 522.221 115.562 521.252 115.536Z" stroke="#90E6BC" stroke-opacity="0.4"/>
</g>
<path d="M759.659 182.797C767.31 191.301 766.617 204.397 758.113 212.048C749.608 219.699 736.512 219.007 728.861 210.502L708.913 188.328C701.263 179.823 701.955 166.727 710.459 159.076C718.964 151.426 732.06 152.118 739.711 160.622L759.659 182.797Z" fill="url(#paint6_linear_1048_1494)"/>
<mask id="mask3_1048_1494" style="mask-type:alpha" maskUnits="userSpaceOnUse" x="685" y="135" width="70" height="69">
<rect x="724.832" y="135" width="43.635" height="53.5772" transform="rotate(48.0253 724.832 135)" fill="#D9D9D9"/>
</mask>
<g mask="url(#mask3_1048_1494)">
<rect x="694.688" y="172.516" width="41.4257" height="71.2521" rx="20.7128" transform="rotate(-41.9747 694.688 172.516)" fill="url(#paint7_linear_1048_1494)"/>
</g>
<g filter="url(#filter4_b_1048_1494)">
<ellipse cx="734.229" cy="185.6" rx="20.659" ry="7.74714" transform="rotate(138.025 734.229 185.6)" fill="#14A25D" fill-opacity="0.72"/>
<path d="M719.242 199.083C718.657 198.432 718.41 197.452 718.558 196.146C718.706 194.84 719.244 193.268 720.149 191.528C721.957 188.051 725.174 183.998 729.383 180.212C733.591 176.427 737.96 173.654 741.609 172.223C743.435 171.507 745.054 171.137 746.368 171.127C747.683 171.118 748.631 171.467 749.217 172.118C749.802 172.769 750.049 173.748 749.901 175.055C749.753 176.361 749.215 177.932 748.31 179.672C746.502 183.149 743.285 187.202 739.076 190.988C734.868 194.774 730.498 197.546 726.85 198.977C725.024 199.694 723.405 200.064 722.091 200.073C720.776 200.083 719.828 199.733 719.242 199.083Z" stroke="#90E6BC" stroke-opacity="0.4"/>
</g>
</g>
<path fill-rule="evenodd" clip-rule="evenodd" d="M250.537 274.305C261.327 274.305 270.074 269.707 270.074 264.035C270.074 264.035 270.074 264.035 270.074 264.035V257.022H264.809C261.243 255.018 256.168 253.766 250.537 253.766C244.906 253.766 239.831 255.018 236.265 257.022H231V264.035C231 264.035 231 264.035 231 264.035C231 269.707 239.747 274.305 250.537 274.305Z" fill="#1862FF" fill-opacity="0.9"/>
<g filter="url(#filter5_b_1048_1494)">
<ellipse cx="250.541" cy="257.269" rx="19.537" ry="10.2695" fill="#96BBFF" fill-opacity="0.5"/>
</g>
<path fill-rule="evenodd" clip-rule="evenodd" d="M340.306 160.709C348.256 168.005 357.809 170.531 361.644 166.352C361.644 166.352 361.644 166.352 361.644 166.352L366.386 161.184L362.506 157.624C361.234 153.737 358.341 149.383 354.192 145.576C350.043 141.769 345.457 139.26 341.475 138.326L337.595 134.766L332.854 139.934C332.854 139.934 332.854 139.934 332.854 139.934C329.019 144.113 332.355 153.414 340.306 160.709Z" fill="#1862FF" fill-opacity="0.9"/>
<g filter="url(#filter6_b_1048_1494)">
<ellipse cx="351.823" cy="148.158" rx="19.537" ry="10.2695" transform="rotate(42.5394 351.823 148.158)" fill="#96BBFF" fill-opacity="0.5"/>
</g>
<path fill-rule="evenodd" clip-rule="evenodd" d="M239.961 507.361C235.013 516.95 235.087 526.831 240.128 529.432C240.128 529.432 240.128 529.432 240.128 529.432L246.36 532.648L248.775 527.969C252.19 525.72 255.63 521.784 258.213 516.78C260.795 511.775 262.009 506.691 261.864 502.604L264.278 497.925L258.046 494.709C258.046 494.709 258.046 494.709 258.046 494.709C253.006 492.108 244.909 497.773 239.961 507.361Z" fill="#1862FF" fill-opacity="0.9"/>
<g filter="url(#filter7_b_1048_1494)">
<ellipse cx="255.098" cy="515.176" rx="19.537" ry="10.2695" transform="rotate(117.295 255.098 515.176)" fill="#96BBFF" fill-opacity="0.5"/>
</g>
<path fill-rule="evenodd" clip-rule="evenodd" d="M353.351 649.049C360.012 657.538 369.028 661.581 373.491 658.08C373.491 658.08 373.491 658.08 373.491 658.08L379.008 653.751L375.758 649.608C375.133 645.566 372.986 640.801 369.509 636.37C366.033 631.94 361.915 628.721 358.138 627.152L354.888 623.01L349.37 627.339C349.37 627.339 349.37 627.339 349.37 627.339C344.908 630.841 346.69 640.56 353.351 649.049Z" fill="#1862FF" fill-opacity="0.9"/>
<g filter="url(#filter8_b_1048_1494)">
<ellipse cx="366.751" cy="638.538" rx="19.537" ry="10.2695" transform="rotate(51.8805 366.751 638.538)" fill="#96BBFF" fill-opacity="0.5"/>
</g>
<path fill-rule="evenodd" clip-rule="evenodd" d="M691.514 638.23C702.291 638.761 711.254 634.599 711.533 628.935C711.533 628.935 711.533 628.935 711.533 628.935L711.878 621.93L706.619 621.671C703.157 619.494 698.15 617.993 692.525 617.716C686.901 617.439 681.77 618.44 678.11 620.265L672.851 620.006L672.506 627.011C672.506 627.011 672.506 627.011 672.506 627.011C672.227 632.676 680.737 637.699 691.514 638.23Z" fill="#1862FF" fill-opacity="0.9"/>
<g filter="url(#filter9_b_1048_1494)">
<ellipse cx="692.355" cy="621.219" rx="19.537" ry="10.2695" transform="rotate(2.82202 692.355 621.219)" fill="#96BBFF" fill-opacity="0.5"/>
</g>
<path fill-rule="evenodd" clip-rule="evenodd" d="M377.396 139.327C385.346 146.622 394.899 149.148 398.734 144.969C398.734 144.969 398.734 144.969 398.734 144.969L403.476 139.801L399.596 136.241C398.324 132.355 395.431 128.001 391.282 124.193C387.133 120.386 382.547 117.878 378.565 116.943L374.685 113.384L369.944 118.551C369.944 118.551 369.944 118.551 369.944 118.551C366.109 122.73 369.445 132.032 377.396 139.327Z" fill="#1862FF" fill-opacity="0.9"/>
<g filter="url(#filter10_b_1048_1494)">
<ellipse cx="388.913" cy="126.776" rx="19.537" ry="10.2695" transform="rotate(42.5394 388.913 126.776)" fill="#96BBFF" fill-opacity="0.5"/>
</g>
<path fill-rule="evenodd" clip-rule="evenodd" d="M699.372 158.551C708.364 152.588 713.113 143.922 709.979 139.195C709.979 139.195 709.979 139.195 709.979 139.195L706.103 133.35L701.714 136.26C697.636 136.56 692.714 138.321 688.021 141.433C683.328 144.546 679.79 148.394 677.926 152.034L673.538 154.944L677.414 160.789C677.414 160.789 677.414 160.789 677.414 160.789C680.548 165.516 690.379 164.514 699.372 158.551Z" fill="#1862FF" fill-opacity="0.9"/>
<g filter="url(#filter11_b_1048_1494)">
<ellipse cx="689.962" cy="144.355" rx="19.537" ry="10.2695" transform="rotate(-33.5486 689.962 144.355)" fill="#96BBFF" fill-opacity="0.5"/>
</g>
<circle cx="513.5" cy="387.5" r="386" stroke="#D1E9FF" stroke-width="3"/>
<g clip-path="url(#clip1_1048_1494)">
<path d="M181.848 403.959V513L277.174 458.479V348.605L181.848 403.959Z" fill="#9AD3FF"/>
<g filter="url(#filter12_b_1048_1494)">
<path d="M88.1875 348.605L181.849 403.959V513L88.1875 458.194V348.605Z" fill="#118AEC" fill-opacity="0.6"/>
<path d="M88.6875 457.908V349.482L181.349 404.244V512.128L88.6875 457.908Z" stroke="url(#paint8_linear_1048_1494)"/>
</g>
<g filter="url(#filter13_b_1048_1494)">
<path d="M270.123 333.114L181.85 281.398L93.5763 333.114H69V347.511L180.864 413.602L294.699 347.511V333.114H270.123Z" fill="#3394F1" fill-opacity="0.77"/>
</g>
<g filter="url(#filter14_b_1048_1494)">
<path d="M69 333.113L180.864 399.204L294.699 333.113L181.85 267L69 333.113Z" fill="#E5F3FE" fill-opacity="0.7"/>
</g>
</g>
<g filter="url(#filter15_b_1048_1494)">
<path d="M247.708 327.07L181.853 288.488L115.999 327.07H97.6641V337.811L181.118 387.116L266.043 337.811V327.07H247.708Z" fill="#0F79E3" fill-opacity="0.57"/>
</g>
<g filter="url(#filter16_b_1048_1494)">
<path d="M97.6641 327.068L181.118 376.374L266.043 327.068L181.853 277.746L97.6641 327.068Z" fill="white" fill-opacity="0.8"/>
</g>
<g filter="url(#filter17_b_1048_1494)">
<mask id="mask4_1048_1494" style="mask-type:luminance" maskUnits="userSpaceOnUse" x="205" y="344" width="64" height="63">
<path d="M205.072 406.599L205 381.481L268.693 344.875L268.765 369.993L205.072 406.599Z" fill="white"/>
</mask>
<g mask="url(#mask4_1048_1494)">
<path d="M257.696 351.19L215.98 375.165C209.908 378.651 205.013 387.096 205.027 394.04C205.042 400.984 209.98 403.77 216.038 400.283L257.754 376.308C263.826 372.822 268.721 364.378 268.707 357.434C268.692 350.49 263.754 347.703 257.682 351.19" fill="#119465"/>
</g>
<mask id="mask5_1048_1494" style="mask-type:luminance" maskUnits="userSpaceOnUse" x="227" y="333" width="23" height="86">
<path d="M227.392 418.471L227.191 345.631L249.155 333L249.37 405.841L227.392 418.471Z" fill="white"/>
</mask>
<g mask="url(#mask5_1048_1494)">
<path d="M238.172 339.315C232.1 342.801 227.204 351.245 227.219 358.189L227.348 405.911C227.362 412.841 232.3 415.642 238.373 412.155C244.445 408.669 249.34 400.21 249.311 393.281L249.182 345.559C249.168 338.615 244.23 335.828 238.172 339.315Z" fill="#119465"/>
</g>
<path d="M245.02 338.113L249.298 339.656L240.312 345.672L238.273 341.6L245.02 338.113Z" fill="#119465"/>
<path d="M264.387 349.945L269.369 351.746L263.512 352.56L262.363 350.717L264.387 349.945Z" fill="#119465"/>
<path d="M235.532 414.785L231.154 413.199L228.613 408.713L232.403 406.184L240.14 404.641L235.532 414.785Z" fill="#119465"/>
<path d="M213.956 403.156L208.645 401.256L209.98 396.998L215.205 396.098L213.956 403.156Z" fill="#119465"/>
<g filter="url(#filter18_b_1048_1494)">
<mask id="mask6_1048_1494" style="mask-type:luminance" maskUnits="userSpaceOnUse" x="209" y="346" width="64" height="63">
<path d="M209.306 408.127L209.234 382.994L272.928 346.402L273 371.521L209.306 408.127Z" fill="white"/>
</mask>
<g mask="url(#mask6_1048_1494)">
<mask id="path-53-inside-1_1048_1494" fill="white">
<path d="M261.946 352.701L220.216 376.691C214.144 380.177 209.249 388.636 209.277 395.566C209.306 402.495 214.23 405.31 220.288 401.824L262.018 377.848C268.076 374.362 272.985 365.904 272.957 358.974C272.928 352.044 268.004 349.244 261.946 352.73"/>
</mask>
<path d="M261.946 352.701L220.216 376.691C214.144 380.177 209.249 388.636 209.277 395.566C209.306 402.495 214.23 405.31 220.288 401.824L262.018 377.848C268.076 374.362 272.985 365.904 272.957 358.974C272.928 352.044 268.004 349.244 261.946 352.73" fill="#43C28E" fill-opacity="0.54"/>
<path d="M220.216 376.691L220.714 377.558L220.714 377.558L220.216 376.691ZM220.288 401.824L219.79 400.957L219.789 400.957L220.288 401.824ZM262.018 377.848L262.516 378.716L262.517 378.715L262.018 377.848ZM261.448 351.835L219.718 375.824L220.714 377.558L262.445 353.568L261.448 351.835ZM219.718 375.824C216.494 377.675 213.638 380.806 211.594 384.336C209.549 387.865 208.262 391.885 208.277 395.57L210.277 395.562C210.264 392.316 211.41 388.643 213.324 385.338C215.238 382.035 217.866 379.194 220.714 377.558L219.718 375.824ZM208.277 395.57C208.293 399.249 209.617 402.098 212.027 403.47C214.434 404.841 217.575 404.539 220.787 402.691L219.789 400.957C216.942 402.595 214.593 402.629 213.017 401.732C211.443 400.836 210.291 398.812 210.277 395.562L208.277 395.57ZM220.786 402.691L262.516 378.716L261.52 376.981L219.79 400.957L220.786 402.691ZM262.517 378.715C265.733 376.864 268.589 373.733 270.635 370.204C272.681 366.676 273.972 362.655 273.957 358.97L271.957 358.978C271.97 362.223 270.821 365.896 268.905 369.201C266.989 372.505 264.361 375.346 261.519 376.982L262.517 378.715ZM273.957 358.97C273.941 355.29 272.617 352.445 270.206 351.076C267.798 349.71 264.658 350.016 261.447 351.863L262.445 353.597C265.293 351.958 267.643 351.921 269.219 352.816C270.791 353.708 271.943 355.728 271.957 358.978L273.957 358.97Z" fill="#DFDFDF" fill-opacity="0.19" mask="url(#path-53-inside-1_1048_1494)"/>
</g>
</g>
<g filter="url(#filter19_b_1048_1494)">
<mask id="mask7_1048_1494" style="mask-type:luminance" maskUnits="userSpaceOnUse" x="231" y="334" width="23" height="86">
<path d="M231.642 419.999L231.441 347.144L253.405 334.527L253.606 407.368L231.642 419.999Z" fill="white"/>
<path d="M253.105 407.079L232.14 419.136L231.942 347.433L252.907 335.39L253.105 407.079Z" stroke="white"/>
</mask>
<g mask="url(#mask7_1048_1494)">
<path d="M242.423 340.844C236.351 344.33 231.456 352.774 231.485 359.718L231.614 407.44C231.628 414.384 236.566 417.171 242.624 413.684C248.682 410.198 253.591 401.754 253.563 394.81L253.433 347.088C253.433 343.616 252.185 341.187 250.189 340.058C248.194 338.929 245.452 339.101 242.423 340.844Z" fill="#43C28E" fill-opacity="0.54"/>
<path d="M242.672 341.277L242.672 341.277C245.61 339.586 248.155 339.482 249.943 340.493C251.729 341.503 252.933 343.726 252.933 347.088L252.933 347.089L253.063 394.811L253.063 394.812C253.077 398.174 251.892 401.934 249.943 405.293C247.995 408.651 245.31 411.561 242.375 413.251C239.436 414.942 236.884 415.05 235.099 414.039C233.316 413.029 232.121 410.804 232.114 407.439L232.114 407.439L231.984 359.717L231.984 359.716C231.971 356.354 233.152 352.594 235.099 349.235C237.045 345.877 239.73 342.967 242.672 341.277Z" stroke="#DFDFDF" stroke-opacity="0.19"/>
</g>
</g>
</g>
<path fill-rule="evenodd" clip-rule="evenodd" d="M125.533 540.308C136.323 540.308 145.07 535.711 145.07 530.039C145.07 530.039 145.07 530.039 145.07 530.039V523.026H139.805C136.239 521.022 131.164 519.77 125.533 519.77C119.902 519.77 114.827 521.022 111.262 523.026H105.996V530.039C105.996 530.039 105.996 530.039 105.996 530.039C105.996 535.711 114.743 540.308 125.533 540.308Z" fill="#1862FF" fill-opacity="0.9"/>
<g filter="url(#filter20_b_1048_1494)">
<ellipse cx="125.537" cy="523.273" rx="19.537" ry="10.2695" fill="#96BBFF" fill-opacity="0.5"/>
</g>
<path fill-rule="evenodd" clip-rule="evenodd" d="M64.5331 508.305C75.3231 508.305 84.0702 503.707 84.0702 498.035C84.0702 498.035 84.0702 498.035 84.0702 498.035V491.022H78.8047C75.2393 489.018 70.1645 487.766 64.5331 487.766C58.9018 487.766 53.8269 489.018 50.2616 491.022H44.9961V498.035C44.9961 498.035 44.9961 498.035 44.9961 498.035C44.9961 503.707 53.7431 508.305 64.5331 508.305Z" fill="#1862FF" fill-opacity="0.9"/>
<g filter="url(#filter21_b_1048_1494)">
<ellipse cx="64.537" cy="491.269" rx="19.537" ry="10.2695" fill="#96BBFF" fill-opacity="0.5"/>
</g>
<path fill-rule="evenodd" clip-rule="evenodd" d="M156.533 555.308C167.323 555.308 176.07 550.711 176.07 545.039C176.07 545.039 176.07 545.039 176.07 545.039V538.026H170.805C167.239 536.022 162.164 534.77 156.533 534.77C150.902 534.77 145.827 536.022 142.262 538.026H136.996V545.039C136.996 545.039 136.996 545.039 136.996 545.039C136.996 550.711 145.743 555.308 156.533 555.308Z" fill="#1862FF" fill-opacity="0.9"/>
<g filter="url(#filter22_b_1048_1494)">
<ellipse cx="156.537" cy="538.273" rx="19.537" ry="10.2695" fill="#96BBFF" fill-opacity="0.5"/>
</g>
<path fill-rule="evenodd" clip-rule="evenodd" d="M103.533 561.308C114.323 561.308 123.07 556.711 123.07 551.039C123.07 551.039 123.07 551.039 123.07 551.039V544.026H117.805C114.239 542.022 109.164 540.77 103.533 540.77C97.9018 540.77 92.8269 542.022 89.2616 544.026H83.9961V551.039C83.9961 551.039 83.9961 551.039 83.9961 551.039C83.9961 556.711 92.7431 561.308 103.533 561.308Z" fill="#1862FF" fill-opacity="0.9"/>
<g filter="url(#filter23_b_1048_1494)">
<ellipse cx="103.537" cy="544.273" rx="19.537" ry="10.2695" fill="#96BBFF" fill-opacity="0.5"/>
</g>
<g clip-path="url(#clip2_1048_1494)" filter="url(#filter24_b_1048_1494)">
<path d="M551.798 396.956C547.621 394.533 543.787 392.169 539.819 390.031C525.301 382.209 510.607 381.982 496.264 390.115C472.498 403.587 448.933 417.429 425.326 431.17C423.93 431.983 422.961 431.967 421.583 431.17C403.924 420.875 386.223 410.663 368.563 400.368C367.26 399.614 366.308 399.563 364.996 400.343C359.032 403.864 353.034 407.327 347.036 410.798L339 407.62V415.526C339.894 416.096 340.504 416.515 341.139 416.884C348.181 420.967 355.223 425.042 362.273 429.124C403.272 452.867 444.28 476.602 485.254 500.387C486.724 501.242 487.752 501.191 489.18 500.345C497.082 495.666 505.052 491.106 512.996 486.503C513.614 486.142 514.199 485.748 515.009 485.229V477.323L471.846 460.228C464.988 456.254 458.13 452.28 451.263 448.307C451.723 447.954 451.923 447.762 452.157 447.627C473.642 435.178 495.136 422.744 516.605 410.261C517.641 409.657 518.317 409.875 519.236 410.42C525.175 413.908 531.148 417.345 537.113 420.791C537.664 421.11 538.249 421.361 539.059 421.763C536.169 409.699 542.96 402.975 551.798 396.973V396.956Z" fill="#2F72FF"/>
<path d="M463.14 352.286C463.14 352.286 463.149 352.286 463.157 352.286C463.282 352.236 463.408 352.194 463.541 352.144L463.566 352.11C463.717 352.043 463.867 351.993 464.009 351.918C469.297 348.983 474.468 345.814 479.755 342.888C484.191 340.432 488.752 340.675 493.088 343.173C494.149 343.785 494.809 344.531 495.093 345.32L482.529 352.739L484.985 354.164C484.016 354.726 483.047 355.288 482.078 355.85L475.153 352.857L475.169 360.628C475.161 360.712 475.161 360.796 475.169 360.88C475.253 361.483 475.929 362.095 477.216 362.842C482.387 365.851 487.599 368.786 492.737 371.863C493.046 372.047 493.322 372.248 493.572 372.449L490.983 374.034L485.344 375.015L478.243 371.427L468.42 367.956V375.862C468.261 376.256 469.071 377.329 469.681 377.723C471.845 379.106 474.05 380.464 476.364 381.588C483.297 384.958 490.273 384.74 496.972 381.043C499.862 379.45 501.282 377.32 501.266 375.149V366.933L496.763 368.928C496.387 368.702 496.003 368.467 495.619 368.249L496.713 367.235L488.644 358.692L486.973 357.971C490.523 355.933 494.082 353.93 497.548 351.767C499.812 350.35 501.015 348.547 501.207 346.703H501.216V346.56C501.232 346.326 501.232 346.091 501.216 345.848L501.257 338.009L498.977 341.597C498.568 341.22 498.117 340.851 497.599 340.507C497.056 340.147 496.488 339.795 495.903 339.526L496.705 339.007L492.211 332.953C492.211 332.953 481.585 332.031 481.176 332.031C480.766 332.031 468.395 338.386 468.395 338.386L458.696 343.475V351.079C458.679 351.188 458.679 351.289 458.696 351.381C458.696 351.381 458.989 353.863 463.124 352.295L463.14 352.286Z" fill="#2F72FF"/>
<path d="M424.599 380.366C426.061 381.481 427.823 382.345 429.578 382.89C434.515 384.433 439.652 384.55 444.272 382.27C450.871 379.017 457.169 375.143 463.552 371.454C463.986 371.203 464.245 370.876 464.362 370.532L464.445 370.49V362.232L457.487 364.831L447.905 370.49L432.351 374.984L428.366 373.383L428.4 373.098C429.102 372.134 430.296 371.488 431.399 370.842C436.336 367.984 441.281 365.133 446.201 362.257C447.346 361.595 447.855 361.042 447.755 360.472V352.834L441.64 356.28C440.621 355.693 439.594 355.106 438.574 354.519C439.961 353.379 441.348 352.239 442.743 351.099L429.803 342.874C430.104 342.69 430.413 342.514 430.722 342.354C431.34 342.053 432.009 341.801 432.677 341.659C436.269 340.887 439.736 341.206 442.985 343.017C445.048 344.165 447.003 345.574 449.167 346.479C450.378 346.982 452.015 347.033 453.293 346.664C454.262 346.387 454.697 345.876 454.655 345.305H454.672V337.4L443.937 333.359L435.718 330.676L426.203 333.593L428.066 339.127C427.222 339.445 426.403 339.806 425.643 340.242L421.826 337.81V345.716C421.475 349.539 424.173 351.417 427.038 353.069C430.313 354.964 433.587 356.858 437.046 358.862L432.568 361.386L426.921 364.546V368.478C426.42 368.788 425.927 369.115 425.434 369.451L421.684 367.405V375.462H421.709C421.817 377.214 422.77 378.95 424.599 380.35V380.366Z" fill="#119465"/>
<path d="M679.991 367.856L678.479 368.032C677.568 365.718 676.24 363.463 674.511 361.317C671.044 357.024 666.65 353.864 661.922 351.131C643.987 340.751 626.068 330.347 608.117 320.002C602.879 316.983 597.691 313.823 592.245 311.232C581.527 306.143 570.05 304.139 558.263 303.93C543.093 303.662 528.474 306.093 515.033 313.58C510.364 316.179 505.744 318.861 501.125 321.553L489.914 320.337V328.243C490.424 328.637 490.766 328.964 491.167 329.199C499.471 334.019 507.766 338.857 516.127 343.577C516.812 343.962 518.141 343.803 518.884 343.384C526.452 339.1 533.895 334.589 541.506 330.389C550.87 325.208 560.644 325.107 569.841 330.28C591.735 342.596 613.388 355.339 635.09 367.974C642.976 372.559 642.968 379.007 635.09 383.609C617.915 393.636 600.69 403.579 583.449 413.481C582.747 413.883 581.41 413.841 580.684 413.447C576.047 410.907 571.503 408.207 566.934 405.558C562.891 403.21 561.404 402.381 559.474 403.445L558.463 402.674L550.009 411.519V418.058C549.993 418.402 550.001 418.754 550.009 419.098V419.416L550.026 419.433C550.235 422.954 551.797 426.45 554.763 429.586C556.325 431.237 558.129 432.755 560.067 433.929C566.85 438.037 573.767 441.927 580.583 445.993C581.745 446.689 582.496 446.27 583.424 445.733C609.729 430.491 636.068 415.308 662.314 399.958C665.94 397.837 669.407 395.229 672.431 392.312C677.368 387.558 679.89 381.924 679.999 376.215V376.198C679.999 376.081 679.999 375.955 679.999 375.837C679.999 374.27 679.999 368.2 679.999 367.839L679.991 367.856Z" fill="#119465"/>
<g filter="url(#filter25_b_1048_1494)">
<path d="M489.9 320.337C490.359 320.002 490.66 319.734 490.994 319.541C498.997 314.904 506.941 310.168 515.019 305.666C528.459 298.179 543.078 295.748 558.248 296.016C570.043 296.225 581.513 298.229 592.23 303.318C597.677 305.909 602.865 309.069 608.102 312.088C626.054 322.441 643.972 332.837 661.907 343.216C666.635 345.95 671.038 349.11 674.496 353.403C682.465 363.279 681.755 375.427 672.408 384.414C669.375 387.332 665.917 389.939 662.292 392.06C636.045 407.411 609.706 422.594 583.401 437.836C582.482 438.372 581.73 438.783 580.561 438.096C573.752 434.029 566.836 430.139 560.044 426.031C558.106 424.858 556.293 423.34 554.74 421.689C548.266 414.831 548.408 406.262 554.974 399.488C555.074 399.388 555.174 399.296 555.266 399.195C560.512 394.005 560.596 393.997 566.911 397.652C571.48 400.302 576.033 403.001 580.661 405.541C581.388 405.944 582.724 405.986 583.426 405.575C600.676 395.674 617.893 385.731 635.067 375.704C642.945 371.101 642.953 364.654 635.067 360.068C613.357 347.425 591.704 334.682 569.81 322.374C560.612 317.202 550.839 317.311 541.474 322.483C533.864 326.692 526.421 331.203 518.853 335.478C518.109 335.897 516.781 336.057 516.096 335.671C507.734 330.951 499.439 326.114 491.136 321.293C490.735 321.058 490.392 320.731 489.883 320.337H489.9Z" fill="#51D394" fill-opacity="0.49"/>
</g>
<g filter="url(#filter26_b_1048_1494)">
<path d="M551.798 389.05C542.952 395.053 536.16 401.777 539.059 413.841C538.249 413.439 537.664 413.179 537.113 412.869C531.148 409.423 525.175 405.994 519.236 402.498C518.317 401.961 517.641 401.743 516.605 402.339C495.136 414.822 473.642 427.255 452.157 439.705C451.923 439.839 451.723 440.032 451.263 440.384C472.498 452.683 493.591 464.898 515.009 477.306C514.199 477.818 513.614 478.22 512.996 478.581C505.052 483.183 497.082 487.752 489.18 492.422C487.752 493.269 486.716 493.311 485.254 492.464C444.28 468.679 403.272 444.945 362.273 421.202C355.231 417.119 348.181 413.045 341.139 408.962C340.495 408.593 339.885 408.174 339 407.604C339.911 407.042 340.537 406.631 341.189 406.262C349.124 401.659 357.085 397.09 364.988 392.429C366.308 391.649 367.26 391.691 368.555 392.454C386.214 402.741 403.915 412.961 421.575 423.256C422.953 424.061 423.922 424.078 425.317 423.256C448.933 409.515 472.49 395.673 496.255 382.201C510.598 374.068 525.301 374.295 539.811 382.117C543.77 384.255 547.613 386.619 551.79 389.042L551.798 389.05Z" fill="#5FABF4" fill-opacity="0.68"/>
</g>
<g filter="url(#filter27_b_1048_1494)">
<path d="M482.523 352.734C486.775 355.207 490.676 357.471 494.578 359.743C495.421 360.229 496.273 360.699 497.1 361.21C502.664 364.706 502.689 369.971 496.967 373.123C490.259 376.821 483.292 377.039 476.358 373.668C474.053 372.545 471.848 371.187 469.676 369.803C469.066 369.409 468.247 368.336 468.414 367.942C468.698 367.263 469.642 366.509 470.361 366.458C471.539 366.374 472.858 366.609 473.919 367.121C476.041 368.143 477.996 369.518 480.084 370.617C484.169 372.754 488.379 372.863 492.489 370.776C496.056 368.965 496.148 365.989 492.731 363.943C487.602 360.866 482.381 357.932 477.211 354.922C474.471 353.329 474.462 352.34 477.185 350.764C481.88 348.039 486.575 345.331 491.27 342.615C491.93 342.229 492.606 341.86 493.224 341.424C495.914 339.53 495.956 336.914 493.082 335.262C488.755 332.772 484.194 332.521 479.75 334.977C474.454 337.911 469.291 341.072 464.004 344.006C462.926 344.602 461.523 344.795 460.27 344.828C459.727 344.845 458.849 344.04 458.707 343.47C458.591 342.967 459.133 341.994 459.651 341.693C465.457 338.264 471.179 334.65 477.202 331.649C483.158 328.681 489.449 328.974 495.605 331.481C496.307 331.766 496.967 332.177 497.602 332.605C502.447 335.824 502.48 340.77 497.543 343.864C493.299 346.522 488.897 348.928 484.57 351.451C483.985 351.795 483.417 352.172 482.515 352.751L482.523 352.734Z" fill="#5FABF4" fill-opacity="0.68"/>
</g>
<g filter="url(#filter28_b_1048_1494)">
<path d="M440.277 352.841C435.591 350.125 431.322 347.651 427.054 345.178C424.188 343.518 421.49 341.649 421.841 337.826C422.184 334.103 425.024 332.393 428.081 331.236C434.655 328.754 441.154 328.997 447.403 332.426C449.475 333.567 451.53 334.74 453.534 335.99C455.13 336.979 455.088 338.278 453.309 338.781C452.039 339.142 450.393 339.1 449.182 338.597C447.019 337.7 445.064 336.283 443.001 335.134C439.751 333.324 436.284 333.005 432.692 333.776C432.016 333.919 431.356 334.17 430.738 334.472C429.167 335.243 427.605 336.409 427.889 338.203C428.089 339.494 429.209 341.003 430.345 341.732C434.563 344.424 438.957 346.83 443.293 349.345C444.254 349.907 445.231 350.443 446.183 351.022C448.313 352.296 448.33 353.143 446.217 354.384C441.288 357.259 436.343 360.11 431.414 362.969C429.593 364.025 427.505 365.073 427.839 367.588C428.165 370.07 430.295 370.983 432.425 371.612C436.201 372.736 439.835 372.417 443.285 370.422C448.464 367.429 453.584 364.327 458.856 361.518C460.1 360.856 461.921 360.831 463.358 361.116C464.745 361.392 464.845 362.843 463.567 363.572C457.185 367.261 450.886 371.134 444.287 374.387C439.676 376.659 434.53 376.55 429.593 375.008C427.839 374.454 426.076 373.599 424.614 372.484C420.655 369.449 420.738 364.838 424.84 361.988C427.513 360.126 430.437 358.617 433.252 356.957C435.457 355.658 437.679 354.384 440.294 352.866L440.277 352.841Z" fill="#28AD69" fill-opacity="0.47"/>
</g>
<path d="M551.797 389.051V396.957L545.941 393.519L551.797 389.051Z" fill="#2F72FF"/>
<path d="M539.049 421.756V413.842L530.688 409.164V417.07L539.049 421.756Z" fill="#2F72FF"/>
</g>
<g clip-path="url(#clip3_1048_1494)">
<path d="M816.5 279.432L816.906 422L880 386.195V241.98L816.5 279.432Z" fill="#2BB070"/>
<g filter="url(#filter29_b_1048_1494)">
<path d="M816.906 207L755 243.397L816.5 279.432L880 241.981L816.906 207Z" fill="#97E3BF" fill-opacity="0.7"/>
</g>
<g filter="url(#filter30_b_1048_1494)">
<path d="M755 243.398V386.703L816.906 422.002L816.5 279.434L755 243.398Z" fill="#29D783" fill-opacity="0.67"/>
</g>
</g>
<g clip-path="url(#clip4_1048_1494)">
<g filter="url(#filter31_b_1048_1494)">
<path d="M893.016 390.287V465L958.311 427.636V352.367L893.016 390.287Z" fill="#08B964" fill-opacity="0.8"/>
</g>
<path d="M828.863 352.367L893.019 390.287V465L828.863 427.455V352.367Z" fill="url(#paint9_linear_1048_1494)"/>
<g filter="url(#filter32_b_1048_1494)">
<path d="M845.875 330.826L893.586 304L942.138 330.826L893.586 359.018L845.875 330.826Z" fill="#97E3BF" fill-opacity="0.83"/>
</g>
<path d="M821 351L845.876 330.824L893.587 359.016L942.139 330.824L967 351L893.362 393.768L821 351Z" fill="#239B77"/>
<g filter="url(#filter33_b_1048_1494)">
<path d="M893.362 393.768L893.587 359.016L845.876 330.824L821 351L893.362 393.768Z" fill="#2BB070" fill-opacity="0.61"/>
</g>
<path d="M967 351V359.016C942.424 373.563 917.848 388.109 893.272 402.67C869.192 388.109 845.096 373.563 821 359.016V351L893.362 393.768L967 351Z" fill="#077B4B"/>
<path d="M893.272 402.67L893.362 393.768C869.252 379.507 845.126 365.246 821 351V359.016C845.096 373.563 869.192 388.109 893.272 402.67Z" fill="#209866"/>
</g>
<path d="M29.8828 415.052C29.8828 403.978 38.8604 395 49.9349 395C61.0094 395 69.987 403.978 69.987 415.052L69.987 443.927C69.987 455.002 61.0094 463.979 49.9349 463.979C38.8604 463.979 29.8828 455.002 29.8828 443.927L29.8828 415.052Z" fill="url(#paint10_linear_1048_1494)"/>
<mask id="mask8_1048_1494" style="mask-type:alpha" maskUnits="userSpaceOnUse" x="24" y="429" width="52" height="43">
<rect x="24" y="472" width="42.2431" height="51.8681" transform="rotate(-90 24 472)" fill="#D9D9D9"/>
</mask>
<g mask="url(#mask8_1048_1494)">
<rect x="69.9844" y="464.516" width="40.1042" height="68.9792" rx="20.0521" transform="rotate(-180 69.9844 464.516)" fill="url(#paint11_linear_1048_1494)"/>
</g>
<g filter="url(#filter34_b_1048_1494)">
<ellipse cx="50" cy="429.5" rx="20" ry="7.5" fill="#14A25D" fill-opacity="0.72"/>
<path d="M69.5 429.5C69.5 430.341 69.0472 431.202 68.0966 432.045C67.1466 432.887 65.7434 433.669 63.9666 434.335C60.4166 435.666 55.4788 436.5 50 436.5C44.5212 436.5 39.5834 435.666 36.0334 434.335C34.2566 433.669 32.8534 432.887 31.9034 432.045C30.9528 431.202 30.5 430.341 30.5 429.5C30.5 428.659 30.9528 427.798 31.9034 426.955C32.8534 426.113 34.2566 425.331 36.0334 424.665C39.5834 423.334 44.5212 422.5 50 422.5C55.4788 422.5 60.4166 423.334 63.9666 424.665C65.7434 425.331 67.1466 426.113 68.0966 426.955C69.0472 427.798 69.5 428.659 69.5 429.5Z" stroke="#90E6BC" stroke-opacity="0.4"/>
</g>
<path d="M3.95703 481.504C3.95703 474.046 10.0032 468 17.4615 468C24.9198 468 30.966 474.046 30.966 481.504L30.966 500.951C30.966 508.409 24.9198 514.455 17.4615 514.455C10.0032 514.455 3.95703 508.409 3.95703 500.951L3.95703 481.504Z" fill="url(#paint12_linear_1048_1494)"/>
<mask id="mask9_1048_1494" style="mask-type:alpha" maskUnits="userSpaceOnUse" x="0" y="491" width="35" height="29">
<rect y="519.855" width="28.4494" height="34.9316" transform="rotate(-90 0 519.855)" fill="#D9D9D9"/>
</mask>
<g mask="url(#mask9_1048_1494)">
<rect x="30.9727" y="514.816" width="27.0089" height="46.4554" rx="13.5045" transform="rotate(-180 30.9727 514.816)" fill="url(#paint13_linear_1048_1494)"/>
</g>
<g filter="url(#filter35_b_1048_1494)">
<ellipse cx="17.5046" cy="491.235" rx="13.4694" ry="5.05102" fill="#14A25D" fill-opacity="0.72"/>
<path d="M30.4739 491.235C30.4739 491.738 30.2039 492.277 29.5838 492.827C28.9642 493.376 28.0392 493.893 26.8533 494.338C24.4851 495.226 21.1799 495.786 17.5046 495.786C13.8292 495.786 10.524 495.226 8.15581 494.338C6.96987 493.893 6.04488 493.376 5.42535 492.827C4.80524 492.277 4.53516 491.738 4.53516 491.235C4.53516 490.732 4.80524 490.192 5.42535 489.643C6.04488 489.093 6.96987 488.576 8.15581 488.131C10.524 487.243 13.8292 486.684 17.5046 486.684C21.1799 486.684 24.4851 487.243 26.8533 488.131C28.0392 488.576 28.9642 489.093 29.5838 489.643C30.2039 490.192 30.4739 490.732 30.4739 491.235Z" stroke="#90E6BC" stroke-opacity="0.4"/>
</g>
<path d="M821 351L846 331L893.5 304" stroke="white" stroke-opacity="0.8"/>
<path d="M821.5 351C821.5 350.724 821.276 350.5 821 350.5C820.724 350.5 820.5 350.724 820.5 351H821.5ZM821 359H820.5V359.282L820.741 359.428L821 359ZM820.5 351V359H821.5V351H820.5ZM820.741 359.428L892.741 402.928L893.259 402.072L821.259 358.572L820.741 359.428Z" fill="white" fill-opacity="0.8"/>
<path d="M755 243.5L817.5 206.5L880.5 242" stroke="white"/>
<g clip-path="url(#clip5_1048_1494)">
<path d="M744 458.848L800.007 427.32L857 458.848L800.007 492L744 458.848Z" fill="#D0EBF6"/>
<g filter="url(#filter36_b_1048_1494)">
<path d="M744 415.546L800.007 384L857 415.546L800.007 448.698L744 415.546Z" fill="#C9FFE5" fill-opacity="0.74"/>
</g>
<path d="M800.008 448.699V492.001L857.001 458.849V415.547L800.008 448.699Z" fill="#39C783"/>
<path d="M744 415.547V458.849L800.007 492.001V448.699L744 415.547Z" fill="#60DCAB"/>
</g>
<defs>
<filter id="filter0_b_1048_1494" x="178" y="50" width="678" height="678" filterUnits="userSpaceOnUse" color-interpolation-filters="sRGB">
<feFlood flood-opacity="0" result="BackgroundImageFix"/>
<feGaussianBlur in="BackgroundImageFix" stdDeviation="2"/>
<feComposite in2="SourceAlpha" operator="in" result="effect1_backgroundBlur_1048_1494"/>
<feBlend mode="normal" in="SourceGraphic" in2="effect1_backgroundBlur_1048_1494" result="shape"/>
</filter>
<filter id="filter1_b_1048_1494" x="719.242" y="546.594" width="55.3281" height="52.5742" filterUnits="userSpaceOnUse" color-interpolation-filters="sRGB">
<feFlood flood-opacity="0" result="BackgroundImageFix"/>
<feGaussianBlur in="BackgroundImageFix" stdDeviation="5"/>
<feComposite in2="SourceAlpha" operator="in" result="effect1_backgroundBlur_1048_1494"/>
<feBlend mode="normal" in="SourceGraphic" in2="effect1_backgroundBlur_1048_1494" result="shape"/>
</filter>
<filter id="filter2_b_1048_1494" x="412.672" y="636.758" width="40.0195" height="63.6719" filterUnits="userSpaceOnUse" color-interpolation-filters="sRGB">
<feFlood flood-opacity="0" result="BackgroundImageFix"/>
<feGaussianBlur in="BackgroundImageFix" stdDeviation="5"/>
<feComposite in2="SourceAlpha" operator="in" result="effect1_backgroundBlur_1048_1494"/>
<feBlend mode="normal" in="SourceGraphic" in2="effect1_backgroundBlur_1048_1494" result="shape"/>
</filter>
<filter id="filter3_b_1048_1494" x="503.398" y="61.0742" width="36.9062" height="64.9609" filterUnits="userSpaceOnUse" color-interpolation-filters="sRGB">
<feFlood flood-opacity="0" result="BackgroundImageFix"/>
<feGaussianBlur in="BackgroundImageFix" stdDeviation="5"/>
<feComposite in2="SourceAlpha" operator="in" result="effect1_backgroundBlur_1048_1494"/>
<feBlend mode="normal" in="SourceGraphic" in2="effect1_backgroundBlur_1048_1494" result="shape"/>
</filter>
<filter id="filter4_b_1048_1494" x="708.016" y="160.629" width="52.4258" height="49.9453" filterUnits="userSpaceOnUse" color-interpolation-filters="sRGB">
<feFlood flood-opacity="0" result="BackgroundImageFix"/>
<feGaussianBlur in="BackgroundImageFix" stdDeviation="5"/>
<feComposite in2="SourceAlpha" operator="in" result="effect1_backgroundBlur_1048_1494"/>
<feBlend mode="normal" in="SourceGraphic" in2="effect1_backgroundBlur_1048_1494" result="shape"/>
</filter>
<filter id="filter5_b_1048_1494" x="227.004" y="243" width="47.0742" height="28.5391" filterUnits="userSpaceOnUse" color-interpolation-filters="sRGB">
<feFlood flood-opacity="0" result="BackgroundImageFix"/>
<feGaussianBlur in="BackgroundImageFix" stdDeviation="2"/>
<feComposite in2="SourceAlpha" operator="in" result="effect1_backgroundBlur_1048_1494"/>
<feBlend mode="normal" in="SourceGraphic" in2="effect1_backgroundBlur_1048_1494" result="shape"/>
</filter>
<filter id="filter6_b_1048_1494" x="331.836" y="128.934" width="39.9727" height="38.4492" filterUnits="userSpaceOnUse" color-interpolation-filters="sRGB">
<feFlood flood-opacity="0" result="BackgroundImageFix"/>
<feGaussianBlur in="BackgroundImageFix" stdDeviation="2"/>
<feComposite in2="SourceAlpha" operator="in" result="effect1_backgroundBlur_1048_1494"/>
<feBlend mode="normal" in="SourceGraphic" in2="effect1_backgroundBlur_1048_1494" result="shape"/>
</filter>
<filter id="filter7_b_1048_1494" x="238.309" y="493.184" width="33.5781" height="43.9844" filterUnits="userSpaceOnUse" color-interpolation-filters="sRGB">
<feFlood flood-opacity="0" result="BackgroundImageFix"/>
<feGaussianBlur in="BackgroundImageFix" stdDeviation="2"/>
<feComposite in2="SourceAlpha" operator="in" result="effect1_backgroundBlur_1048_1494"/>
<feBlend mode="normal" in="SourceGraphic" in2="effect1_backgroundBlur_1048_1494" result="shape"/>
</filter>
<filter id="filter8_b_1048_1494" x="348.234" y="617.906" width="37.0352" height="41.2617" filterUnits="userSpaceOnUse" color-interpolation-filters="sRGB">
<feFlood flood-opacity="0" result="BackgroundImageFix"/>
<feGaussianBlur in="BackgroundImageFix" stdDeviation="2"/>
<feComposite in2="SourceAlpha" operator="in" result="effect1_backgroundBlur_1048_1494"/>
<feBlend mode="normal" in="SourceGraphic" in2="effect1_backgroundBlur_1048_1494" result="shape"/>
</filter>
<filter id="filter9_b_1048_1494" x="668.836" y="606.918" width="47.0391" height="28.6055" filterUnits="userSpaceOnUse" color-interpolation-filters="sRGB">
<feFlood flood-opacity="0" result="BackgroundImageFix"/>
<feGaussianBlur in="BackgroundImageFix" stdDeviation="2"/>
<feComposite in2="SourceAlpha" operator="in" result="effect1_backgroundBlur_1048_1494"/>
<feBlend mode="normal" in="SourceGraphic" in2="effect1_backgroundBlur_1048_1494" result="shape"/>
</filter>
<filter id="filter10_b_1048_1494" x="368.926" y="107.551" width="39.9727" height="38.4492" filterUnits="userSpaceOnUse" color-interpolation-filters="sRGB">
<feFlood flood-opacity="0" result="BackgroundImageFix"/>
<feGaussianBlur in="BackgroundImageFix" stdDeviation="2"/>
<feComposite in2="SourceAlpha" operator="in" result="effect1_backgroundBlur_1048_1494"/>
<feBlend mode="normal" in="SourceGraphic" in2="effect1_backgroundBlur_1048_1494" result="shape"/>
</filter>
<filter id="filter11_b_1048_1494" x="668.715" y="126.578" width="42.4961" height="35.5547" filterUnits="userSpaceOnUse" color-interpolation-filters="sRGB">
<feFlood flood-opacity="0" result="BackgroundImageFix"/>
<feGaussianBlur in="BackgroundImageFix" stdDeviation="2"/>
<feComposite in2="SourceAlpha" operator="in" result="effect1_backgroundBlur_1048_1494"/>
<feBlend mode="normal" in="SourceGraphic" in2="effect1_backgroundBlur_1048_1494" result="shape"/>
</filter>
<filter id="filter12_b_1048_1494" x="68.1875" y="328.605" width="133.66" height="204.395" filterUnits="userSpaceOnUse" color-interpolation-filters="sRGB">
<feFlood flood-opacity="0" result="BackgroundImageFix"/>
<feGaussianBlur in="BackgroundImageFix" stdDeviation="10"/>
<feComposite in2="SourceAlpha" operator="in" result="effect1_backgroundBlur_1048_1494"/>
<feBlend mode="normal" in="SourceGraphic" in2="effect1_backgroundBlur_1048_1494" result="shape"/>
</filter>
<filter id="filter13_b_1048_1494" x="59" y="271.398" width="245.699" height="152.203" filterUnits="userSpaceOnUse" color-interpolation-filters="sRGB">
<feFlood flood-opacity="0" result="BackgroundImageFix"/>
<feGaussianBlur in="BackgroundImageFix" stdDeviation="5"/>
<feComposite in2="SourceAlpha" operator="in" result="effect1_backgroundBlur_1048_1494"/>
<feBlend mode="normal" in="SourceGraphic" in2="effect1_backgroundBlur_1048_1494" result="shape"/>
</filter>
<filter id="filter14_b_1048_1494" x="65" y="263" width="233.699" height="140.203" filterUnits="userSpaceOnUse" color-interpolation-filters="sRGB">
<feFlood flood-opacity="0" result="BackgroundImageFix"/>
<feGaussianBlur in="BackgroundImageFix" stdDeviation="2"/>
<feComposite in2="SourceAlpha" operator="in" result="effect1_backgroundBlur_1048_1494"/>
<feBlend mode="normal" in="SourceGraphic" in2="effect1_backgroundBlur_1048_1494" result="shape"/>
</filter>
<filter id="filter15_b_1048_1494" x="77.6641" y="268.488" width="208.379" height="138.629" filterUnits="userSpaceOnUse" color-interpolation-filters="sRGB">
<feFlood flood-opacity="0" result="BackgroundImageFix"/>
<feGaussianBlur in="BackgroundImageFix" stdDeviation="10"/>
<feComposite in2="SourceAlpha" operator="in" result="effect1_backgroundBlur_1048_1494"/>
<feBlend mode="normal" in="SourceGraphic" in2="effect1_backgroundBlur_1048_1494" result="shape"/>
</filter>
<filter id="filter16_b_1048_1494" x="93.6641" y="273.746" width="176.379" height="106.629" filterUnits="userSpaceOnUse" color-interpolation-filters="sRGB">
<feFlood flood-opacity="0" result="BackgroundImageFix"/>
<feGaussianBlur in="BackgroundImageFix" stdDeviation="2"/>
<feComposite in2="SourceAlpha" operator="in" result="effect1_backgroundBlur_1048_1494"/>
<feBlend mode="normal" in="SourceGraphic" in2="effect1_backgroundBlur_1048_1494" result="shape"/>
</filter>
<filter id="filter17_b_1048_1494" x="185" y="313" width="108" height="127" filterUnits="userSpaceOnUse" color-interpolation-filters="sRGB">
<feFlood flood-opacity="0" result="BackgroundImageFix"/>
<feGaussianBlur in="BackgroundImageFix" stdDeviation="10"/>
<feComposite in2="SourceAlpha" operator="in" result="effect1_backgroundBlur_1048_1494"/>
<feBlend mode="normal" in="SourceGraphic" in2="effect1_backgroundBlur_1048_1494" result="shape"/>
</filter>
<filter id="filter18_b_1048_1494" x="199.277" y="341.23" width="83.6797" height="72.0898" filterUnits="userSpaceOnUse" color-interpolation-filters="sRGB">
<feFlood flood-opacity="0" result="BackgroundImageFix"/>
<feGaussianBlur in="BackgroundImageFix" stdDeviation="5"/>
<feComposite in2="SourceAlpha" operator="in" result="effect1_backgroundBlur_1048_1494"/>
<feBlend mode="normal" in="SourceGraphic" in2="effect1_backgroundBlur_1048_1494" result="shape"/>
</filter>
<filter id="filter19_b_1048_1494" x="221.484" y="329.344" width="42.0781" height="95.8438" filterUnits="userSpaceOnUse" color-interpolation-filters="sRGB">
<feFlood flood-opacity="0" result="BackgroundImageFix"/>
<feGaussianBlur in="BackgroundImageFix" stdDeviation="5"/>
<feComposite in2="SourceAlpha" operator="in" result="effect1_backgroundBlur_1048_1494"/>
<feBlend mode="normal" in="SourceGraphic" in2="effect1_backgroundBlur_1048_1494" result="shape"/>
</filter>
<filter id="filter20_b_1048_1494" x="102" y="509.004" width="47.0742" height="28.5391" filterUnits="userSpaceOnUse" color-interpolation-filters="sRGB">
<feFlood flood-opacity="0" result="BackgroundImageFix"/>
<feGaussianBlur in="BackgroundImageFix" stdDeviation="2"/>
<feComposite in2="SourceAlpha" operator="in" result="effect1_backgroundBlur_1048_1494"/>
<feBlend mode="normal" in="SourceGraphic" in2="effect1_backgroundBlur_1048_1494" result="shape"/>
</filter>
<filter id="filter21_b_1048_1494" x="41" y="477" width="47.0742" height="28.5391" filterUnits="userSpaceOnUse" color-interpolation-filters="sRGB">
<feFlood flood-opacity="0" result="BackgroundImageFix"/>
<feGaussianBlur in="BackgroundImageFix" stdDeviation="2"/>
<feComposite in2="SourceAlpha" operator="in" result="effect1_backgroundBlur_1048_1494"/>
<feBlend mode="normal" in="SourceGraphic" in2="effect1_backgroundBlur_1048_1494" result="shape"/>
</filter>
<filter id="filter22_b_1048_1494" x="133" y="524.004" width="47.0742" height="28.5391" filterUnits="userSpaceOnUse" color-interpolation-filters="sRGB">
<feFlood flood-opacity="0" result="BackgroundImageFix"/>
<feGaussianBlur in="BackgroundImageFix" stdDeviation="2"/>
<feComposite in2="SourceAlpha" operator="in" result="effect1_backgroundBlur_1048_1494"/>
<feBlend mode="normal" in="SourceGraphic" in2="effect1_backgroundBlur_1048_1494" result="shape"/>
</filter>
<filter id="filter23_b_1048_1494" x="80" y="530.004" width="47.0742" height="28.5391" filterUnits="userSpaceOnUse" color-interpolation-filters="sRGB">
<feFlood flood-opacity="0" result="BackgroundImageFix"/>
<feGaussianBlur in="BackgroundImageFix" stdDeviation="2"/>
<feComposite in2="SourceAlpha" operator="in" result="effect1_backgroundBlur_1048_1494"/>
<feBlend mode="normal" in="SourceGraphic" in2="effect1_backgroundBlur_1048_1494" result="shape"/>
</filter>
<filter id="filter24_b_1048_1494" x="319" y="276" width="381" height="245" filterUnits="userSpaceOnUse" color-interpolation-filters="sRGB">
<feFlood flood-opacity="0" result="BackgroundImageFix"/>
<feGaussianBlur in="BackgroundImageFix" stdDeviation="10"/>
<feComposite in2="SourceAlpha" operator="in" result="effect1_backgroundBlur_1048_1494"/>
<feBlend mode="normal" in="SourceGraphic" in2="effect1_backgroundBlur_1048_1494" result="shape"/>
</filter>
<filter id="filter25_b_1048_1494" x="485.883" y="291.996" width="198.105" height="150.461" filterUnits="userSpaceOnUse" color-interpolation-filters="sRGB">
<feFlood flood-opacity="0" result="BackgroundImageFix"/>
<feGaussianBlur in="BackgroundImageFix" stdDeviation="2"/>
<feComposite in2="SourceAlpha" operator="in" result="effect1_backgroundBlur_1048_1494"/>
<feBlend mode="normal" in="SourceGraphic" in2="effect1_backgroundBlur_1048_1494" result="shape"/>
</filter>
<filter id="filter26_b_1048_1494" x="335" y="372.176" width="220.797" height="124.902" filterUnits="userSpaceOnUse" color-interpolation-filters="sRGB">
<feFlood flood-opacity="0" result="BackgroundImageFix"/>
<feGaussianBlur in="BackgroundImageFix" stdDeviation="2"/>
<feComposite in2="SourceAlpha" operator="in" result="effect1_backgroundBlur_1048_1494"/>
<feBlend mode="normal" in="SourceGraphic" in2="effect1_backgroundBlur_1048_1494" result="shape"/>
</filter>
<filter id="filter27_b_1048_1494" x="454.691" y="325.512" width="50.5742" height="54.543" filterUnits="userSpaceOnUse" color-interpolation-filters="sRGB">
<feFlood flood-opacity="0" result="BackgroundImageFix"/>
<feGaussianBlur in="BackgroundImageFix" stdDeviation="2"/>
<feComposite in2="SourceAlpha" operator="in" result="effect1_backgroundBlur_1048_1494"/>
<feBlend mode="normal" in="SourceGraphic" in2="effect1_backgroundBlur_1048_1494" result="shape"/>
</filter>
<filter id="filter28_b_1048_1494" x="417.703" y="325.582" width="50.7617" height="54.5508" filterUnits="userSpaceOnUse" color-interpolation-filters="sRGB">
<feFlood flood-opacity="0" result="BackgroundImageFix"/>
<feGaussianBlur in="BackgroundImageFix" stdDeviation="2"/>
<feComposite in2="SourceAlpha" operator="in" result="effect1_backgroundBlur_1048_1494"/>
<feBlend mode="normal" in="SourceGraphic" in2="effect1_backgroundBlur_1048_1494" result="shape"/>
</filter>
<filter id="filter29_b_1048_1494" x="747" y="199" width="141" height="88.4336" filterUnits="userSpaceOnUse" color-interpolation-filters="sRGB">
<feFlood flood-opacity="0" result="BackgroundImageFix"/>
<feGaussianBlur in="BackgroundImageFix" stdDeviation="4"/>
<feComposite in2="SourceAlpha" operator="in" result="effect1_backgroundBlur_1048_1494"/>
<feBlend mode="normal" in="SourceGraphic" in2="effect1_backgroundBlur_1048_1494" result="shape"/>
</filter>
<filter id="filter30_b_1048_1494" x="751" y="239.398" width="69.9062" height="186.602" filterUnits="userSpaceOnUse" color-interpolation-filters="sRGB">
<feFlood flood-opacity="0" result="BackgroundImageFix"/>
<feGaussianBlur in="BackgroundImageFix" stdDeviation="2"/>
<feComposite in2="SourceAlpha" operator="in" result="effect1_backgroundBlur_1048_1494"/>
<feBlend mode="normal" in="SourceGraphic" in2="effect1_backgroundBlur_1048_1494" result="shape"/>
</filter>
<filter id="filter31_b_1048_1494" x="883.016" y="342.367" width="85.2969" height="132.633" filterUnits="userSpaceOnUse" color-interpolation-filters="sRGB">
<feFlood flood-opacity="0" result="BackgroundImageFix"/>
<feGaussianBlur in="BackgroundImageFix" stdDeviation="5"/>
<feComposite in2="SourceAlpha" operator="in" result="effect1_backgroundBlur_1048_1494"/>
<feBlend mode="normal" in="SourceGraphic" in2="effect1_backgroundBlur_1048_1494" result="shape"/>
</filter>
<filter id="filter32_b_1048_1494" x="841.875" y="300" width="104.262" height="63.0195" filterUnits="userSpaceOnUse" color-interpolation-filters="sRGB">
<feFlood flood-opacity="0" result="BackgroundImageFix"/>
<feGaussianBlur in="BackgroundImageFix" stdDeviation="2"/>
<feComposite in2="SourceAlpha" operator="in" result="effect1_backgroundBlur_1048_1494"/>
<feBlend mode="normal" in="SourceGraphic" in2="effect1_backgroundBlur_1048_1494" result="shape"/>
</filter>
<filter id="filter33_b_1048_1494" x="817" y="326.824" width="80.5859" height="70.9453" filterUnits="userSpaceOnUse" color-interpolation-filters="sRGB">
<feFlood flood-opacity="0" result="BackgroundImageFix"/>
<feGaussianBlur in="BackgroundImageFix" stdDeviation="2"/>
<feComposite in2="SourceAlpha" operator="in" result="effect1_backgroundBlur_1048_1494"/>
<feBlend mode="normal" in="SourceGraphic" in2="effect1_backgroundBlur_1048_1494" result="shape"/>
</filter>
<filter id="filter34_b_1048_1494" x="20" y="412" width="60" height="35" filterUnits="userSpaceOnUse" color-interpolation-filters="sRGB">
<feFlood flood-opacity="0" result="BackgroundImageFix"/>
<feGaussianBlur in="BackgroundImageFix" stdDeviation="5"/>
<feComposite in2="SourceAlpha" operator="in" result="effect1_backgroundBlur_1048_1494"/>
<feBlend mode="normal" in="SourceGraphic" in2="effect1_backgroundBlur_1048_1494" result="shape"/>
</filter>
<filter id="filter35_b_1048_1494" x="-5.96484" y="476.184" width="46.9375" height="30.1016" filterUnits="userSpaceOnUse" color-interpolation-filters="sRGB">
<feFlood flood-opacity="0" result="BackgroundImageFix"/>
<feGaussianBlur in="BackgroundImageFix" stdDeviation="5"/>
<feComposite in2="SourceAlpha" operator="in" result="effect1_backgroundBlur_1048_1494"/>
<feBlend mode="normal" in="SourceGraphic" in2="effect1_backgroundBlur_1048_1494" result="shape"/>
</filter>
<filter id="filter36_b_1048_1494" x="740" y="380" width="121" height="72.6992" filterUnits="userSpaceOnUse" color-interpolation-filters="sRGB">
<feFlood flood-opacity="0" result="BackgroundImageFix"/>
<feGaussianBlur in="BackgroundImageFix" stdDeviation="2"/>
<feComposite in2="SourceAlpha" operator="in" result="effect1_backgroundBlur_1048_1494"/>
<feBlend mode="normal" in="SourceGraphic" in2="effect1_backgroundBlur_1048_1494" result="shape"/>
</filter>
<linearGradient id="paint0_linear_1048_1494" x1="788.171" y1="565.059" x2="704.055" y2="596.203" gradientUnits="userSpaceOnUse">
<stop stop-color="#00CD6B"/>
<stop offset="0.9998" stop-color="#D9D9D9"/>
<stop offset="0.9999" stop-color="#003E20"/>
</linearGradient>
<linearGradient id="paint1_linear_1048_1494" x1="785.43" y1="622.607" x2="743.641" y2="701.975" gradientUnits="userSpaceOnUse">
<stop stop-color="#9FEBC7"/>
<stop offset="0.317708" stop-color="#8CD9B4"/>
<stop offset="0.9998" stop-color="#A3FFD3"/>
<stop offset="0.9999" stop-color="#D9D9D9"/>
<stop offset="1" stop-color="#40AF7A"/>
</linearGradient>
<linearGradient id="paint2_linear_1048_1494" x1="458.343" y1="701.84" x2="392.479" y2="640.951" gradientUnits="userSpaceOnUse">
<stop stop-color="#00CD6B"/>
<stop offset="0.9998" stop-color="#D9D9D9"/>
<stop offset="0.9999" stop-color="#003E20"/>
</linearGradient>
<linearGradient id="paint3_linear_1048_1494" x1="436.938" y1="685.536" x2="395.149" y2="764.904" gradientUnits="userSpaceOnUse">
<stop stop-color="#9FEBC7"/>
<stop offset="0.317708" stop-color="#8CD9B4"/>
<stop offset="0.9998" stop-color="#A3FFD3"/>
<stop offset="0.9999" stop-color="#D9D9D9"/>
<stop offset="1" stop-color="#40AF7A"/>
</linearGradient>
<linearGradient id="paint4_linear_1048_1494" x1="554.529" y1="119.936" x2="476.334" y2="75.9921" gradientUnits="userSpaceOnUse">
<stop stop-color="#00CD6B"/>
<stop offset="0.9998" stop-color="#D9D9D9"/>
<stop offset="0.9999" stop-color="#003E20"/>
</linearGradient>
<linearGradient id="paint5_linear_1048_1494" x1="529.981" y1="120.357" x2="488.192" y2="199.725" gradientUnits="userSpaceOnUse">
<stop stop-color="#9FEBC7"/>
<stop offset="0.317708" stop-color="#8CD9B4"/>
<stop offset="0.9998" stop-color="#A3FFD3"/>
<stop offset="0.9999" stop-color="#D9D9D9"/>
<stop offset="1" stop-color="#40AF7A"/>
</linearGradient>
<linearGradient id="paint6_linear_1048_1494" x1="737.336" y1="224.052" x2="717.114" y2="144.175" gradientUnits="userSpaceOnUse">
<stop stop-color="#00CD6B"/>
<stop offset="0.9998" stop-color="#D9D9D9"/>
<stop offset="0.9999" stop-color="#003E20"/>
</linearGradient>
<linearGradient id="paint7_linear_1048_1494" x1="738.875" y1="177.487" x2="700.487" y2="250.396" gradientUnits="userSpaceOnUse">
<stop stop-color="#9FEBC7"/>
<stop offset="0.317708" stop-color="#8CD9B4"/>
<stop offset="0.9998" stop-color="#A3FFD3"/>
<stop offset="0.9999" stop-color="#D9D9D9"/>
<stop offset="1" stop-color="#40AF7A"/>
</linearGradient>
<linearGradient id="paint8_linear_1048_1494" x1="135.018" y1="348.605" x2="135.018" y2="513" gradientUnits="userSpaceOnUse">
<stop stop-color="white"/>
<stop offset="1" stop-color="white" stop-opacity="0"/>
</linearGradient>
<linearGradient id="paint9_linear_1048_1494" x1="861" y1="379" x2="900.5" y2="557.5" gradientUnits="userSpaceOnUse">
<stop stop-color="#61DDAC"/>
<stop offset="1" stop-color="#61DDAC" stop-opacity="0"/>
</linearGradient>
<linearGradient id="paint10_linear_1048_1494" x1="72.6606" y1="399.813" x2="35.4974" y2="470.396" gradientUnits="userSpaceOnUse">
<stop stop-color="#00CD6B"/>
<stop offset="0.9998" stop-color="#D9D9D9"/>
<stop offset="0.9999" stop-color="#003E20"/>
</linearGradient>
<linearGradient id="paint11_linear_1048_1494" x1="112.762" y1="469.328" x2="75.599" y2="539.911" gradientUnits="userSpaceOnUse">
<stop stop-color="#9FEBC7"/>
<stop offset="0.317708" stop-color="#8CD9B4"/>
<stop offset="0.9998" stop-color="#A3FFD3"/>
<stop offset="0.9999" stop-color="#D9D9D9"/>
<stop offset="1" stop-color="#40AF7A"/>
</linearGradient>
<linearGradient id="paint12_linear_1048_1494" x1="32.7666" y1="471.241" x2="7.73828" y2="518.777" gradientUnits="userSpaceOnUse">
<stop stop-color="#00CD6B"/>
<stop offset="0.9998" stop-color="#D9D9D9"/>
<stop offset="0.9999" stop-color="#003E20"/>
</linearGradient>
<linearGradient id="paint13_linear_1048_1494" x1="59.7822" y1="518.057" x2="34.7539" y2="565.593" gradientUnits="userSpaceOnUse">
<stop stop-color="#9FEBC7"/>
<stop offset="0.317708" stop-color="#8CD9B4"/>
<stop offset="0.9998" stop-color="#A3FFD3"/>
<stop offset="0.9999" stop-color="#D9D9D9"/>
<stop offset="1" stop-color="#40AF7A"/>
</linearGradient>
<clipPath id="clip0_1048_1494">
<rect width="670" height="670" fill="white" transform="translate(182 54)"/>
</clipPath>
<clipPath id="clip1_1048_1494">
<rect width="225.699" height="246" fill="white" transform="translate(69 267)"/>
</clipPath>
<clipPath id="clip2_1048_1494">
<rect width="341" height="205" fill="white" transform="translate(339 296)"/>
</clipPath>
<clipPath id="clip3_1048_1494">
<rect width="125" height="215" fill="white" transform="translate(755 207)"/>
</clipPath>
<clipPath id="clip4_1048_1494">
<rect width="146" height="161" fill="white" transform="translate(821 304)"/>
</clipPath>
<clipPath id="clip5_1048_1494">
<rect width="113" height="108" fill="white" transform="translate(744 384)"/>
</clipPath>
</defs>
</svg>
