<svg width="188" height="197" viewBox="0 0 188 197" fill="none" xmlns="http://www.w3.org/2000/svg">
<g id="Group">
<g id="Group_2">
<path id="Vector" d="M4.91764 196.031V192.51L3.23216 195.426H2.8177L1.15986 192.565V196.059H0.248047V190.749H1.0217L3.03875 194.271L5.02817 190.749H5.80182V196.059H4.91764V196.031Z" fill="#231815"/>
<path id="Vector_2" d="M14.147 195.207V196.032H10.334V190.722H14.0365V191.548H11.2734V192.923H13.7326V193.749H11.2734V195.207H14.147Z" fill="#231815"/>
<path id="Vector_3" d="M18.3477 190.722H20.5581C21.1107 190.722 21.5805 190.832 21.9949 191.052C22.4094 191.272 22.7409 191.575 22.962 191.988C23.183 192.401 23.3212 192.868 23.3212 193.391C23.3212 193.914 23.2107 194.381 22.962 194.794C22.7409 195.207 22.4094 195.51 21.9949 195.73C21.5805 195.95 21.0831 196.06 20.5581 196.06H18.3477V190.75V190.722ZM20.5305 195.207C20.8897 195.207 21.2212 195.124 21.5252 194.987C21.8291 194.849 22.0225 194.629 22.1883 194.354C22.3541 194.079 22.4094 193.749 22.4094 193.391C22.4094 193.033 22.3265 192.703 22.1883 192.428C22.0225 192.153 21.8291 191.933 21.5252 191.795C21.2489 191.658 20.9173 191.575 20.5305 191.575H19.2871V195.234H20.5305V195.207Z" fill="#231815"/>
<path id="Vector_4" d="M27.4922 190.722H28.4316V196.032H27.4922V190.722Z" fill="#231815"/>
<path id="Vector_5" d="M33.9298 195.757C33.5153 195.509 33.1838 195.206 32.9627 194.766C32.714 194.354 32.6035 193.886 32.6035 193.363C32.6035 192.84 32.714 192.373 32.9627 191.96C33.2114 191.547 33.5153 191.217 33.9298 190.969C34.3443 190.722 34.814 190.612 35.3113 190.612C35.7258 190.612 36.1126 190.694 36.4442 190.832C36.7758 190.997 37.0797 191.217 37.3007 191.492L36.6929 192.097C36.3337 191.685 35.8639 191.465 35.339 191.465C34.9798 191.465 34.6758 191.547 34.3995 191.712C34.1232 191.877 33.9022 192.097 33.764 192.373C33.5982 192.648 33.543 192.978 33.543 193.336C33.543 193.693 33.6258 194.023 33.764 194.299C33.9298 194.574 34.1232 194.794 34.3995 194.959C34.6758 195.124 34.9798 195.207 35.339 195.207C35.8639 195.207 36.3337 194.986 36.6929 194.574L37.3007 195.179C37.0521 195.454 36.7758 195.674 36.4166 195.839C36.0574 196.004 35.6982 196.059 35.2837 196.059C34.7587 196.059 34.3166 195.949 33.9022 195.702L33.9298 195.757Z" fill="#231815"/>
<path id="Vector_6" d="M44.569 194.821H42.0269L41.5296 196.059H40.5625L42.8558 190.749H43.7953L46.0887 196.059H45.0939L44.5966 194.821H44.569ZM44.265 194.051L43.2979 191.712L42.3585 194.051H44.265Z" fill="#231815"/>
<path id="Vector_7" d="M49.873 190.722H50.8125V195.207H53.465V196.032H49.873V190.722Z" fill="#231815"/>
<path id="Vector_8" d="M62.5 190.722H63.4394V196.032H62.5V190.722Z" fill="#231815"/>
<path id="Vector_9" d="M72.5019 190.722V196.032H71.7282L68.9375 192.428V196.032H67.998V190.722H68.7717L71.5624 194.326V190.722H72.5019Z" fill="#231815"/>
<path id="Vector_10" d="M77.9473 191.548V193.171H80.4064V193.996H77.9473V196.032H77.0078V190.722H80.7103V191.548H77.9473Z" fill="#231815"/>
<path id="Vector_11" d="M85.6818 195.757C85.2673 195.509 84.9357 195.206 84.7147 194.766C84.466 194.354 84.3555 193.886 84.3555 193.363C84.3555 192.84 84.466 192.373 84.7147 191.96C84.9633 191.547 85.2673 191.217 85.6818 190.969C86.0962 190.722 86.5659 190.612 87.0909 190.612C87.6159 190.612 88.0856 190.722 88.5001 190.969C88.9145 191.217 89.2461 191.52 89.4672 191.96C89.7158 192.373 89.8264 192.84 89.8264 193.363C89.8264 193.886 89.7158 194.354 89.4672 194.766C89.2185 195.179 88.9145 195.509 88.5001 195.757C88.0856 196.004 87.6159 196.115 87.0909 196.115C86.5659 196.115 86.0962 196.004 85.6818 195.757ZM88.0027 195.014C88.279 194.849 88.5001 194.629 88.6382 194.354C88.804 194.078 88.8593 193.748 88.8593 193.391C88.8593 193.033 88.7764 192.703 88.6382 192.428C88.4725 192.153 88.279 191.932 88.0027 191.767C87.7264 191.602 87.4225 191.52 87.0909 191.52C86.7593 191.52 86.4554 191.602 86.1791 191.767C85.9028 191.932 85.6817 192.153 85.5436 192.428C85.3778 192.703 85.3225 193.033 85.3225 193.391C85.3225 193.748 85.4054 194.051 85.5436 194.354C85.7094 194.629 85.9028 194.849 86.1791 195.014C86.4554 195.179 86.7593 195.261 87.0909 195.261C87.4225 195.261 87.7264 195.179 88.0027 195.014Z" fill="#231815"/>
<path id="Vector_12" d="M97.3157 196.032L96.2657 194.464C96.2657 194.464 96.1552 194.464 96.0723 194.464H94.9395V196.004H94V190.694H96.0999C96.542 190.694 96.9289 190.777 97.2604 190.914C97.592 191.052 97.8407 191.272 98.0065 191.575C98.1723 191.85 98.2551 192.208 98.2551 192.593C98.2551 192.978 98.1723 193.336 97.9788 193.638C97.7854 193.913 97.5367 194.134 97.1775 194.271L98.338 196.032H97.3157ZM96.9841 191.822C96.7631 191.63 96.4592 191.547 96.0447 191.547H94.9395V193.666H96.0447C96.4592 193.666 96.7631 193.583 96.9841 193.391C97.2052 193.198 97.3157 192.95 97.3157 192.593C97.3157 192.235 97.2052 191.987 96.9841 191.822Z" fill="#231815"/>
<path id="Vector_13" d="M107.097 196.031V192.51L105.412 195.426H104.997L103.34 192.565V196.059H102.428V190.749H103.201L105.218 194.271L107.208 190.749H107.982V196.059H107.097V196.031Z" fill="#231815"/>
<path id="Vector_14" d="M115.799 194.821H113.257L112.76 196.059H111.793L114.086 190.749H115.026L117.319 196.059H116.324L115.827 194.821H115.799ZM115.495 194.051L114.528 191.712L113.589 194.051H115.495Z" fill="#231815"/>
<path id="Vector_15" d="M121.879 191.548H120.193V190.722H124.504V191.548H122.818V196.032H121.879V191.548Z" fill="#231815"/>
<path id="Vector_16" d="M128.373 190.722H129.312V196.032H128.373V190.722Z" fill="#231815"/>
<path id="Vector_17" d="M134.811 195.757C134.396 195.509 134.065 195.206 133.844 194.766C133.595 194.354 133.484 193.886 133.484 193.363C133.484 192.84 133.595 192.373 133.844 191.96C134.092 191.547 134.396 191.217 134.811 190.969C135.225 190.722 135.695 190.612 136.22 190.612C136.745 190.612 137.215 190.722 137.629 190.969C138.043 191.217 138.375 191.52 138.596 191.96C138.845 192.373 138.955 192.84 138.955 193.363C138.955 193.886 138.845 194.354 138.596 194.766C138.347 195.179 138.043 195.509 137.629 195.757C137.215 196.004 136.745 196.115 136.22 196.115C135.695 196.115 135.225 196.004 134.811 195.757ZM137.132 195.014C137.408 194.849 137.629 194.629 137.767 194.354C137.933 194.078 137.988 193.748 137.988 193.391C137.988 193.033 137.905 192.703 137.767 192.428C137.601 192.153 137.408 191.932 137.132 191.767C136.855 191.602 136.551 191.52 136.22 191.52C135.888 191.52 135.584 191.602 135.308 191.767C135.032 191.932 134.811 192.153 134.672 192.428C134.507 192.703 134.451 193.033 134.451 193.391C134.451 193.748 134.534 194.051 134.672 194.354C134.838 194.629 135.032 194.849 135.308 195.014C135.584 195.179 135.888 195.261 136.22 195.261C136.551 195.261 136.855 195.179 137.132 195.014Z" fill="#231815"/>
<path id="Vector_18" d="M147.603 190.722V196.032H146.83L144.039 192.428V196.032H143.1V190.722H143.873L146.664 194.326V190.722H147.603Z" fill="#231815"/>
<path id="Vector_19" d="M158.24 195.757C157.826 195.509 157.494 195.206 157.273 194.766C157.025 194.354 156.914 193.886 156.914 193.363C156.914 192.84 157.025 192.373 157.273 191.96C157.522 191.547 157.826 191.217 158.24 190.969C158.655 190.722 159.125 190.612 159.622 190.612C160.036 190.612 160.423 190.694 160.755 190.832C161.086 190.997 161.39 191.217 161.611 191.492L161.003 192.097C160.644 191.685 160.174 191.465 159.65 191.465C159.29 191.465 158.986 191.547 158.71 191.712C158.434 191.877 158.213 192.097 158.075 192.373C157.909 192.648 157.853 192.978 157.853 193.336C157.853 193.693 157.936 194.023 158.075 194.299C158.24 194.574 158.434 194.794 158.71 194.959C158.986 195.124 159.29 195.207 159.65 195.207C160.174 195.207 160.644 194.986 161.003 194.574L161.611 195.179C161.363 195.454 161.086 195.674 160.727 195.839C160.368 196.004 160.009 196.059 159.594 196.059C159.069 196.059 158.627 195.949 158.213 195.702L158.24 195.757Z" fill="#231815"/>
<path id="Vector_20" d="M166.557 195.757C166.142 195.509 165.811 195.206 165.59 194.766C165.341 194.354 165.23 193.886 165.23 193.363C165.23 192.84 165.341 192.373 165.59 191.96C165.838 191.547 166.142 191.217 166.557 190.969C166.971 190.722 167.441 190.612 167.966 190.612C168.491 190.612 168.961 190.722 169.375 190.969C169.79 191.217 170.121 191.52 170.342 191.96C170.591 192.373 170.701 192.84 170.701 193.363C170.701 193.886 170.591 194.354 170.342 194.766C170.093 195.179 169.79 195.509 169.375 195.757C168.961 196.004 168.491 196.115 167.966 196.115C167.441 196.115 166.971 196.004 166.557 195.757ZM168.878 195.014C169.154 194.849 169.375 194.629 169.513 194.354C169.679 194.078 169.734 193.748 169.734 193.391C169.734 193.033 169.651 192.703 169.513 192.428C169.347 192.153 169.154 191.932 168.878 191.767C168.601 191.602 168.297 191.52 167.966 191.52C167.634 191.52 167.33 191.602 167.054 191.767C166.778 191.932 166.557 192.153 166.419 192.428C166.253 192.703 166.198 193.033 166.198 193.391C166.198 193.748 166.28 194.051 166.419 194.354C166.584 194.629 166.778 194.849 167.054 195.014C167.33 195.179 167.634 195.261 167.966 195.261C168.297 195.261 168.601 195.179 168.878 195.014Z" fill="#231815"/>
<path id="Vector_21" d="M178.161 196.032L177.111 194.464C177.111 194.464 177.001 194.464 176.918 194.464H175.785V196.004H174.846V190.694H176.946C177.388 190.694 177.775 190.777 178.106 190.914C178.438 191.052 178.686 191.272 178.852 191.575C179.018 191.85 179.101 192.208 179.101 192.593C179.101 192.978 179.018 193.336 178.825 193.638C178.631 193.913 178.382 194.134 178.023 194.271L179.184 196.032H178.161ZM177.83 191.822C177.609 191.63 177.305 191.547 176.89 191.547H175.785V193.666H176.89C177.305 193.666 177.609 193.583 177.83 193.391C178.051 193.198 178.161 192.95 178.161 192.593C178.161 192.235 178.051 191.987 177.83 191.822Z" fill="#231815"/>
<path id="Vector_22" d="M186.536 190.942C186.867 191.079 187.116 191.299 187.282 191.602C187.447 191.877 187.53 192.235 187.53 192.62C187.53 193.005 187.447 193.335 187.282 193.638C187.116 193.913 186.867 194.133 186.536 194.298C186.204 194.436 185.817 194.518 185.375 194.518H184.242V196.059H183.303V190.749H185.403C185.845 190.749 186.232 190.831 186.563 190.969L186.536 190.942ZM186.287 193.39C186.508 193.198 186.618 192.95 186.618 192.62C186.618 192.29 186.508 192.014 186.287 191.849C186.066 191.657 185.762 191.574 185.347 191.574H184.242V193.693H185.347C185.762 193.693 186.066 193.61 186.287 193.418V193.39Z" fill="#231815"/>
</g>
<g id="Group_3">
<path id="Vector_23" d="M188 181.038H183.635V159.742H188V181.038Z" fill="#231815"/>
<path id="Vector_24" d="M133.926 159.77H124.283V168.657H120.553V172.151H124.283V181.038H133.926C139.204 181.038 142.685 177.957 142.685 173.004V167.914C142.685 162.879 139.204 159.825 133.926 159.825V159.77ZM138.292 172.454C138.292 176.003 136.579 177.572 133.76 177.572H128.621V172.124H132.544V168.63H128.621V163.209H133.76C136.579 163.209 138.292 164.778 138.292 168.327V172.454Z" fill="#231815"/>
<path id="Vector_25" d="M60.4844 159.742V164.09H79.6049V159.742H60.4844ZM60.4844 172.289H79.6049V167.941H60.4844V172.289ZM60.4844 181.01H79.6049V176.663H60.4844V181.01Z" fill="#231815"/>
<path id="Vector_26" d="M7.59846 173.362H11.9088V163.594H7.59846V173.362ZM0 181.038H4.36565V159.742H0V181.038ZM15.1417 159.742V181.038H19.5073V159.742H15.1417Z" fill="#231815"/>
</g>
<g id="Group_4">
<path id="Vector_27" d="M151.969 19.3112H130.583V43.2479H152.163C158.683 43.2479 163.961 48.503 163.961 54.9687V111.619C163.961 118.085 158.683 123.34 152.163 123.34H106.047V105.566C92.8117 105.566 81.9805 116.242 81.9805 129.393V147.25H151.969C171.808 147.25 187.889 131.237 187.889 111.509V55.0513C187.889 35.3241 171.808 19.3112 151.969 19.3112Z" fill="#231815"/>
<path id="Vector_28" d="M88.2526 68.2303H23.9559V19.3112H0V147.25H23.9559V92.0297H81.9805V110.244C87.1198 102.512 95.934 97.4223 105.936 97.3673V85.784C105.936 76.0717 98.0339 68.2028 88.2526 68.2028V68.2303Z" fill="#231815"/>
<g id="Group_5">
<path id="Vector_29" d="M94.0004 61.8477C88.9992 61.8477 84.9375 57.8033 84.9375 52.8233V46.9078C84.9375 45.8898 85.7664 45.092 86.7888 45.092C87.8111 45.092 88.64 45.9173 88.64 46.9078V52.8233C88.64 55.7673 91.0439 58.1885 94.028 58.1885C97.0121 58.1885 99.416 55.7948 99.416 52.8233V38.4611C99.416 37.4431 100.245 36.6453 101.267 36.6453H115.691C118.647 36.6453 121.079 34.2516 121.079 31.2801C121.079 28.3086 118.675 25.9149 115.691 25.9149H101.267C100.245 25.9149 99.416 25.0896 99.416 24.0991C99.416 23.1086 100.245 22.2831 101.267 22.2831H115.691C120.692 22.2831 124.753 26.3277 124.753 31.3076C124.753 36.2876 120.692 40.332 115.691 40.332H103.091V52.8782C103.091 57.8582 99.0292 61.9028 94.028 61.9028L94.0004 61.8477Z" fill="#231815"/>
<path id="Vector_30" d="M86.7889 40.2769H72.3656C67.3645 40.2769 63.3027 36.2323 63.3027 31.2524C63.3027 26.2724 67.3645 22.228 72.3656 22.228H84.9653V9.6817C84.9653 4.70173 89.027 0.657227 94.0281 0.657227C99.0293 0.657227 103.091 4.70173 103.091 9.6817V15.5971C103.091 16.6151 102.262 17.4131 101.24 17.4131C100.217 17.4131 99.3885 16.5876 99.3885 15.5971V9.6817C99.3885 6.73774 96.9846 4.31659 94.0005 4.31659C91.0164 4.31659 88.6125 6.71022 88.6125 9.6817V24.0438C88.6125 25.0618 87.7836 25.8598 86.7613 25.8598H72.338C69.3815 25.8598 66.95 28.2534 66.95 31.2248C66.95 34.1963 69.3539 36.59 72.338 36.59H86.7613C87.7836 36.59 88.6125 37.4155 88.6125 38.406C88.6125 39.3965 87.7836 40.2219 86.7613 40.2219L86.7889 40.2769Z" fill="#231815"/>
</g>
</g>
</g>
</svg>
