<svg width="168" height="29" viewBox="0 0 168 29" fill="none" xmlns="http://www.w3.org/2000/svg">
<path d="M51.5695 28.91V27.1351L50.728 28.604H50.5137L49.6799 27.1581V28.91H49.2285V26.2324H49.6187L50.6285 28.0073L51.623 26.2324H52.0132V28.91H51.5695Z" fill="#898989"/>
<path d="M57.0846 28.4969V28.91H55.1797V26.2324H57.0387V26.6455H55.654V27.3417H56.8857V27.7548H55.654V28.4893H57.0922L57.0846 28.4969Z" fill="#898989"/>
<path d="M60.084 26.2324H61.1933C61.461 26.2324 61.7058 26.286 61.92 26.4007C62.1342 26.5078 62.2949 26.6685 62.4096 26.8674C62.5244 27.0739 62.5856 27.3035 62.5856 27.5712C62.5856 27.839 62.5244 28.0685 62.4096 28.275C62.2949 28.474 62.1266 28.6346 61.92 28.7417C61.7058 28.8565 61.4687 28.91 61.1933 28.91H60.084V26.2324ZM61.1703 28.4893C61.3539 28.4893 61.5222 28.451 61.6599 28.3745C61.8053 28.298 61.9124 28.1909 61.9889 28.0532C62.0654 27.9155 62.1036 27.7548 62.1036 27.5712C62.1036 27.3876 62.0654 27.2269 61.9889 27.0892C61.9124 26.9515 61.8053 26.8445 61.6599 26.7679C61.5222 26.6914 61.3539 26.6532 61.1703 26.6532H60.5506V28.4893H61.1703Z" fill="#898989"/>
<path d="M65.5625 26.2324H66.0368V28.91H65.5625V26.2324Z" fill="#898989"/>
<path d="M69.6773 28.7718C69.4707 28.6494 69.3101 28.4887 69.1877 28.2822C69.0653 28.0756 69.0117 27.8385 69.0117 27.5784C69.0117 27.3183 69.0729 27.0811 69.1877 26.8746C69.3024 26.668 69.4707 26.4997 69.6773 26.3849C69.8838 26.2702 70.1134 26.209 70.3735 26.209C70.58 26.209 70.7713 26.2472 70.9472 26.3237C71.1155 26.4002 71.2685 26.515 71.3833 26.6603L71.0773 26.9587C70.8937 26.7522 70.6642 26.6451 70.3964 26.6451C70.2205 26.6451 70.0675 26.6833 69.9298 26.7675C69.7921 26.844 69.6849 26.9587 69.6084 27.1041C69.5319 27.2494 69.4937 27.4101 69.4937 27.586C69.4937 27.762 69.5319 27.9303 69.6084 28.068C69.6849 28.2057 69.7921 28.3204 69.9298 28.4046C70.0675 28.4888 70.2205 28.527 70.3964 28.527C70.6642 28.527 70.8937 28.4199 71.0773 28.2057L71.3833 28.5117C71.2609 28.6571 71.1155 28.7642 70.9472 28.8483C70.7713 28.9248 70.58 28.9631 70.3735 28.9631C70.121 28.9631 69.8838 28.9019 69.6773 28.7871V28.7718Z" fill="#898989"/>
<path d="M75.9046 28.2903H74.6347L74.3822 28.91H73.8926L75.0401 26.2324H75.5068L76.6543 28.91H76.157L75.9046 28.2903ZM75.7516 27.9002L75.2696 26.7297L74.7953 27.9002H75.7516Z" fill="#898989"/>
<path d="M79.4551 26.2324H79.9294V28.4893H81.2605V28.91H79.4551V26.2324Z" fill="#898989"/>
<path d="M88.3516 26.2324H88.8259V28.91H88.3516V26.2324Z" fill="#898989"/>
<path d="M94.2432 26.2324V28.91H93.853L92.453 27.0969V28.91H91.9863V26.2324H92.3765L93.7765 28.0455V26.2324H94.2432Z" fill="#898989"/>
<path d="M97.8767 26.6533V27.4719H99.1083V27.8927H97.8767V28.9178H97.4023V26.2402H99.2613V26.6533H97.8767Z" fill="#898989"/>
<path d="M102.65 28.7718C102.443 28.6494 102.275 28.4887 102.16 28.2822C102.038 28.068 101.984 27.8385 101.984 27.5784C101.984 27.3183 102.046 27.0811 102.16 26.8746C102.283 26.668 102.443 26.4997 102.65 26.3849C102.856 26.2702 103.094 26.209 103.354 26.209C103.614 26.209 103.843 26.2702 104.058 26.3849C104.272 26.4997 104.432 26.668 104.547 26.8746C104.662 27.0811 104.723 27.3183 104.723 27.5784C104.723 27.8385 104.662 28.0756 104.547 28.2822C104.432 28.4887 104.264 28.6571 104.058 28.7718C103.851 28.8866 103.614 28.9478 103.354 28.9478C103.094 28.9478 102.864 28.8866 102.65 28.7718ZM103.805 28.3893C103.943 28.3128 104.05 28.198 104.126 28.0527C104.203 27.9073 104.241 27.7467 104.241 27.5707C104.241 27.3948 104.203 27.2341 104.126 27.0888C104.05 26.9434 103.943 26.8363 103.805 26.7521C103.667 26.668 103.514 26.6297 103.346 26.6297C103.178 26.6297 103.025 26.668 102.887 26.7521C102.749 26.8286 102.642 26.9434 102.566 27.0888C102.489 27.2341 102.451 27.3948 102.451 27.5707C102.451 27.7467 102.489 27.9073 102.566 28.0527C102.642 28.198 102.749 28.3052 102.887 28.3893C103.025 28.4735 103.178 28.5117 103.346 28.5117C103.514 28.5117 103.667 28.4735 103.805 28.3893Z" fill="#898989"/>
<path d="M109.359 28.9098L108.839 28.1219C108.839 28.1219 108.785 28.1219 108.739 28.1219H108.166V28.9022H107.691V26.2246H108.739C108.961 26.2246 109.153 26.2629 109.313 26.3394C109.474 26.4159 109.604 26.523 109.688 26.6683C109.772 26.8137 109.818 26.982 109.818 27.1809C109.818 27.3798 109.772 27.5558 109.68 27.7011C109.589 27.8465 109.451 27.9536 109.283 28.0224L109.864 28.9022H109.351L109.359 28.9098ZM109.191 26.7907C109.084 26.6989 108.931 26.653 108.724 26.653H108.173V27.7241H108.724C108.931 27.7241 109.084 27.6782 109.191 27.5864C109.298 27.4945 109.351 27.3645 109.351 27.1885C109.351 27.0126 109.298 26.8825 109.191 26.7984V26.7907Z" fill="#898989"/>
<path d="M115.165 28.91V27.1351L114.324 28.604H114.109L113.276 27.1581V28.91H112.824V26.2324H113.214L114.224 28.0073L115.219 26.2324H115.609V28.91H115.165Z" fill="#898989"/>
<path d="M120.422 28.2903H119.152L118.9 28.91H118.41L119.558 26.2324H120.024L121.172 28.91H120.675L120.422 28.2903ZM120.269 27.9002L119.787 26.7297L119.313 27.9002H120.269Z" fill="#898989"/>
<path d="M124.361 26.6532H123.52V26.2324H125.677V26.6532H124.835V28.91H124.361V26.6532Z" fill="#898989"/>
<path d="M128.508 26.2324H128.982V28.91H128.508V26.2324Z" fill="#898989"/>
<path d="M132.625 28.7718C132.418 28.6494 132.25 28.4887 132.135 28.2822C132.013 28.068 131.959 27.8385 131.959 27.5784C131.959 27.3183 132.02 27.0811 132.135 26.8746C132.25 26.668 132.418 26.4997 132.625 26.3849C132.831 26.2702 133.068 26.209 133.328 26.209C133.588 26.209 133.818 26.2702 134.032 26.3849C134.246 26.4997 134.407 26.668 134.522 26.8746C134.637 27.0811 134.698 27.3183 134.698 27.5784C134.698 27.8385 134.637 28.0756 134.522 28.2822C134.407 28.4887 134.239 28.6571 134.032 28.7718C133.826 28.8866 133.588 28.9478 133.328 28.9478C133.068 28.9478 132.839 28.8866 132.625 28.7718ZM133.787 28.3893C133.925 28.3128 134.032 28.198 134.109 28.0527C134.185 27.9073 134.223 27.7467 134.223 27.5707C134.223 27.3948 134.185 27.2341 134.109 27.0888C134.032 26.9434 133.925 26.8363 133.787 26.7521C133.65 26.668 133.497 26.6297 133.328 26.6297C133.16 26.6297 133.007 26.668 132.869 26.7521C132.732 26.8286 132.625 26.9434 132.548 27.0888C132.472 27.2341 132.433 27.3948 132.433 27.5707C132.433 27.7467 132.472 27.9073 132.548 28.0527C132.625 28.198 132.732 28.3052 132.869 28.3893C133.007 28.4735 133.16 28.5117 133.328 28.5117C133.497 28.5117 133.65 28.4735 133.787 28.3893Z" fill="#898989"/>
<path d="M139.937 26.2324V28.91H139.546L138.146 27.0969V28.91H137.68V26.2324H138.07L139.47 28.0455V26.2324H139.937Z" fill="#898989"/>
<path d="M147.818 28.7718C147.611 28.6494 147.451 28.4887 147.328 28.2822C147.214 28.0756 147.152 27.8385 147.152 27.5784C147.152 27.3183 147.214 27.0811 147.328 26.8746C147.443 26.668 147.611 26.4997 147.818 26.3849C148.024 26.2625 148.254 26.209 148.514 26.209C148.721 26.209 148.912 26.2472 149.088 26.3237C149.264 26.4002 149.409 26.515 149.524 26.6603L149.218 26.9587C149.034 26.7522 148.805 26.6451 148.537 26.6451C148.361 26.6451 148.208 26.6833 148.07 26.7675C147.933 26.844 147.826 26.9587 147.749 27.1041C147.673 27.2494 147.634 27.4101 147.634 27.586C147.634 27.762 147.673 27.9303 147.749 28.068C147.826 28.2133 147.933 28.3204 148.07 28.4046C148.208 28.4888 148.361 28.527 148.537 28.527C148.805 28.527 149.034 28.4199 149.218 28.2057L149.524 28.5117C149.402 28.6571 149.256 28.7642 149.088 28.8483C148.912 28.9248 148.721 28.9631 148.514 28.9631C148.254 28.9631 148.024 28.9019 147.818 28.7871V28.7718Z" fill="#898989"/>
<path d="M152.882 28.7718C152.676 28.6494 152.508 28.4887 152.393 28.2822C152.27 28.068 152.217 27.8385 152.217 27.5784C152.217 27.3183 152.278 27.0811 152.393 26.8746C152.515 26.668 152.676 26.4997 152.882 26.3849C153.089 26.2702 153.326 26.209 153.586 26.209C153.846 26.209 154.076 26.2702 154.29 26.3849C154.504 26.4997 154.665 26.668 154.78 26.8746C154.894 27.0811 154.956 27.3183 154.956 27.5784C154.956 27.8385 154.894 28.0756 154.78 28.2822C154.665 28.4887 154.497 28.6571 154.29 28.7718C154.083 28.8866 153.846 28.9478 153.586 28.9478C153.326 28.9478 153.097 28.8866 152.882 28.7718ZM154.038 28.3893C154.175 28.3128 154.282 28.198 154.359 28.0527C154.435 27.9073 154.474 27.7467 154.474 27.5707C154.474 27.3948 154.435 27.2341 154.359 27.0888C154.282 26.9434 154.175 26.8363 154.038 26.7521C153.9 26.668 153.747 26.6297 153.579 26.6297C153.41 26.6297 153.257 26.668 153.12 26.7521C152.982 26.8286 152.875 26.9434 152.798 27.0888C152.722 27.2341 152.683 27.3948 152.683 27.5707C152.683 27.7467 152.722 27.9073 152.798 28.0527C152.875 28.198 152.982 28.3052 153.12 28.3893C153.257 28.4735 153.41 28.5117 153.579 28.5117C153.747 28.5117 153.9 28.4735 154.038 28.3893Z" fill="#898989"/>
<path d="M159.597 28.9098L159.077 28.1219C159.077 28.1219 159.024 28.1219 158.978 28.1219H158.404V28.9022H157.93V26.2246H158.978C159.2 26.2246 159.391 26.2629 159.552 26.3394C159.712 26.4159 159.842 26.523 159.926 26.6683C160.011 26.8137 160.056 26.982 160.056 27.1809C160.056 27.3798 160.011 27.5558 159.919 27.7011C159.827 27.8465 159.689 27.9536 159.521 28.0224L160.102 28.9022H159.59L159.597 28.9098ZM159.429 26.7907C159.322 26.6989 159.169 26.653 158.962 26.653H158.412V27.7241H158.962C159.169 27.7241 159.322 27.6782 159.429 27.5864C159.536 27.4945 159.59 27.3645 159.59 27.1885C159.59 27.0126 159.536 26.8825 159.429 26.7984V26.7907Z" fill="#898989"/>
<path d="M164.686 26.3472C164.847 26.4237 164.977 26.5308 165.061 26.6761C165.145 26.8215 165.191 26.9898 165.191 27.1887C165.191 27.3876 165.145 27.5483 165.061 27.6936C164.977 27.839 164.847 27.9461 164.686 28.0226C164.526 28.0991 164.334 28.1373 164.113 28.1373H163.539V28.91H163.064V26.2324H164.113C164.334 26.2324 164.526 26.2707 164.686 26.3472ZM164.556 27.5789C164.663 27.4871 164.717 27.357 164.717 27.1887C164.717 27.0204 164.663 26.8827 164.556 26.7985C164.449 26.7067 164.296 26.6608 164.09 26.6608H163.539V27.7242H164.09C164.296 27.7242 164.449 27.6783 164.556 27.5865V27.5789Z" fill="#898989"/>
<path d="M29.8897 3.6875H25.6821V8.41534H29.928C31.2056 8.41534 32.246 9.45577 32.246 10.7334V21.9257C32.246 23.2032 31.2056 24.2437 29.928 24.2437H20.8548V20.7322C18.2537 20.7322 16.127 22.836 16.127 25.4371V28.9639H29.8974C33.799 28.9639 36.9586 25.8043 36.9586 21.9027V10.7487C36.9586 6.84706 33.799 3.6875 29.8974 3.6875H29.8897Z" fill="#22AC38"/>
<path d="M17.3584 13.3498H4.71255V3.6875H0V28.9639H4.71255V18.0546H16.1267V21.6503C17.1365 20.1279 18.8655 19.118 20.8392 19.1104V16.823C20.8392 14.9028 19.2786 13.3498 17.3584 13.3498Z" fill="#2A5BA9"/>
<path d="M18.4915 12.0882C17.5122 12.0882 16.709 11.2926 16.709 10.3057V9.13524C16.709 8.93633 16.8696 8.77567 17.0685 8.77567C17.2675 8.77567 17.4281 8.93633 17.4281 9.13524V10.3057C17.4281 10.8871 17.9024 11.3615 18.4838 11.3615C19.0653 11.3615 19.5396 10.8871 19.5396 10.3057V7.46749C19.5396 7.26858 19.7002 7.10793 19.8991 7.10793H22.7374C23.3188 7.10793 23.7931 6.63361 23.7931 6.05219C23.7931 5.47077 23.3188 4.99646 22.7374 4.99646H19.8991C19.7002 4.99646 19.5396 4.83581 19.5396 4.63691C19.5396 4.438 19.7002 4.27734 19.8991 4.27734H22.7374C23.7166 4.27734 24.5199 5.07297 24.5199 6.05985C24.5199 7.04673 23.7243 7.84234 22.7374 7.84234H20.2587V10.321C20.2587 11.3003 19.4631 12.1035 18.4762 12.1035L18.4915 12.0882Z" fill="#2A5BA9"/>
<path d="M17.068 7.82619H14.2298C13.2506 7.82619 12.4473 7.03055 12.4473 6.04367C12.4473 5.05679 13.2429 4.26118 14.2298 4.26118H16.7085V1.78249C16.7085 0.803264 17.5041 0 18.4909 0C19.4778 0 20.2735 0.795614 20.2735 1.78249V2.95299C20.2735 3.1519 20.1128 3.31254 19.9139 3.31254C19.715 3.31254 19.5543 3.1519 19.5543 2.95299V1.78249C19.5543 1.20108 19.08 0.72677 18.4986 0.72677C17.9172 0.72677 17.4429 1.20108 17.4429 1.78249V4.62074C17.4429 4.81964 17.2822 4.9803 17.0833 4.9803H14.2451C13.6637 4.9803 13.1893 5.45462 13.1893 6.03604C13.1893 6.61745 13.6637 7.09177 14.2451 7.09177H17.0833C17.2822 7.09177 17.4429 7.25243 17.4429 7.45133C17.4429 7.65024 17.2822 7.8109 17.0833 7.8109L17.068 7.82619Z" fill="#22AC38"/>
<path d="M55.373 15.248H56.8419V22.378H60.0779V6.49609H56.8419V12.8458H55.373" fill="#231815"/>
<path d="M64.3537 6.49609H61.1406V22.378H64.3537V6.49609Z" fill="#231815"/>
<path d="M51.081 6.48828C48.7171 6.48828 46.7969 8.4085 46.7969 10.7724V18.086C46.7969 20.45 48.7171 22.3702 51.081 22.3702C53.4449 22.3702 55.3651 20.45 55.3651 18.086V10.7724C55.3651 8.4085 53.4449 6.48828 51.081 6.48828ZM52.6417 17.8106C52.6417 18.6368 52.0296 19.3101 51.2723 19.3101H50.8821C50.1247 19.3101 49.5127 18.6368 49.5127 17.8106V11.0555C49.5127 10.2292 50.1247 9.55603 50.8821 9.55603H51.2723C52.0296 9.55603 52.6417 10.2292 52.6417 11.0555V17.8106Z" fill="#231815"/>
<path d="M84.627 6.49609H81.4062V22.378H84.627V6.49609Z" fill="#231815"/>
<path d="M99.2933 7.48242H87.0605V9.38735H99.2933V7.48242Z" fill="#231815"/>
<path d="M88.6814 22.371C92.9808 20.6114 94.8169 16.0519 94.8169 11.4694V9.38086H91.7644V10.9262C91.7644 14.4377 91.1447 17.3065 87.8398 19.2956L88.6814 22.371Z" fill="#231815"/>
<path d="M94.8181 6.49609H91.7656V7.52886H94.8181V6.49609Z" fill="#231815"/>
<path d="M94.2579 14.4171L91.9473 16.0254L96.3527 22.3545L98.6633 20.7462L94.2579 14.4171Z" fill="#231815"/>
<path d="M104.625 6.49609H101.404V22.378H104.625V6.49609Z" fill="#231815"/>
<path d="M125.311 6.49609H122.09V22.378H125.311V6.49609Z" fill="#231815"/>
<path d="M111.257 19.9756C110.775 19.9756 110.385 19.5855 110.385 19.1035V16.227C109.13 16.227 107.952 16.7625 107.164 17.6194V19.4631C107.164 21.0773 108.472 22.3778 110.079 22.3778H119.129V19.9756H111.257ZM110.385 8.89044H118.846V6.48828H107.172V15.768C108.082 15.1637 109.222 14.8117 110.392 14.8117V8.89044H110.385Z" fill="#231815"/>
<path d="M167.57 6.49609H164.35V22.378H167.57V6.49609Z" fill="#231815"/>
<path d="M153.524 19.9756C153.043 19.9756 152.652 19.5855 152.652 19.1035V16.227C151.398 16.227 150.22 16.7625 149.432 17.6194V19.4631C149.432 21.0773 150.74 22.3778 152.346 22.3778H161.397V19.9756H153.524ZM152.652 8.89044H161.114V6.48828H149.439V15.768C150.35 15.1637 151.49 14.8117 152.66 14.8117V8.89044H152.652Z" fill="#231815"/>
<path d="M130.811 22.378H137.78V15.248H139.249V22.378H142.485V6.49609H139.249V12.8458H137.78V6.49609H127.889V19.4632C127.889 21.0774 129.197 22.378 130.803 22.378H130.811ZM131.109 8.8906H134.56V19.9758H131.982C131.5 19.9758 131.109 19.5856 131.109 19.1037V8.89826V8.8906Z" fill="#231815"/>
<path d="M146.77 6.49609H143.557V22.378H146.77V6.49609Z" fill="#231815"/>
<path d="M73.9477 6.48828H72.41C69.457 6.48828 67.0625 8.8828 67.0625 11.8358V15.6839C67.8734 15.1789 68.8603 14.8729 69.8778 14.827V12.379C69.8778 10.826 71.1401 9.56367 72.6931 9.56367H73.6647C75.2177 9.56367 76.4799 10.826 76.4799 12.379V16.4871C76.4799 18.0401 75.2177 19.3024 73.6647 19.3024H72.6931C71.1401 19.3024 69.8778 18.0401 69.8778 16.4871V16.25C68.8067 16.3112 67.8122 16.7626 67.0854 17.4664C67.3073 20.2205 69.6024 22.3778 72.41 22.3778H73.9477C76.9007 22.3778 79.2952 19.9833 79.2952 17.0303V11.8434C79.2952 8.89046 76.9007 6.49594 73.9477 6.49594V6.48828Z" fill="#231815"/>
</svg>
