<svg width="1280" height="1066" viewBox="0 0 1280 1066" fill="none" xmlns="http://www.w3.org/2000/svg">
<path d="M48.0509 130.595H60.3779V132.779H48.0509V130.595ZM58.6979 130.595H61.4489V132.317C61.4489 134.018 61.4489 135.845 60.9449 138.134L58.1939 137.882C58.6979 135.635 58.6979 133.997 58.6979 132.317V130.595ZM59.5379 133.871V135.782L47.8199 136.244L47.5049 134.123L59.5379 133.871ZM45.9299 137.42H63.4439V139.604H45.9299V137.42ZM47.8199 140.738H61.5539V145.883H50.6129V147.983H47.8409V143.909H58.7819V142.838H47.8199V140.738ZM47.8409 147.038H62.2049V149.159H47.8409V147.038ZM77.6802 129.902H80.4522V149.411H77.6802V129.902ZM79.8222 137.252H83.2662V139.562H79.8222V137.252ZM66.0042 142.607H67.6422C70.9392 142.607 73.5012 142.502 76.3572 141.998L76.6302 144.245C73.6902 144.77 71.0232 144.896 67.6422 144.896H66.0042V142.607ZM65.9832 131.561H74.9292V139.1H68.7762V143.468H66.0042V136.874H72.1572V133.787H65.9832V131.561ZM84.5246 140.801H102.144V143.048H84.5246V140.801ZM91.8746 142.25H94.6466V149.39H91.8746V142.25ZM93.2816 130.574C97.4396 130.574 100.317 132.296 100.317 134.963C100.317 137.609 97.4396 139.31 93.2816 139.31C89.1446 139.31 86.2676 137.609 86.2676 134.963C86.2676 132.296 89.1446 130.574 93.2816 130.574ZM93.2816 132.8C90.7406 132.8 89.1236 133.556 89.1236 134.963C89.1236 136.349 90.7406 137.105 93.2816 137.105C95.8436 137.105 97.4396 136.349 97.4396 134.963C97.4396 133.556 95.8436 132.8 93.2816 132.8ZM105.901 138.89H119.572V141.116H105.901V138.89ZM103.864 144.749H121.462V147.038H103.864V144.749ZM105.901 131.519H119.425V133.787H108.673V139.814H105.901V131.519ZM141.378 129.944H144.192V143.909H141.378V129.944ZM131.235 146.807H144.675V149.033H131.235V146.807ZM131.235 142.502H134.028V147.71H131.235V142.502ZM133.608 131.162C136.59 131.162 138.879 133.22 138.879 136.097C138.879 138.953 136.59 141.032 133.608 141.032C130.626 141.032 128.316 138.953 128.316 136.097C128.316 133.22 130.626 131.162 133.608 131.162ZM133.608 133.577C132.159 133.577 131.046 134.501 131.046 136.097C131.046 137.672 132.159 138.596 133.608 138.596C135.036 138.596 136.149 137.672 136.149 136.097C136.149 134.501 135.036 133.577 133.608 133.577ZM147.361 144.833H164.959V147.122H147.361V144.833ZM148.705 131.603H163.51V133.829H148.705V131.603ZM148.789 139.646H163.447V141.893H148.789V139.646ZM151.351 133.661H154.144V139.856H151.351V133.661ZM158.092 133.661H160.864V139.856H158.092V133.661ZM179.132 129.902H181.904V149.411H179.132V129.902ZM181.274 137.252H184.718V139.562H181.274V137.252ZM167.456 142.607H169.094C172.391 142.607 174.953 142.502 177.809 141.998L178.082 144.245C175.142 144.77 172.475 144.896 169.094 144.896H167.456V142.607ZM167.435 131.561H176.381V139.1H170.228V143.468H167.456V136.874H173.609V133.787H167.435V131.561ZM185.977 138.638H203.596V140.675H185.977V138.638ZM187.951 141.641H201.496V146.261H190.765V147.92H187.993V144.497H198.745V143.531H187.951V141.641ZM187.993 147.332H202.042V149.222H187.993V147.332ZM188.14 130.259H201.454V134.837H190.933V136.433H188.161V133.094H198.703V132.128H188.14V130.259ZM188.161 135.845H201.811V137.735H188.161V135.845ZM210.134 139.94H227.732V142.124H210.134V139.94ZM217.526 137.861H220.319V140.738H217.526V137.861ZM212.318 136.643H225.863V138.764H212.318V136.643ZM212.318 130.406H225.716V132.527H215.09V137.84H212.318V130.406ZM214.313 133.556H225.275V135.593H214.313V133.556ZM218.912 142.985C223.175 142.985 225.653 144.119 225.653 146.177C225.653 148.256 223.175 149.369 218.912 149.369C214.628 149.369 212.15 148.256 212.15 146.177C212.15 144.119 214.628 142.985 218.912 142.985ZM218.912 145.043C216.203 145.043 214.964 145.379 214.964 146.177C214.964 146.996 216.203 147.332 218.912 147.332C221.6 147.332 222.839 146.996 222.839 146.177C222.839 145.379 221.6 145.043 218.912 145.043ZM241.99 129.944H244.783V144.476H241.99V129.944ZM243.985 135.866H247.366V138.155H243.985V135.866ZM229.474 131.96H240.919V134.144H229.474V131.96ZM235.207 134.837C238 134.837 239.974 136.37 239.974 138.596C239.974 140.822 238 142.334 235.207 142.334C232.393 142.334 230.419 140.822 230.419 138.596C230.419 136.37 232.393 134.837 235.207 134.837ZM235.207 136.958C233.968 136.958 233.107 137.546 233.107 138.596C233.107 139.646 233.968 140.213 235.207 140.213C236.446 140.213 237.307 139.646 237.307 138.596C237.307 137.546 236.446 136.958 235.207 136.958ZM233.8 129.902H236.593V133.031H233.8V129.902ZM232.246 146.807H245.476V149.033H232.246V146.807ZM232.246 143.384H235.039V147.773H232.246V143.384ZM63.9402 157.227H67.9225L72.1284 167.489H72.3074L76.5134 157.227H80.4956V172.5H77.3635V162.559H77.2367L73.2843 172.425H71.1515L67.1991 162.522H67.0723V172.5H63.9402V157.227ZM83.156 172.5V157.227H93.4472V159.89H86.3851V163.529H92.9177V166.191H86.3851V169.838H93.4771V172.5H83.156ZM106.142 162.164C106.037 161.801 105.89 161.48 105.702 161.202C105.513 160.919 105.281 160.68 105.008 160.486C104.74 160.287 104.431 160.136 104.083 160.031C103.74 159.927 103.36 159.875 102.942 159.875C102.162 159.875 101.476 160.069 100.884 160.456C100.297 160.844 99.8401 161.408 99.5119 162.149C99.1838 162.885 99.0198 163.785 99.0198 164.849C99.0198 165.913 99.1813 166.817 99.5045 167.563C99.8276 168.309 100.285 168.878 100.877 169.271C101.468 169.659 102.167 169.853 102.972 169.853C103.703 169.853 104.327 169.723 104.844 169.465C105.366 169.201 105.764 168.831 106.037 168.354C106.316 167.876 106.455 167.312 106.455 166.661L107.111 166.758H103.174V164.327H109.564V166.251C109.564 167.593 109.281 168.746 108.714 169.711C108.148 170.67 107.367 171.411 106.373 171.933C105.378 172.45 104.24 172.709 102.957 172.709C101.525 172.709 100.268 172.393 99.1838 171.762C98.1 171.125 97.2548 170.223 96.6483 169.055C96.0467 167.881 95.746 166.489 95.746 164.879C95.746 163.641 95.9249 162.537 96.2829 161.567C96.6458 160.593 97.1529 159.768 97.8042 159.092C98.4555 158.415 99.2136 157.901 100.079 157.548C100.944 157.195 101.881 157.018 102.89 157.018C103.755 157.018 104.561 157.145 105.306 157.399C106.052 157.647 106.713 158 107.29 158.458C107.872 158.915 108.346 159.46 108.714 160.091C109.082 160.717 109.318 161.408 109.423 162.164H106.142ZM114.151 172.5H110.691L115.963 157.227H120.124L125.389 172.5H121.929L118.103 160.717H117.984L114.151 172.5ZM113.935 166.497H122.108V169.017H113.935V166.497ZM137.502 172.5H132.088V157.227H137.546C139.083 157.227 140.405 157.533 141.514 158.145C142.622 158.751 143.475 159.624 144.072 160.762C144.673 161.901 144.974 163.263 144.974 164.849C144.974 166.44 144.673 167.807 144.072 168.95C143.475 170.094 142.617 170.971 141.499 171.583C140.385 172.194 139.053 172.5 137.502 172.5ZM135.317 169.733H137.367C138.322 169.733 139.125 169.564 139.776 169.226C140.432 168.883 140.925 168.354 141.253 167.638C141.586 166.917 141.752 165.987 141.752 164.849C141.752 163.72 141.586 162.798 141.253 162.082C140.925 161.366 140.435 160.839 139.784 160.501C139.132 160.163 138.33 159.994 137.375 159.994H135.317V169.733ZM149.137 172.5H145.677L150.949 157.227H155.11L160.375 172.5H156.915L153.09 160.717H152.97L149.137 172.5ZM148.921 166.497H157.094V169.017H148.921V166.497ZM159.766 159.89V157.227H172.309V159.89H167.633V172.5H164.442V159.89H159.766ZM175.141 172.5H171.681L176.953 157.227H181.114L186.379 172.5H182.919L179.093 160.717H178.974L175.141 172.5ZM174.925 166.497H183.098V169.017H174.925V166.497ZM193.451 156.33H201.767V158.577H193.451V156.33ZM195.845 160.866H198.617V165.738H195.845V160.866ZM200.675 156.33H203.426V157.548C203.426 158.913 203.426 160.845 202.964 163.26L200.255 162.966C200.675 160.572 200.675 158.892 200.675 157.548V156.33ZM205.316 154.923H208.13V169.476H205.316V154.923ZM207.017 160.845H210.44V163.134H207.017V160.845ZM195.152 171.807H208.739V174.033H195.152V171.807ZM195.152 168.174H197.945V172.5H195.152V168.174ZM192.569 166.872L192.317 164.667C195.677 164.667 200.36 164.604 204.266 164.058L204.434 166.032C200.423 166.788 195.908 166.872 192.569 166.872ZM225.307 154.902H228.1V174.411H225.307V154.902ZM212.959 167.607H214.681C218.125 167.607 220.876 167.481 223.963 166.956L224.236 169.203C221.086 169.77 218.23 169.875 214.681 169.875H212.959V167.607ZM212.938 156.561H222.115V164.079H215.794V168.447H212.959V161.874H219.259V158.787H212.938V156.561Z" fill="#0070ED"/>
<circle cx="145" cy="145" r="145" fill="#8AC0FC" fill-opacity="0.18"/>
<ellipse cx="145.002" cy="143.459" rx="123.404" ry="121.862" fill="#8AC0FC" fill-opacity="0.18"/>
<rect x="109" y="405.5" width="1171" height="91" rx="45.5" fill="#D9EBFE"/>
<rect y="883" width="1280" height="91" rx="45.5" fill="#D9EBFE"/>
<circle cx="689" cy="460" r="147" fill="#8AC0FC" fill-opacity="0.18"/>
<circle cx="689" cy="460" r="124" fill="#8AC0FC" fill-opacity="0.18"/>
<g clip-path="url(#clip0_1102_1016)">
<path d="M542 409.192C556.918 400.426 571.851 391.645 586.769 382.863L655.387 422.372L611.05 448.701L542 409.192Z" fill="#2D9173"/>
</g>
<g clip-path="url(#clip1_1102_1016)" filter="url(#filter0_b_1102_1016)">
<path d="M542 405.536C556.918 396.77 571.851 387.989 586.769 379.207L655.387 418.716L611.05 445.045L542 405.536Z" fill="#7DDEAF" fill-opacity="0.58"/>
</g>
<g clip-path="url(#clip2_1102_1016)">
<path d="M542 399.434C556.918 390.669 571.851 381.887 586.769 373.105L655.387 412.614L611.05 438.943L542 399.434Z" fill="#0070ED" fill-opacity="0.73"/>
</g>
<g clip-path="url(#clip3_1102_1016)" filter="url(#filter1_b_1102_1016)">
<path d="M542 395.778C556.918 387.012 571.851 378.231 586.769 369.449L655.387 408.958L611.05 435.287L542 395.778Z" fill="#A4CFFF" fill-opacity="0.8"/>
</g>
<g clip-path="url(#clip4_1102_1016)">
<path d="M542 390.903C556.918 382.137 571.851 373.356 586.769 364.574L655.387 404.083L611.05 430.412L542 390.903Z" fill="#0070ED" fill-opacity="0.73"/>
</g>
<g clip-path="url(#clip5_1102_1016)" filter="url(#filter2_b_1102_1016)">
<path d="M542 387.247C556.918 378.481 571.851 369.7 586.769 360.918L655.387 400.427L611.05 426.755L542 387.247Z" fill="#A4CFFF" fill-opacity="0.8"/>
</g>
<g clip-path="url(#clip6_1102_1016)">
<path d="M542 379.938C556.918 371.172 571.851 362.391 586.769 353.609L655.387 393.118L611.05 419.447L542 379.938Z" fill="#0070ED" fill-opacity="0.73"/>
</g>
<g clip-path="url(#clip7_1102_1016)" filter="url(#filter3_b_1102_1016)">
<path d="M542 376.282C556.918 367.516 571.851 358.735 586.769 349.953L655.387 389.462L611.05 415.791L542 376.282Z" fill="#A4CFFF" fill-opacity="0.8"/>
</g>
<g clip-path="url(#clip8_1102_1016)">
<path d="M542 370.18C556.918 361.415 571.851 352.633 586.769 343.852L655.387 383.36L611.05 409.689L542 370.18Z" fill="#2D9173"/>
</g>
<g clip-path="url(#clip9_1102_1016)" filter="url(#filter4_b_1102_1016)">
<path d="M542 366.524C556.918 357.758 571.851 348.977 586.769 340.195L655.387 379.704L611.05 406.033L542 366.524Z" fill="#7DDEAF" fill-opacity="0.58"/>
</g>
<g clip-path="url(#clip10_1102_1016)">
<path d="M542 357.985C556.918 349.219 571.851 340.438 586.769 331.656L655.387 371.165L611.05 397.494L542 357.985Z" fill="#2D9173"/>
</g>
<g clip-path="url(#clip11_1102_1016)" filter="url(#filter5_b_1102_1016)">
<path d="M542 354.329C556.918 345.563 571.851 336.782 586.769 328L655.387 367.509L611.05 393.837L542 354.329Z" fill="#7DDEAF" fill-opacity="0.58"/>
</g>
<g clip-path="url(#clip12_1102_1016)">
<path d="M542 551.77C556.918 543.004 571.851 534.223 586.769 525.441L655.387 564.95L611.05 591.279L542 551.77Z" fill="#2D9173"/>
</g>
<g clip-path="url(#clip13_1102_1016)" filter="url(#filter6_b_1102_1016)">
<path d="M542 548.114C556.918 539.348 571.851 530.567 586.769 521.785L655.387 561.294L611.05 587.623L542 548.114Z" fill="#7DDEAF" fill-opacity="0.58"/>
</g>
<g clip-path="url(#clip14_1102_1016)">
<path d="M542 542.012C556.918 533.247 571.851 524.465 586.769 515.684L655.387 555.193L611.05 581.521L542 542.012Z" fill="#0070ED" fill-opacity="0.73"/>
</g>
<g clip-path="url(#clip15_1102_1016)" filter="url(#filter7_b_1102_1016)">
<path d="M542 538.356C556.918 529.59 571.851 520.809 586.769 512.027L655.387 551.536L611.05 577.865L542 538.356Z" fill="#A4CFFF" fill-opacity="0.8"/>
</g>
<g clip-path="url(#clip16_1102_1016)">
<path d="M542 533.481C556.918 524.715 571.851 515.934 586.769 507.152L655.387 546.661L611.05 572.99L542 533.481Z" fill="#0070ED" fill-opacity="0.73"/>
</g>
<g clip-path="url(#clip17_1102_1016)" filter="url(#filter8_b_1102_1016)">
<path d="M542 529.825C556.918 521.059 571.851 512.278 586.769 503.496L655.387 543.005L611.05 569.334L542 529.825Z" fill="#A4CFFF" fill-opacity="0.8"/>
</g>
<g clip-path="url(#clip18_1102_1016)">
<path d="M542 522.512C556.918 513.747 571.851 504.965 586.769 496.184L655.387 535.693L611.05 562.021L542 522.512Z" fill="#0070ED" fill-opacity="0.73"/>
</g>
<g clip-path="url(#clip19_1102_1016)" filter="url(#filter9_b_1102_1016)">
<path d="M542 518.856C556.918 510.09 571.851 501.309 586.769 492.527L655.387 532.036L611.05 558.365L542 518.856Z" fill="#A4CFFF" fill-opacity="0.8"/>
</g>
<g clip-path="url(#clip20_1102_1016)">
<path d="M542 512.754C556.918 503.989 571.851 495.207 586.769 486.426L655.387 525.935L611.05 552.263L542 512.754Z" fill="#2D9173"/>
</g>
<g clip-path="url(#clip21_1102_1016)" filter="url(#filter10_b_1102_1016)">
<path d="M542 509.098C556.918 500.333 571.851 491.551 586.769 482.77L655.387 522.278L611.05 548.607L542 509.098Z" fill="#7DDEAF" fill-opacity="0.58"/>
</g>
<g clip-path="url(#clip22_1102_1016)">
<path d="M542 500.563C556.918 491.797 571.851 483.016 586.769 474.234L655.387 513.743L611.05 540.072L542 500.563Z" fill="#2D9173"/>
</g>
<g clip-path="url(#clip23_1102_1016)" filter="url(#filter11_b_1102_1016)">
<path d="M542 496.907C556.918 488.141 571.851 479.36 586.769 470.578L655.387 510.087L611.05 536.416L542 496.907Z" fill="#7DDEAF" fill-opacity="0.58"/>
</g>
<rect x="724" y="398" width="123" height="123" rx="20" fill="#0070ED" fill-opacity="0.7"/>
<g filter="url(#filter12_b_1102_1016)">
<rect x="719" y="392" width="122" height="122" rx="20" fill="#91C5FF" fill-opacity="0.8"/>
</g>
<path d="M750.006 470L772.606 435H780.656L789.256 470H781.156L774.356 439H777.556L758.656 470H750.006ZM759.356 462.5L762.656 456.35H780.706L781.656 462.5H759.356ZM792.888 470L799.888 435H808.038L801.038 470H792.888Z" fill="white"/>
<path d="M678.5 921L663.5 912.34V929.66L678.5 921ZM602 922.5H665V919.5H602V922.5Z" fill="#0070ED"/>
<circle cx="686" cy="919" r="147" fill="#8AC0FC" fill-opacity="0.18"/>
<circle cx="686" cy="919" r="124" fill="#8AC0FC" fill-opacity="0.18"/>
<rect x="451" y="866" width="123" height="123" rx="20" fill="#0070ED" fill-opacity="0.7"/>
<g filter="url(#filter13_b_1102_1016)">
<rect x="446" y="860" width="122" height="122" rx="20" fill="#91C5FF" fill-opacity="0.8"/>
</g>
<path d="M477.006 938L499.606 903H507.656L516.256 938H508.156L501.356 907H504.556L485.656 938H477.006ZM486.356 930.5L489.656 924.35H507.706L508.656 930.5H486.356ZM519.888 938L526.888 903H535.038L528.038 938H519.888Z" fill="white"/>
<circle cx="732.5" cy="893.5" r="21.5" fill="#4195F2"/>
<mask id="mask0_1102_1016" style="mask-type:alpha" maskUnits="userSpaceOnUse" x="678" y="849" width="109" height="109">
<rect x="678" y="849" width="109" height="109" fill="#D9D9D9"/>
</mask>
<g mask="url(#mask0_1102_1016)">
<circle cx="732" cy="955" r="34" fill="#4195F2"/>
</g>
<circle cx="812.5" cy="893.5" r="21.5" fill="#4195F2"/>
<mask id="mask1_1102_1016" style="mask-type:alpha" maskUnits="userSpaceOnUse" x="758" y="849" width="109" height="109">
<rect x="758" y="849" width="109" height="109" fill="#D9D9D9"/>
</mask>
<g mask="url(#mask1_1102_1016)">
<circle cx="812" cy="955" r="34" fill="#4195F2"/>
</g>
<circle cx="888.5" cy="893.5" r="21.5" fill="#4195F2"/>
<mask id="mask2_1102_1016" style="mask-type:alpha" maskUnits="userSpaceOnUse" x="834" y="849" width="109" height="109">
<rect x="834" y="849" width="109" height="109" fill="#D9D9D9"/>
</mask>
<g mask="url(#mask2_1102_1016)">
<circle cx="888" cy="955" r="34" fill="#4195F2"/>
</g>
<g filter="url(#filter14_b_1102_1016)">
<rect x="623" y="816" width="90" height="53" rx="7" fill="#5CBE96"/>
</g>
<g filter="url(#filter15_b_1102_1016)">
<rect x="619" y="811" width="90" height="53" rx="7" fill="white" fill-opacity="0.63"/>
</g>
<circle cx="626.5" cy="816.5" r="1.5" fill="#0070ED"/>
<circle cx="632.5" cy="816.5" r="1.5" fill="#0070ED"/>
<circle cx="638.5" cy="816.5" r="1.5" fill="#0070ED"/>
<path d="M661.968 842.887L664.255 825.75H671.23L666.618 842.887H661.968ZM662.943 852.3C661.943 852.3 661.118 852 660.468 851.4C659.818 850.775 659.493 850.025 659.493 849.15C659.493 848.1 659.855 847.237 660.58 846.562C661.33 845.887 662.23 845.55 663.28 845.55C664.28 845.55 665.093 845.85 665.718 846.45C666.368 847.025 666.693 847.75 666.693 848.625C666.693 849.3 666.518 849.925 666.168 850.5C665.843 851.05 665.393 851.487 664.818 851.812C664.268 852.138 663.643 852.3 662.943 852.3Z" fill="white"/>
<rect x="109" y="210.5" width="79" height="286" rx="39.5" fill="#D9EBFE"/>
<rect x="1201" y="405.5" width="79" height="568" rx="39.5" fill="#D9EBFE"/>
<circle cx="46" cy="928" r="33" fill="#A3D0FF"/>
<circle cx="1234" cy="452" r="33" fill="#A3D0FF"/>
<circle cx="155" cy="452" r="33" fill="#A3D0FF"/>
<circle cx="1234" cy="928" r="33" fill="#A3D0FF"/>
<defs>
<filter id="filter0_b_1102_1016" x="538" y="375.207" width="121.387" height="73.8359" filterUnits="userSpaceOnUse" color-interpolation-filters="sRGB">
<feFlood flood-opacity="0" result="BackgroundImageFix"/>
<feGaussianBlur in="BackgroundImageFix" stdDeviation="2"/>
<feComposite in2="SourceAlpha" operator="in" result="effect1_backgroundBlur_1102_1016"/>
<feBlend mode="normal" in="SourceGraphic" in2="effect1_backgroundBlur_1102_1016" result="shape"/>
</filter>
<filter id="filter1_b_1102_1016" x="538" y="365.449" width="121.387" height="73.8359" filterUnits="userSpaceOnUse" color-interpolation-filters="sRGB">
<feFlood flood-opacity="0" result="BackgroundImageFix"/>
<feGaussianBlur in="BackgroundImageFix" stdDeviation="2"/>
<feComposite in2="SourceAlpha" operator="in" result="effect1_backgroundBlur_1102_1016"/>
<feBlend mode="normal" in="SourceGraphic" in2="effect1_backgroundBlur_1102_1016" result="shape"/>
</filter>
<filter id="filter2_b_1102_1016" x="538" y="356.918" width="121.387" height="73.8359" filterUnits="userSpaceOnUse" color-interpolation-filters="sRGB">
<feFlood flood-opacity="0" result="BackgroundImageFix"/>
<feGaussianBlur in="BackgroundImageFix" stdDeviation="2"/>
<feComposite in2="SourceAlpha" operator="in" result="effect1_backgroundBlur_1102_1016"/>
<feBlend mode="normal" in="SourceGraphic" in2="effect1_backgroundBlur_1102_1016" result="shape"/>
</filter>
<filter id="filter3_b_1102_1016" x="538" y="345.953" width="121.387" height="73.8359" filterUnits="userSpaceOnUse" color-interpolation-filters="sRGB">
<feFlood flood-opacity="0" result="BackgroundImageFix"/>
<feGaussianBlur in="BackgroundImageFix" stdDeviation="2"/>
<feComposite in2="SourceAlpha" operator="in" result="effect1_backgroundBlur_1102_1016"/>
<feBlend mode="normal" in="SourceGraphic" in2="effect1_backgroundBlur_1102_1016" result="shape"/>
</filter>
<filter id="filter4_b_1102_1016" x="538" y="336.195" width="121.387" height="73.8359" filterUnits="userSpaceOnUse" color-interpolation-filters="sRGB">
<feFlood flood-opacity="0" result="BackgroundImageFix"/>
<feGaussianBlur in="BackgroundImageFix" stdDeviation="2"/>
<feComposite in2="SourceAlpha" operator="in" result="effect1_backgroundBlur_1102_1016"/>
<feBlend mode="normal" in="SourceGraphic" in2="effect1_backgroundBlur_1102_1016" result="shape"/>
</filter>
<filter id="filter5_b_1102_1016" x="538" y="324" width="121.387" height="73.8359" filterUnits="userSpaceOnUse" color-interpolation-filters="sRGB">
<feFlood flood-opacity="0" result="BackgroundImageFix"/>
<feGaussianBlur in="BackgroundImageFix" stdDeviation="2"/>
<feComposite in2="SourceAlpha" operator="in" result="effect1_backgroundBlur_1102_1016"/>
<feBlend mode="normal" in="SourceGraphic" in2="effect1_backgroundBlur_1102_1016" result="shape"/>
</filter>
<filter id="filter6_b_1102_1016" x="538" y="517.785" width="121.387" height="73.8359" filterUnits="userSpaceOnUse" color-interpolation-filters="sRGB">
<feFlood flood-opacity="0" result="BackgroundImageFix"/>
<feGaussianBlur in="BackgroundImageFix" stdDeviation="2"/>
<feComposite in2="SourceAlpha" operator="in" result="effect1_backgroundBlur_1102_1016"/>
<feBlend mode="normal" in="SourceGraphic" in2="effect1_backgroundBlur_1102_1016" result="shape"/>
</filter>
<filter id="filter7_b_1102_1016" x="538" y="508.027" width="121.387" height="73.8359" filterUnits="userSpaceOnUse" color-interpolation-filters="sRGB">
<feFlood flood-opacity="0" result="BackgroundImageFix"/>
<feGaussianBlur in="BackgroundImageFix" stdDeviation="2"/>
<feComposite in2="SourceAlpha" operator="in" result="effect1_backgroundBlur_1102_1016"/>
<feBlend mode="normal" in="SourceGraphic" in2="effect1_backgroundBlur_1102_1016" result="shape"/>
</filter>
<filter id="filter8_b_1102_1016" x="538" y="499.496" width="121.387" height="73.8359" filterUnits="userSpaceOnUse" color-interpolation-filters="sRGB">
<feFlood flood-opacity="0" result="BackgroundImageFix"/>
<feGaussianBlur in="BackgroundImageFix" stdDeviation="2"/>
<feComposite in2="SourceAlpha" operator="in" result="effect1_backgroundBlur_1102_1016"/>
<feBlend mode="normal" in="SourceGraphic" in2="effect1_backgroundBlur_1102_1016" result="shape"/>
</filter>
<filter id="filter9_b_1102_1016" x="538" y="488.527" width="121.387" height="73.8359" filterUnits="userSpaceOnUse" color-interpolation-filters="sRGB">
<feFlood flood-opacity="0" result="BackgroundImageFix"/>
<feGaussianBlur in="BackgroundImageFix" stdDeviation="2"/>
<feComposite in2="SourceAlpha" operator="in" result="effect1_backgroundBlur_1102_1016"/>
<feBlend mode="normal" in="SourceGraphic" in2="effect1_backgroundBlur_1102_1016" result="shape"/>
</filter>
<filter id="filter10_b_1102_1016" x="538" y="478.77" width="121.387" height="73.8359" filterUnits="userSpaceOnUse" color-interpolation-filters="sRGB">
<feFlood flood-opacity="0" result="BackgroundImageFix"/>
<feGaussianBlur in="BackgroundImageFix" stdDeviation="2"/>
<feComposite in2="SourceAlpha" operator="in" result="effect1_backgroundBlur_1102_1016"/>
<feBlend mode="normal" in="SourceGraphic" in2="effect1_backgroundBlur_1102_1016" result="shape"/>
</filter>
<filter id="filter11_b_1102_1016" x="538" y="466.578" width="121.387" height="73.8359" filterUnits="userSpaceOnUse" color-interpolation-filters="sRGB">
<feFlood flood-opacity="0" result="BackgroundImageFix"/>
<feGaussianBlur in="BackgroundImageFix" stdDeviation="2"/>
<feComposite in2="SourceAlpha" operator="in" result="effect1_backgroundBlur_1102_1016"/>
<feBlend mode="normal" in="SourceGraphic" in2="effect1_backgroundBlur_1102_1016" result="shape"/>
</filter>
<filter id="filter12_b_1102_1016" x="715" y="388" width="130" height="130" filterUnits="userSpaceOnUse" color-interpolation-filters="sRGB">
<feFlood flood-opacity="0" result="BackgroundImageFix"/>
<feGaussianBlur in="BackgroundImageFix" stdDeviation="2"/>
<feComposite in2="SourceAlpha" operator="in" result="effect1_backgroundBlur_1102_1016"/>
<feBlend mode="normal" in="SourceGraphic" in2="effect1_backgroundBlur_1102_1016" result="shape"/>
</filter>
<filter id="filter13_b_1102_1016" x="442" y="856" width="130" height="130" filterUnits="userSpaceOnUse" color-interpolation-filters="sRGB">
<feFlood flood-opacity="0" result="BackgroundImageFix"/>
<feGaussianBlur in="BackgroundImageFix" stdDeviation="2"/>
<feComposite in2="SourceAlpha" operator="in" result="effect1_backgroundBlur_1102_1016"/>
<feBlend mode="normal" in="SourceGraphic" in2="effect1_backgroundBlur_1102_1016" result="shape"/>
</filter>
<filter id="filter14_b_1102_1016" x="613" y="806" width="110" height="73" filterUnits="userSpaceOnUse" color-interpolation-filters="sRGB">
<feFlood flood-opacity="0" result="BackgroundImageFix"/>
<feGaussianBlur in="BackgroundImageFix" stdDeviation="5"/>
<feComposite in2="SourceAlpha" operator="in" result="effect1_backgroundBlur_1102_1016"/>
<feBlend mode="normal" in="SourceGraphic" in2="effect1_backgroundBlur_1102_1016" result="shape"/>
</filter>
<filter id="filter15_b_1102_1016" x="609" y="801" width="110" height="73" filterUnits="userSpaceOnUse" color-interpolation-filters="sRGB">
<feFlood flood-opacity="0" result="BackgroundImageFix"/>
<feGaussianBlur in="BackgroundImageFix" stdDeviation="5"/>
<feComposite in2="SourceAlpha" operator="in" result="effect1_backgroundBlur_1102_1016"/>
<feBlend mode="normal" in="SourceGraphic" in2="effect1_backgroundBlur_1102_1016" result="shape"/>
</filter>
<clipPath id="clip0_1102_1016">
<rect width="113.387" height="65.8375" fill="white" transform="translate(542 382.863)"/>
</clipPath>
<clipPath id="clip1_1102_1016">
<rect width="113.387" height="65.8375" fill="white" transform="translate(542 379.207)"/>
</clipPath>
<clipPath id="clip2_1102_1016">
<rect width="113.387" height="65.8375" fill="white" transform="translate(542 373.105)"/>
</clipPath>
<clipPath id="clip3_1102_1016">
<rect width="113.387" height="65.8375" fill="white" transform="translate(542 369.449)"/>
</clipPath>
<clipPath id="clip4_1102_1016">
<rect width="113.387" height="65.8375" fill="white" transform="translate(542 364.574)"/>
</clipPath>
<clipPath id="clip5_1102_1016">
<rect width="113.387" height="65.8375" fill="white" transform="translate(542 360.918)"/>
</clipPath>
<clipPath id="clip6_1102_1016">
<rect width="113.387" height="65.8375" fill="white" transform="translate(542 353.609)"/>
</clipPath>
<clipPath id="clip7_1102_1016">
<rect width="113.387" height="65.8375" fill="white" transform="translate(542 349.953)"/>
</clipPath>
<clipPath id="clip8_1102_1016">
<rect width="113.387" height="65.8375" fill="white" transform="translate(542 343.852)"/>
</clipPath>
<clipPath id="clip9_1102_1016">
<rect width="113.387" height="65.8375" fill="white" transform="translate(542 340.195)"/>
</clipPath>
<clipPath id="clip10_1102_1016">
<rect width="113.387" height="65.8375" fill="white" transform="translate(542 331.656)"/>
</clipPath>
<clipPath id="clip11_1102_1016">
<rect width="113.387" height="65.8375" fill="white" transform="translate(542 328)"/>
</clipPath>
<clipPath id="clip12_1102_1016">
<rect width="113.387" height="65.8375" fill="white" transform="translate(542 525.441)"/>
</clipPath>
<clipPath id="clip13_1102_1016">
<rect width="113.387" height="65.8375" fill="white" transform="translate(542 521.785)"/>
</clipPath>
<clipPath id="clip14_1102_1016">
<rect width="113.387" height="65.8375" fill="white" transform="translate(542 515.684)"/>
</clipPath>
<clipPath id="clip15_1102_1016">
<rect width="113.387" height="65.8375" fill="white" transform="translate(542 512.027)"/>
</clipPath>
<clipPath id="clip16_1102_1016">
<rect width="113.387" height="65.8375" fill="white" transform="translate(542 507.152)"/>
</clipPath>
<clipPath id="clip17_1102_1016">
<rect width="113.387" height="65.8375" fill="white" transform="translate(542 503.496)"/>
</clipPath>
<clipPath id="clip18_1102_1016">
<rect width="113.387" height="65.8375" fill="white" transform="translate(542 496.184)"/>
</clipPath>
<clipPath id="clip19_1102_1016">
<rect width="113.387" height="65.8375" fill="white" transform="translate(542 492.527)"/>
</clipPath>
<clipPath id="clip20_1102_1016">
<rect width="113.387" height="65.8375" fill="white" transform="translate(542 486.426)"/>
</clipPath>
<clipPath id="clip21_1102_1016">
<rect width="113.387" height="65.8375" fill="white" transform="translate(542 482.77)"/>
</clipPath>
<clipPath id="clip22_1102_1016">
<rect width="113.387" height="65.8375" fill="white" transform="translate(542 474.234)"/>
</clipPath>
<clipPath id="clip23_1102_1016">
<rect width="113.387" height="65.8375" fill="white" transform="translate(542 470.578)"/>
</clipPath>
</defs>
</svg>
