<svg width="1280" height="1069" viewBox="0 0 1280 1069" fill="none" xmlns="http://www.w3.org/2000/svg">
<rect x="111" width="907" height="75" fill="#D9D9D9"/>
<rect x="266" y="468" width="752" height="75" fill="#D9D9D9"/>
<rect x="249" y="936" width="865" height="75" fill="#D9D9D9"/>
<path d="M1008.5 543C1080.51 543 1149.56 514.396 1200.48 463.479C1251.4 412.563 1280 343.506 1280 271.5C1280 199.494 1251.4 130.437 1200.48 79.5205C1149.56 28.6044 1080.51 1.40201e-05 1008.5 0L1008.5 75.2752C1060.54 75.2752 1110.45 95.9489 1147.25 132.748C1184.05 169.547 1204.72 219.458 1204.72 271.5C1204.72 323.542 1184.05 373.453 1147.25 410.252C1110.45 447.051 1060.54 467.725 1008.5 467.725V543Z" fill="#D9D9D9"/>
<path d="M271 468C199.126 468 130.196 496.604 79.3741 547.521C28.5517 598.437 0 667.494 0 739.5C0 811.506 28.5517 880.563 79.374 931.479C130.196 982.396 199.126 1011 271 1011L271 935.725C219.054 935.725 169.235 915.051 132.504 878.252C95.7722 841.453 75.1366 791.542 75.1366 739.5C75.1366 687.458 95.7722 637.547 132.504 600.748C169.235 563.949 219.054 543.275 271 543.275V468Z" fill="#D9D9D9"/>
<path d="M1237 973.5L1107.25 1056.21V890.795L1237 973.5Z" fill="#D9D9D9"/>
</svg>
