<svg width="305" height="294" viewBox="0 0 305 294" fill="none" xmlns="http://www.w3.org/2000/svg">
<circle cx="147" cy="147" r="147" fill="#8AC0FC" fill-opacity="0.18"/>
<circle cx="147" cy="147" r="124" fill="#8AC0FC" fill-opacity="0.18"/>
<g clip-path="url(#clip0_1102_883)">
<path d="M0 96.1919C14.9176 87.4264 29.8513 78.6448 44.7689 69.8633L113.387 109.372L69.0501 135.701L0 96.1919Z" fill="#2D9173"/>
</g>
<g clip-path="url(#clip1_1102_883)" filter="url(#filter0_b_1102_883)">
<path d="M0 92.5356C14.9176 83.7701 29.8513 74.9886 44.7689 66.207L113.387 105.716L69.0501 132.045L0 92.5356Z" fill="#7DDEAF" fill-opacity="0.58"/>
</g>
<g clip-path="url(#clip2_1102_883)">
<path d="M0 86.434C14.9176 77.6686 29.8513 68.887 44.7689 60.1055L113.387 99.6144L69.0501 125.943L0 86.434Z" fill="#0070ED" fill-opacity="0.73"/>
</g>
<g clip-path="url(#clip3_1102_883)" filter="url(#filter1_b_1102_883)">
<path d="M0 82.7778C14.9176 74.0123 29.8513 65.2308 44.7689 56.4492L113.387 95.9581L69.0501 122.287L0 82.7778Z" fill="#A4CFFF" fill-opacity="0.8"/>
</g>
<g clip-path="url(#clip4_1102_883)">
<path d="M0 77.9028C14.9176 69.1373 29.8513 60.3558 44.7689 51.5742L113.387 91.0831L69.0501 117.412L0 77.9028Z" fill="#0070ED" fill-opacity="0.73"/>
</g>
<g clip-path="url(#clip5_1102_883)" filter="url(#filter2_b_1102_883)">
<path d="M0 74.2465C14.9176 65.4811 29.8513 56.6995 44.7689 47.918L113.387 87.4269L69.0501 113.755L0 74.2465Z" fill="#A4CFFF" fill-opacity="0.8"/>
</g>
<g clip-path="url(#clip6_1102_883)">
<path d="M0 66.938C14.9176 58.1725 29.8513 49.3909 44.7689 40.6094L113.387 80.1183L69.0501 106.447L0 66.938Z" fill="#0070ED" fill-opacity="0.73"/>
</g>
<g clip-path="url(#clip7_1102_883)" filter="url(#filter3_b_1102_883)">
<path d="M0 63.2817C14.9176 54.5162 29.8513 45.7347 44.7689 36.9531L113.387 76.462L69.0501 102.791L0 63.2817Z" fill="#A4CFFF" fill-opacity="0.8"/>
</g>
<g clip-path="url(#clip8_1102_883)">
<path d="M0 57.1801C14.9176 48.4146 29.8513 39.6331 44.7689 30.8516L113.387 70.3605L69.0501 96.6891L0 57.1801Z" fill="#2D9173"/>
</g>
<g clip-path="url(#clip9_1102_883)" filter="url(#filter4_b_1102_883)">
<path d="M0 53.5239C14.9176 44.7584 29.8513 35.9769 44.7689 27.1953L113.387 66.7042L69.0501 93.0328L0 53.5239Z" fill="#7DDEAF" fill-opacity="0.58"/>
</g>
<g clip-path="url(#clip10_1102_883)">
<path d="M0 44.9848C14.9176 36.2193 29.8513 27.4378 44.7689 18.6562L113.387 58.1652L69.0501 84.4937L0 44.9848Z" fill="#2D9173"/>
</g>
<g clip-path="url(#clip11_1102_883)" filter="url(#filter5_b_1102_883)">
<path d="M0 41.3286C14.9176 32.5631 29.8513 23.7815 44.7689 15L113.387 54.5089L69.0501 80.8375L0 41.3286Z" fill="#7DDEAF" fill-opacity="0.58"/>
</g>
<g clip-path="url(#clip12_1102_883)">
<path d="M0 238.77C14.9176 230.004 29.8513 221.223 44.7689 212.441L113.387 251.95L69.0501 278.279L0 238.77Z" fill="#2D9173"/>
</g>
<g clip-path="url(#clip13_1102_883)" filter="url(#filter6_b_1102_883)">
<path d="M0 235.114C14.9176 226.348 29.8513 217.567 44.7689 208.785L113.387 248.294L69.0501 274.623L0 235.114Z" fill="#7DDEAF" fill-opacity="0.58"/>
</g>
<g clip-path="url(#clip14_1102_883)">
<path d="M0 229.012C14.9176 220.247 29.8513 211.465 44.7689 202.684L113.387 242.193L69.0501 268.521L0 229.012Z" fill="#0070ED" fill-opacity="0.73"/>
</g>
<g clip-path="url(#clip15_1102_883)" filter="url(#filter7_b_1102_883)">
<path d="M0 225.356C14.9176 216.59 29.8513 207.809 44.7689 199.027L113.387 238.536L69.0501 264.865L0 225.356Z" fill="#A4CFFF" fill-opacity="0.8"/>
</g>
<g clip-path="url(#clip16_1102_883)">
<path d="M0 220.481C14.9176 211.715 29.8513 202.934 44.7689 194.152L113.387 233.661L69.0501 259.99L0 220.481Z" fill="#0070ED" fill-opacity="0.73"/>
</g>
<g clip-path="url(#clip17_1102_883)" filter="url(#filter8_b_1102_883)">
<path d="M0 216.825C14.9176 208.059 29.8513 199.278 44.7689 190.496L113.387 230.005L69.0501 256.334L0 216.825Z" fill="#A4CFFF" fill-opacity="0.8"/>
</g>
<g clip-path="url(#clip18_1102_883)">
<path d="M0 209.512C14.9176 200.747 29.8513 191.965 44.7689 183.184L113.387 222.693L69.0501 249.021L0 209.512Z" fill="#0070ED" fill-opacity="0.73"/>
</g>
<g clip-path="url(#clip19_1102_883)" filter="url(#filter9_b_1102_883)">
<path d="M0 205.856C14.9176 197.09 29.8513 188.309 44.7689 179.527L113.387 219.036L69.0501 245.365L0 205.856Z" fill="#A4CFFF" fill-opacity="0.8"/>
</g>
<g clip-path="url(#clip20_1102_883)">
<path d="M0 199.754C14.9176 190.989 29.8513 182.207 44.7689 173.426L113.387 212.935L69.0501 239.263L0 199.754Z" fill="#2D9173"/>
</g>
<g clip-path="url(#clip21_1102_883)" filter="url(#filter10_b_1102_883)">
<path d="M0 196.098C14.9176 187.333 29.8513 178.551 44.7689 169.77L113.387 209.278L69.0501 235.607L0 196.098Z" fill="#7DDEAF" fill-opacity="0.58"/>
</g>
<g clip-path="url(#clip22_1102_883)">
<path d="M0 187.563C14.9176 178.797 29.8513 170.016 44.7689 161.234L113.387 200.743L69.0501 227.072L0 187.563Z" fill="#2D9173"/>
</g>
<g clip-path="url(#clip23_1102_883)" filter="url(#filter11_b_1102_883)">
<path d="M0 183.907C14.9176 175.141 29.8513 166.36 44.7689 157.578L113.387 197.087L69.0501 223.416L0 183.907Z" fill="#7DDEAF" fill-opacity="0.58"/>
</g>
<rect x="182" y="85" width="123" height="123" rx="20" fill="#0070ED" fill-opacity="0.7"/>
<g filter="url(#filter12_b_1102_883)">
<rect x="177" y="79" width="122" height="122" rx="20" fill="#91C5FF" fill-opacity="0.8"/>
</g>
<path d="M208.006 157L230.606 122H238.656L247.256 157H239.156L232.356 126H235.556L216.656 157H208.006ZM217.356 149.5L220.656 143.35H238.706L239.656 149.5H217.356ZM250.888 157L257.888 122H266.038L259.038 157H250.888Z" fill="white"/>
<defs>
<filter id="filter0_b_1102_883" x="-4" y="62.207" width="121.387" height="73.8359" filterUnits="userSpaceOnUse" color-interpolation-filters="sRGB">
<feFlood flood-opacity="0" result="BackgroundImageFix"/>
<feGaussianBlur in="BackgroundImageFix" stdDeviation="2"/>
<feComposite in2="SourceAlpha" operator="in" result="effect1_backgroundBlur_1102_883"/>
<feBlend mode="normal" in="SourceGraphic" in2="effect1_backgroundBlur_1102_883" result="shape"/>
</filter>
<filter id="filter1_b_1102_883" x="-4" y="52.4492" width="121.387" height="73.8359" filterUnits="userSpaceOnUse" color-interpolation-filters="sRGB">
<feFlood flood-opacity="0" result="BackgroundImageFix"/>
<feGaussianBlur in="BackgroundImageFix" stdDeviation="2"/>
<feComposite in2="SourceAlpha" operator="in" result="effect1_backgroundBlur_1102_883"/>
<feBlend mode="normal" in="SourceGraphic" in2="effect1_backgroundBlur_1102_883" result="shape"/>
</filter>
<filter id="filter2_b_1102_883" x="-4" y="43.918" width="121.387" height="73.8359" filterUnits="userSpaceOnUse" color-interpolation-filters="sRGB">
<feFlood flood-opacity="0" result="BackgroundImageFix"/>
<feGaussianBlur in="BackgroundImageFix" stdDeviation="2"/>
<feComposite in2="SourceAlpha" operator="in" result="effect1_backgroundBlur_1102_883"/>
<feBlend mode="normal" in="SourceGraphic" in2="effect1_backgroundBlur_1102_883" result="shape"/>
</filter>
<filter id="filter3_b_1102_883" x="-4" y="32.9531" width="121.387" height="73.8359" filterUnits="userSpaceOnUse" color-interpolation-filters="sRGB">
<feFlood flood-opacity="0" result="BackgroundImageFix"/>
<feGaussianBlur in="BackgroundImageFix" stdDeviation="2"/>
<feComposite in2="SourceAlpha" operator="in" result="effect1_backgroundBlur_1102_883"/>
<feBlend mode="normal" in="SourceGraphic" in2="effect1_backgroundBlur_1102_883" result="shape"/>
</filter>
<filter id="filter4_b_1102_883" x="-4" y="23.1953" width="121.387" height="73.8359" filterUnits="userSpaceOnUse" color-interpolation-filters="sRGB">
<feFlood flood-opacity="0" result="BackgroundImageFix"/>
<feGaussianBlur in="BackgroundImageFix" stdDeviation="2"/>
<feComposite in2="SourceAlpha" operator="in" result="effect1_backgroundBlur_1102_883"/>
<feBlend mode="normal" in="SourceGraphic" in2="effect1_backgroundBlur_1102_883" result="shape"/>
</filter>
<filter id="filter5_b_1102_883" x="-4" y="11" width="121.387" height="73.8359" filterUnits="userSpaceOnUse" color-interpolation-filters="sRGB">
<feFlood flood-opacity="0" result="BackgroundImageFix"/>
<feGaussianBlur in="BackgroundImageFix" stdDeviation="2"/>
<feComposite in2="SourceAlpha" operator="in" result="effect1_backgroundBlur_1102_883"/>
<feBlend mode="normal" in="SourceGraphic" in2="effect1_backgroundBlur_1102_883" result="shape"/>
</filter>
<filter id="filter6_b_1102_883" x="-4" y="204.785" width="121.387" height="73.8359" filterUnits="userSpaceOnUse" color-interpolation-filters="sRGB">
<feFlood flood-opacity="0" result="BackgroundImageFix"/>
<feGaussianBlur in="BackgroundImageFix" stdDeviation="2"/>
<feComposite in2="SourceAlpha" operator="in" result="effect1_backgroundBlur_1102_883"/>
<feBlend mode="normal" in="SourceGraphic" in2="effect1_backgroundBlur_1102_883" result="shape"/>
</filter>
<filter id="filter7_b_1102_883" x="-4" y="195.027" width="121.387" height="73.8359" filterUnits="userSpaceOnUse" color-interpolation-filters="sRGB">
<feFlood flood-opacity="0" result="BackgroundImageFix"/>
<feGaussianBlur in="BackgroundImageFix" stdDeviation="2"/>
<feComposite in2="SourceAlpha" operator="in" result="effect1_backgroundBlur_1102_883"/>
<feBlend mode="normal" in="SourceGraphic" in2="effect1_backgroundBlur_1102_883" result="shape"/>
</filter>
<filter id="filter8_b_1102_883" x="-4" y="186.496" width="121.387" height="73.8359" filterUnits="userSpaceOnUse" color-interpolation-filters="sRGB">
<feFlood flood-opacity="0" result="BackgroundImageFix"/>
<feGaussianBlur in="BackgroundImageFix" stdDeviation="2"/>
<feComposite in2="SourceAlpha" operator="in" result="effect1_backgroundBlur_1102_883"/>
<feBlend mode="normal" in="SourceGraphic" in2="effect1_backgroundBlur_1102_883" result="shape"/>
</filter>
<filter id="filter9_b_1102_883" x="-4" y="175.527" width="121.387" height="73.8359" filterUnits="userSpaceOnUse" color-interpolation-filters="sRGB">
<feFlood flood-opacity="0" result="BackgroundImageFix"/>
<feGaussianBlur in="BackgroundImageFix" stdDeviation="2"/>
<feComposite in2="SourceAlpha" operator="in" result="effect1_backgroundBlur_1102_883"/>
<feBlend mode="normal" in="SourceGraphic" in2="effect1_backgroundBlur_1102_883" result="shape"/>
</filter>
<filter id="filter10_b_1102_883" x="-4" y="165.77" width="121.387" height="73.8359" filterUnits="userSpaceOnUse" color-interpolation-filters="sRGB">
<feFlood flood-opacity="0" result="BackgroundImageFix"/>
<feGaussianBlur in="BackgroundImageFix" stdDeviation="2"/>
<feComposite in2="SourceAlpha" operator="in" result="effect1_backgroundBlur_1102_883"/>
<feBlend mode="normal" in="SourceGraphic" in2="effect1_backgroundBlur_1102_883" result="shape"/>
</filter>
<filter id="filter11_b_1102_883" x="-4" y="153.578" width="121.387" height="73.8359" filterUnits="userSpaceOnUse" color-interpolation-filters="sRGB">
<feFlood flood-opacity="0" result="BackgroundImageFix"/>
<feGaussianBlur in="BackgroundImageFix" stdDeviation="2"/>
<feComposite in2="SourceAlpha" operator="in" result="effect1_backgroundBlur_1102_883"/>
<feBlend mode="normal" in="SourceGraphic" in2="effect1_backgroundBlur_1102_883" result="shape"/>
</filter>
<filter id="filter12_b_1102_883" x="173" y="75" width="130" height="130" filterUnits="userSpaceOnUse" color-interpolation-filters="sRGB">
<feFlood flood-opacity="0" result="BackgroundImageFix"/>
<feGaussianBlur in="BackgroundImageFix" stdDeviation="2"/>
<feComposite in2="SourceAlpha" operator="in" result="effect1_backgroundBlur_1102_883"/>
<feBlend mode="normal" in="SourceGraphic" in2="effect1_backgroundBlur_1102_883" result="shape"/>
</filter>
<clipPath id="clip0_1102_883">
<rect width="113.387" height="65.8375" fill="white" transform="translate(0 69.8633)"/>
</clipPath>
<clipPath id="clip1_1102_883">
<rect width="113.387" height="65.8375" fill="white" transform="translate(0 66.207)"/>
</clipPath>
<clipPath id="clip2_1102_883">
<rect width="113.387" height="65.8375" fill="white" transform="translate(0 60.1055)"/>
</clipPath>
<clipPath id="clip3_1102_883">
<rect width="113.387" height="65.8375" fill="white" transform="translate(0 56.4492)"/>
</clipPath>
<clipPath id="clip4_1102_883">
<rect width="113.387" height="65.8375" fill="white" transform="translate(0 51.5742)"/>
</clipPath>
<clipPath id="clip5_1102_883">
<rect width="113.387" height="65.8375" fill="white" transform="translate(0 47.918)"/>
</clipPath>
<clipPath id="clip6_1102_883">
<rect width="113.387" height="65.8375" fill="white" transform="translate(0 40.6094)"/>
</clipPath>
<clipPath id="clip7_1102_883">
<rect width="113.387" height="65.8375" fill="white" transform="translate(0 36.9531)"/>
</clipPath>
<clipPath id="clip8_1102_883">
<rect width="113.387" height="65.8375" fill="white" transform="translate(0 30.8516)"/>
</clipPath>
<clipPath id="clip9_1102_883">
<rect width="113.387" height="65.8375" fill="white" transform="translate(0 27.1953)"/>
</clipPath>
<clipPath id="clip10_1102_883">
<rect width="113.387" height="65.8375" fill="white" transform="translate(0 18.6562)"/>
</clipPath>
<clipPath id="clip11_1102_883">
<rect width="113.387" height="65.8375" fill="white" transform="translate(0 15)"/>
</clipPath>
<clipPath id="clip12_1102_883">
<rect width="113.387" height="65.8375" fill="white" transform="translate(0 212.441)"/>
</clipPath>
<clipPath id="clip13_1102_883">
<rect width="113.387" height="65.8375" fill="white" transform="translate(0 208.785)"/>
</clipPath>
<clipPath id="clip14_1102_883">
<rect width="113.387" height="65.8375" fill="white" transform="translate(0 202.684)"/>
</clipPath>
<clipPath id="clip15_1102_883">
<rect width="113.387" height="65.8375" fill="white" transform="translate(0 199.027)"/>
</clipPath>
<clipPath id="clip16_1102_883">
<rect width="113.387" height="65.8375" fill="white" transform="translate(0 194.152)"/>
</clipPath>
<clipPath id="clip17_1102_883">
<rect width="113.387" height="65.8375" fill="white" transform="translate(0 190.496)"/>
</clipPath>
<clipPath id="clip18_1102_883">
<rect width="113.387" height="65.8375" fill="white" transform="translate(0 183.184)"/>
</clipPath>
<clipPath id="clip19_1102_883">
<rect width="113.387" height="65.8375" fill="white" transform="translate(0 179.527)"/>
</clipPath>
<clipPath id="clip20_1102_883">
<rect width="113.387" height="65.8375" fill="white" transform="translate(0 173.426)"/>
</clipPath>
<clipPath id="clip21_1102_883">
<rect width="113.387" height="65.8375" fill="white" transform="translate(0 169.77)"/>
</clipPath>
<clipPath id="clip22_1102_883">
<rect width="113.387" height="65.8375" fill="white" transform="translate(0 161.234)"/>
</clipPath>
<clipPath id="clip23_1102_883">
<rect width="113.387" height="65.8375" fill="white" transform="translate(0 157.578)"/>
</clipPath>
</defs>
</svg>
