<svg width="1055" height="572" viewBox="0 0 1055 572" fill="none" xmlns="http://www.w3.org/2000/svg">
<path d="M658 439L817 509" stroke="#0070ED" stroke-width="5"/>
<g filter="url(#filter0_b_1105_628)">
<path fill-rule="evenodd" clip-rule="evenodd" d="M625 450.996C625.262 450.999 625.524 451 625.786 451C671.344 451 708.277 414.068 708.277 368.509C708.277 322.951 671.344 286.018 625.786 286.018C624.291 286.018 622.805 286.058 621.329 286.137C608.855 256.422 579.482 235.554 545.236 235.554C535.734 235.554 526.608 237.16 518.113 240.116C506.017 209.589 476.227 188 441.395 188C395.836 188 358.904 224.932 358.904 270.491C358.904 276.102 359.464 281.582 360.532 286.879C320.641 292.672 290 327.012 290 368.509C290 412.898 325.061 449.098 369 450.927V451H372.491H625V450.996Z" fill="#0070ED"/>
</g>
<g filter="url(#filter1_b_1105_628)">
<path fill-rule="evenodd" clip-rule="evenodd" d="M636 443.991C680.999 443.342 717.277 406.662 717.277 361.509C717.277 315.951 680.344 279.018 634.786 279.018C633.291 279.018 631.805 279.058 630.329 279.137C617.855 249.422 588.482 228.554 554.236 228.554C544.734 228.554 535.608 230.16 527.113 233.116C515.017 202.589 485.227 181 450.395 181C404.836 181 367.904 217.932 367.904 263.491C367.904 269.102 368.464 274.582 369.532 279.879C329.641 285.672 299 320.012 299 361.509C299 405.898 334.061 442.098 378 443.927V444H381.491H634.786H636V443.991Z" fill="url(#paint0_linear_1105_628)" fill-opacity="0.5"/>
</g>
<g clip-path="url(#clip0_1105_628)">
<path d="M19.2773 91.9633V204.768L118.721 148.354V36L19.2773 91.9633Z" fill="#99D6EC"/>
<path d="M26.5352 96.1713V208.998L126.002 152.585V40.2305L26.5352 96.1713Z" fill="#0070ED"/>
<path d="M19.2773 204.768L26.5322 209V96.1729L125.999 40.2321L118.721 36L19.2773 91.9633V204.768Z" fill="#53A1F6" fill-opacity="0.69"/>
<path d="M26.5352 96.1713V130.884L126.002 73.9975V40.2305L26.5352 96.1713Z" fill="#53A1F6" fill-opacity="0.69"/>
<path d="M26.5352 91.7138V67.1088L38.2424 59.5V84.8028C34.3325 87.099 30.4451 89.3951 26.5352 91.6913V91.7138Z" fill="#53A1F6" fill-opacity="0.69"/>
<path d="M40.4336 91.7138V67.1088L52.1409 59.5V84.8028C48.2309 87.099 44.3435 89.3951 40.4336 91.6913V91.7138Z" fill="#53A1F6" fill-opacity="0.69"/>
</g>
<path d="M76 177L242 250L335 189" stroke="#0070ED" stroke-width="5"/>
<path d="M711 376L877 449L970 388" stroke="#0070ED" stroke-width="5"/>
<path d="M447.189 341.42C444.692 341.42 442.534 340.977 440.714 340.09C438.917 339.18 437.529 337.932 436.549 336.345C435.569 334.735 435.079 332.88 435.079 330.78C435.079 328.703 435.441 326.767 436.164 324.97C436.911 323.173 437.949 321.622 439.279 320.315C440.632 318.985 442.231 317.947 444.074 317.2C445.941 316.453 448.017 316.08 450.304 316.08C452.497 316.08 454.434 316.453 456.114 317.2C457.794 317.947 459.066 319.02 459.929 320.42L455.834 323.78C455.204 322.847 454.399 322.135 453.419 321.645C452.439 321.155 451.272 320.91 449.919 320.91C448.542 320.91 447.294 321.155 446.174 321.645C445.054 322.112 444.086 322.788 443.269 323.675C442.476 324.538 441.869 325.553 441.449 326.72C441.029 327.887 440.819 329.123 440.819 330.43C440.819 331.667 441.087 332.752 441.624 333.685C442.161 334.595 442.942 335.307 443.969 335.82C444.996 336.333 446.232 336.59 447.679 336.59C448.939 336.59 450.117 336.368 451.214 335.925C452.311 335.458 453.302 334.735 454.189 333.755L457.549 337.185C456.266 338.678 454.737 339.763 452.964 340.44C451.214 341.093 449.289 341.42 447.189 341.42ZM459.978 341L464.878 316.5H470.583L466.593 336.38H478.878L477.933 341H459.978ZM493.396 341.42C490.922 341.42 488.787 340.977 486.991 340.09C485.217 339.18 483.852 337.932 482.896 336.345C481.939 334.735 481.461 332.88 481.461 330.78C481.461 328.68 481.822 326.743 482.546 324.97C483.269 323.173 484.296 321.622 485.626 320.315C486.979 318.985 488.577 317.947 490.421 317.2C492.287 316.453 494.352 316.08 496.616 316.08C499.089 316.08 501.212 316.535 502.986 317.445C504.782 318.332 506.159 319.58 507.116 321.19C508.072 322.777 508.551 324.62 508.551 326.72C508.551 328.82 508.189 330.768 507.466 332.565C506.742 334.338 505.704 335.89 504.351 337.22C503.021 338.527 501.422 339.553 499.556 340.3C497.712 341.047 495.659 341.42 493.396 341.42ZM493.886 336.59C495.262 336.59 496.499 336.345 497.596 335.855C498.716 335.342 499.661 334.642 500.431 333.755C501.201 332.868 501.784 331.853 502.181 330.71C502.601 329.543 502.811 328.318 502.811 327.035C502.811 325.822 502.554 324.76 502.041 323.85C501.527 322.917 500.769 322.193 499.766 321.68C498.786 321.167 497.572 320.91 496.126 320.91C494.749 320.91 493.512 321.167 492.416 321.68C491.319 322.17 490.374 322.858 489.581 323.745C488.811 324.632 488.216 325.658 487.796 326.825C487.399 327.968 487.201 329.182 487.201 330.465C487.201 331.678 487.457 332.752 487.971 333.685C488.507 334.595 489.266 335.307 490.246 335.82C491.249 336.333 492.462 336.59 493.886 336.59ZM521.772 341.42C519.392 341.42 517.409 340.953 515.822 340.02C514.235 339.087 513.115 337.792 512.462 336.135C511.832 334.455 511.739 332.483 512.182 330.22L514.912 316.5H520.617L517.887 330.115C517.677 331.212 517.619 332.168 517.712 332.985C517.805 333.802 518.039 334.478 518.412 335.015C518.809 335.552 519.345 335.948 520.022 336.205C520.699 336.462 521.492 336.59 522.402 336.59C523.545 336.59 524.537 336.368 525.377 335.925C526.217 335.482 526.917 334.782 527.477 333.825C528.037 332.868 528.469 331.632 528.772 330.115L531.502 316.5H537.067L534.302 330.465C533.579 334.082 532.167 336.812 530.067 338.655C527.967 340.498 525.202 341.42 521.772 341.42ZM537.805 341L542.705 316.5H552.96C555.48 316.5 557.638 316.92 559.435 317.76C561.255 318.577 562.643 319.755 563.6 321.295C564.557 322.812 565.035 324.62 565.035 326.72C565.035 328.89 564.662 330.85 563.915 332.6C563.192 334.35 562.153 335.855 560.8 337.115C559.447 338.352 557.837 339.308 555.97 339.985C554.103 340.662 552.038 341 549.775 341H537.805ZM544.42 336.345H549.95C551.933 336.345 553.613 335.937 554.99 335.12C556.39 334.303 557.452 333.195 558.175 331.795C558.922 330.395 559.295 328.808 559.295 327.035C559.295 325.822 559.038 324.783 558.525 323.92C558.012 323.033 557.23 322.357 556.18 321.89C555.153 321.4 553.87 321.155 552.33 321.155H547.465L544.42 336.345ZM430.168 384.42C428.838 384.42 427.543 384.292 426.283 384.035C425.047 383.802 423.915 383.475 422.888 383.055C421.885 382.635 421.033 382.18 420.333 381.69L422.643 377.315C423.413 377.852 424.23 378.318 425.093 378.715C425.98 379.088 426.902 379.38 427.858 379.59C428.815 379.777 429.772 379.87 430.728 379.87C431.778 379.87 432.677 379.753 433.423 379.52C434.193 379.287 434.777 378.96 435.173 378.54C435.593 378.12 435.803 377.607 435.803 377C435.803 376.44 435.582 375.985 435.138 375.635C434.695 375.285 434.112 374.993 433.388 374.76C432.688 374.503 431.907 374.258 431.043 374.025C430.18 373.792 429.305 373.523 428.418 373.22C427.555 372.893 426.762 372.497 426.038 372.03C425.338 371.54 424.767 370.922 424.323 370.175C423.88 369.428 423.658 368.495 423.658 367.375C423.658 365.695 424.113 364.237 425.023 363C425.957 361.763 427.263 360.807 428.943 360.13C430.623 359.43 432.595 359.08 434.858 359.08C436.515 359.08 438.078 359.267 439.548 359.64C441.018 359.99 442.278 360.503 443.328 361.18L441.193 365.52C440.26 364.89 439.222 364.423 438.078 364.12C436.935 363.793 435.757 363.63 434.543 363.63C433.447 363.63 432.502 363.758 431.708 364.015C430.938 364.272 430.343 364.633 429.923 365.1C429.527 365.543 429.328 366.057 429.328 366.64C429.328 367.223 429.538 367.702 429.958 368.075C430.402 368.425 430.985 368.728 431.708 368.985C432.432 369.218 433.225 369.452 434.088 369.685C434.952 369.918 435.815 370.187 436.678 370.49C437.542 370.793 438.335 371.178 439.058 371.645C439.782 372.112 440.365 372.707 440.808 373.43C441.252 374.13 441.473 375.017 441.473 376.09C441.473 377.77 441.007 379.24 440.073 380.5C439.14 381.737 437.822 382.705 436.118 383.405C434.438 384.082 432.455 384.42 430.168 384.42ZM452.103 369.37H463.898L463.023 373.78H451.228L452.103 369.37ZM450.493 379.45H463.863L462.918 384H443.948L448.848 359.5H467.363L466.418 364.05H453.573L450.493 379.45ZM467.429 384L472.329 359.5H482.304C485.361 359.5 487.717 360.165 489.374 361.495C491.054 362.825 491.894 364.692 491.894 367.095C491.894 369.148 491.404 370.933 490.424 372.45C489.467 373.943 488.091 375.098 486.294 375.915C484.521 376.732 482.421 377.14 479.994 377.14H472.014L474.989 374.655L473.134 384H467.429ZM483.179 384L478.174 375.11H484.124L489.164 384H483.179ZM474.849 375.32L472.889 372.625H480.204C482.094 372.625 483.552 372.205 484.579 371.365C485.629 370.502 486.154 369.253 486.154 367.62C486.154 366.43 485.746 365.555 484.929 364.995C484.136 364.412 483.016 364.12 481.569 364.12H474.674L477.649 361.355L474.849 375.32ZM500.516 384L494.846 359.5H500.691L505.626 381.235H501.951L515.741 359.5H521.621L506.116 384H500.516ZM518.767 384L523.667 359.5H529.372L524.472 384H518.767ZM543.131 384.42C540.635 384.42 538.476 383.977 536.656 383.09C534.86 382.18 533.471 380.932 532.491 379.345C531.511 377.735 531.021 375.88 531.021 373.78C531.021 371.703 531.383 369.767 532.106 367.97C532.853 366.173 533.891 364.622 535.221 363.315C536.575 361.985 538.173 360.947 540.016 360.2C541.883 359.453 543.96 359.08 546.246 359.08C548.44 359.08 550.376 359.453 552.056 360.2C553.736 360.947 555.008 362.02 555.871 363.42L551.776 366.78C551.146 365.847 550.341 365.135 549.361 364.645C548.381 364.155 547.215 363.91 545.861 363.91C544.485 363.91 543.236 364.155 542.116 364.645C540.996 365.112 540.028 365.788 539.211 366.675C538.418 367.538 537.811 368.553 537.391 369.72C536.971 370.887 536.761 372.123 536.761 373.43C536.761 374.667 537.03 375.752 537.566 376.685C538.103 377.595 538.885 378.307 539.911 378.82C540.938 379.333 542.175 379.59 543.621 379.59C544.881 379.59 546.06 379.368 547.156 378.925C548.253 378.458 549.245 377.735 550.131 376.755L553.491 380.185C552.208 381.678 550.68 382.763 548.906 383.44C547.156 384.093 545.231 384.42 543.131 384.42ZM564.075 369.37H575.87L574.995 373.78H563.2L564.075 369.37ZM562.465 379.45H575.835L574.89 384H555.92L560.82 359.5H579.335L578.39 364.05H565.545L562.465 379.45Z" fill="white"/>
<g clip-path="url(#clip1_1105_628)">
<path d="M790.277 454.963V567.768L889.721 511.354V399L790.277 454.963Z" fill="#99D6EC"/>
<path d="M797.535 459.171V571.998L897.002 515.585V403.23L797.535 459.171Z" fill="#0070ED"/>
<path d="M790.277 567.768L797.532 572V459.173L896.999 403.232L889.721 399L790.277 454.963V567.768Z" fill="#53A1F6" fill-opacity="0.74"/>
<path d="M797.535 459.171V493.884L897.002 436.998V403.23L797.535 459.171Z" fill="#53A1F6" fill-opacity="0.74"/>
<path d="M797.535 454.714V430.109L809.242 422.5V447.803C805.332 450.099 801.445 452.395 797.535 454.691V454.714Z" fill="#53A1F6" fill-opacity="0.74"/>
<path d="M811.434 454.714V430.109L823.141 422.5V447.803C819.231 450.099 815.344 452.395 811.434 454.691V454.714Z" fill="#53A1F6" fill-opacity="0.74"/>
</g>
<g clip-path="url(#clip2_1105_628)">
<path d="M859.277 224.963V337.768L958.721 281.354V169L859.277 224.963Z" fill="#99D6EC"/>
<path d="M866.535 229.171V341.998L966.002 285.585V173.23L866.535 229.171Z" fill="#0070ED"/>
<path d="M859.277 337.768L866.532 342V229.173L965.999 173.232L958.721 169L859.277 224.963V337.768Z" fill="#53A1F6" fill-opacity="0.85"/>
<path d="M866.535 229.171V263.884L966.002 206.998V173.23L866.535 229.171Z" fill="#53A1F6" fill-opacity="0.85"/>
<path d="M866.535 224.714V200.109L878.242 192.5V217.803C874.332 220.099 870.445 222.395 866.535 224.691V224.714Z" fill="#53A1F6" fill-opacity="0.85"/>
<path d="M880.434 224.714V200.109L892.141 192.5V217.803C888.231 220.099 884.344 222.395 880.434 224.691V224.714Z" fill="#53A1F6" fill-opacity="0.85"/>
</g>
<g clip-path="url(#clip3_1105_628)">
<path d="M948.277 351.963V464.768L1047.72 408.354V296L948.277 351.963Z" fill="#99D6EC"/>
<path d="M955.535 356.171V468.998L1055 412.585V300.23L955.535 356.171Z" fill="#0070ED"/>
<path d="M948.277 464.768L955.532 469V356.173L1055 300.232L1047.72 296L948.277 351.963V464.768Z" fill="#53A1F6" fill-opacity="0.74"/>
<path d="M955.535 356.171V390.884L1055 333.998V300.23L955.535 356.171Z" fill="#53A1F6" fill-opacity="0.74"/>
<path d="M955.535 351.714V327.109L967.242 319.5V344.803C963.332 347.099 959.445 349.395 955.535 351.691V351.714Z" fill="#53A1F6" fill-opacity="0.74"/>
<path d="M969.434 351.714V327.109L981.141 319.5V344.803C977.231 347.099 973.344 349.395 969.434 351.691V351.714Z" fill="#53A1F6" fill-opacity="0.74"/>
</g>
<g clip-path="url(#clip4_1105_628)">
<path d="M82.2773 244.963V357.768L181.721 301.354V189L82.2773 244.963Z" fill="#99D6EC"/>
<path d="M89.5352 249.171V361.998L189.002 305.585V193.23L89.5352 249.171Z" fill="#0070ED"/>
<path d="M82.2773 357.768L89.5322 362V249.173L188.999 193.232L181.721 189L82.2773 244.963V357.768Z" fill="#53A1F6" fill-opacity="0.69"/>
<path d="M89.5352 249.171V283.884L189.002 226.998V193.23L89.5352 249.171Z" fill="#53A1F6" fill-opacity="0.69"/>
<path d="M89.5352 244.714V220.109L101.242 212.5V237.803C97.3325 240.099 93.4451 242.395 89.5352 244.691V244.714Z" fill="#53A1F6" fill-opacity="0.69"/>
<path d="M103.434 244.714V220.109L115.141 212.5V237.803C111.231 240.099 107.344 242.395 103.434 244.691V244.714Z" fill="#53A1F6" fill-opacity="0.69"/>
</g>
<g clip-path="url(#clip5_1105_628)">
<path d="M158.277 55.9633V168.768L257.721 112.354V0L158.277 55.9633Z" fill="#99D6EC"/>
<path d="M165.535 60.1713V172.998L265.002 116.585V4.23047L165.535 60.1713Z" fill="#0070ED"/>
<path d="M158.277 168.768L165.532 173V60.1729L264.999 4.23214L257.721 0L158.277 55.9633V168.768Z" fill="#53A1F6" fill-opacity="0.69"/>
<path d="M165.535 60.1713V94.8838L265.002 37.9975V4.23047L165.535 60.1713Z" fill="#53A1F6" fill-opacity="0.69"/>
<path d="M165.535 55.7138V31.1088L177.242 23.5V48.8028C173.332 51.099 169.445 53.3951 165.535 55.6913V55.7138Z" fill="#53A1F6" fill-opacity="0.69"/>
<path d="M179.434 55.7138V31.1088L191.141 23.5V48.8028C187.231 51.099 183.344 53.3951 179.434 55.6913V55.7138Z" fill="#53A1F6" fill-opacity="0.69"/>
</g>
<circle cx="562.5" cy="176.5" r="20.5" fill="#0070ED"/>
<g filter="url(#filter2_b_1105_628)">
<circle cx="566.5" cy="176.5" r="20.5" fill="#60A7F6" fill-opacity="0.67"/>
</g>
<circle cx="653.281" cy="234.5" r="12.5" fill="#0070ED"/>
<g filter="url(#filter3_b_1105_628)">
<circle cx="655.719" cy="234.5" r="12.5" fill="#60A7F6" fill-opacity="0.67"/>
</g>
<circle cx="361.5" cy="487.5" r="12.5" fill="#0070ED"/>
<g filter="url(#filter4_b_1105_628)">
<circle cx="363.938" cy="487.5" r="12.5" fill="#60A7F6" fill-opacity="0.67"/>
</g>
<path d="M217 138L387 213" stroke="#0070ED" stroke-width="5"/>
<path d="M144 325L303 395" stroke="#0070ED" stroke-width="5"/>
<path d="M764.5 398L864 340.5" stroke="#0070ED" stroke-width="4"/>
<defs>
<filter id="filter0_b_1105_628" x="286" y="184" width="426.277" height="271" filterUnits="userSpaceOnUse" color-interpolation-filters="sRGB">
<feFlood flood-opacity="0" result="BackgroundImageFix"/>
<feGaussianBlur in="BackgroundImageFix" stdDeviation="2"/>
<feComposite in2="SourceAlpha" operator="in" result="effect1_backgroundBlur_1105_628"/>
<feBlend mode="normal" in="SourceGraphic" in2="effect1_backgroundBlur_1105_628" result="shape"/>
</filter>
<filter id="filter1_b_1105_628" x="289" y="171" width="438.277" height="283" filterUnits="userSpaceOnUse" color-interpolation-filters="sRGB">
<feFlood flood-opacity="0" result="BackgroundImageFix"/>
<feGaussianBlur in="BackgroundImageFix" stdDeviation="5"/>
<feComposite in2="SourceAlpha" operator="in" result="effect1_backgroundBlur_1105_628"/>
<feBlend mode="normal" in="SourceGraphic" in2="effect1_backgroundBlur_1105_628" result="shape"/>
</filter>
<filter id="filter2_b_1105_628" x="542" y="152" width="49" height="49" filterUnits="userSpaceOnUse" color-interpolation-filters="sRGB">
<feFlood flood-opacity="0" result="BackgroundImageFix"/>
<feGaussianBlur in="BackgroundImageFix" stdDeviation="2"/>
<feComposite in2="SourceAlpha" operator="in" result="effect1_backgroundBlur_1105_628"/>
<feBlend mode="normal" in="SourceGraphic" in2="effect1_backgroundBlur_1105_628" result="shape"/>
</filter>
<filter id="filter3_b_1105_628" x="639.219" y="218" width="33" height="33" filterUnits="userSpaceOnUse" color-interpolation-filters="sRGB">
<feFlood flood-opacity="0" result="BackgroundImageFix"/>
<feGaussianBlur in="BackgroundImageFix" stdDeviation="2"/>
<feComposite in2="SourceAlpha" operator="in" result="effect1_backgroundBlur_1105_628"/>
<feBlend mode="normal" in="SourceGraphic" in2="effect1_backgroundBlur_1105_628" result="shape"/>
</filter>
<filter id="filter4_b_1105_628" x="347.438" y="471" width="33" height="33" filterUnits="userSpaceOnUse" color-interpolation-filters="sRGB">
<feFlood flood-opacity="0" result="BackgroundImageFix"/>
<feGaussianBlur in="BackgroundImageFix" stdDeviation="2"/>
<feComposite in2="SourceAlpha" operator="in" result="effect1_backgroundBlur_1105_628"/>
<feBlend mode="normal" in="SourceGraphic" in2="effect1_backgroundBlur_1105_628" result="shape"/>
</filter>
<linearGradient id="paint0_linear_1105_628" x1="402.356" y1="213.026" x2="868.186" y2="566.766" gradientUnits="userSpaceOnUse">
<stop stop-color="#9CCEFF"/>
<stop offset="0.669194" stop-color="#EFF7FF" stop-opacity="0.854167"/>
<stop offset="1" stop-color="#D9D9D9" stop-opacity="0"/>
</linearGradient>
<clipPath id="clip0_1105_628">
<rect width="126" height="173" fill="white" transform="translate(0 36)"/>
</clipPath>
<clipPath id="clip1_1105_628">
<rect width="126" height="173" fill="white" transform="translate(771 399)"/>
</clipPath>
<clipPath id="clip2_1105_628">
<rect width="126" height="173" fill="white" transform="translate(840 169)"/>
</clipPath>
<clipPath id="clip3_1105_628">
<rect width="126" height="173" fill="white" transform="translate(929 296)"/>
</clipPath>
<clipPath id="clip4_1105_628">
<rect width="126" height="173" fill="white" transform="translate(63 189)"/>
</clipPath>
<clipPath id="clip5_1105_628">
<rect width="126" height="173" fill="white" transform="translate(139)"/>
</clipPath>
</defs>
</svg>
