<svg width="298" height="263" viewBox="0 0 298 263" fill="none" xmlns="http://www.w3.org/2000/svg">
<circle cx="144.325" cy="134.716" r="126.965" stroke="#B3DAFF" stroke-opacity="0.61" stroke-width="2"/>
<circle cx="144.325" cy="134.716" r="91.7373" fill="#B3DAFF" fill-opacity="0.4"/>
<g clip-path="url(#clip0_886_1543)">
<path d="M33.3215 102.209C36.7006 104.072 39.3709 106.648 41.3325 109.949C43.2941 113.25 44.2812 116.926 44.3192 121.002C44.2939 124.991 43.2815 128.605 41.2945 131.856C39.3076 135.107 36.6246 137.683 33.2583 139.571C29.8919 141.459 26.2218 142.409 22.2479 142.409C18.2741 142.409 14.3256 141.459 10.9466 139.571C7.56752 137.683 4.88455 135.107 2.91028 131.856C0.93602 128.605 -0.0258009 124.991 -0.000489864 121.002C-0.0258009 116.926 0.93602 113.237 2.91028 109.949C4.88455 106.648 7.55487 104.072 10.9466 102.209C14.3256 100.346 18.0969 99.4204 22.2479 99.4204C26.399 99.4204 29.9425 100.346 33.3215 102.209ZM27.7151 169.843H13.427V148.174H27.7151V169.843ZM70.9212 175.032H13.4397V163.779H70.9212V175.032ZM17.6666 112.937C16.3631 113.625 15.338 114.65 14.5913 116.013C13.8447 117.376 13.4777 119.039 13.4777 121.002C13.4777 122.966 13.8447 124.529 14.5913 125.854C15.338 127.192 16.3505 128.205 17.6666 128.892C18.9702 129.58 20.5015 129.943 22.2479 129.968C23.8805 129.943 25.3359 129.58 26.6141 128.892C27.8923 128.205 28.8921 127.192 29.6388 125.854C30.3855 124.516 30.7525 122.903 30.7525 121.002C30.7525 119.102 30.3855 117.376 29.6388 116.013C28.8921 114.65 27.8923 113.625 26.6141 112.937C25.3359 112.25 23.8805 111.924 22.2479 111.949C20.5015 111.924 18.9702 112.25 17.6666 112.937ZM60.1513 116.651H36.1311V105.447H60.1513V116.651ZM60.1513 136.432H36.1311V125.266H60.1513V136.432ZM69.1367 153.976H54.9499V94.9814H69.1367V153.976Z" fill="#4A81E6"/>
<path d="M99.5352 144.26L125.606 103.771H137.527V121.265H130.718L116.304 143.684V144.21H154.612V157.314H99.5352V144.26ZM130.858 153.313L131.174 147.636V103.771H147.057V167.43H130.858V153.313Z" fill="#4A81E6"/>
<path d="M201.817 141.309H161.37V101.183H201.817V141.321V141.309ZM185.175 169.706H170.849V147.986H185.175V169.706ZM227.837 175.02H170.836V163.766H227.837V175.02ZM175.519 130.268H187.668V112.375H175.519V130.268ZM225.445 154.051H211.119V94.9814H225.445V154.063V154.051ZM235.721 128.992H221.484V117.476H235.721V128.992Z" fill="#4A81E6"/>
<path d="M277.928 141.071C276.118 144.847 273.461 148.086 269.93 150.799C266.399 153.513 262.109 155.626 257.021 157.151L253.439 150.124C257.198 149.024 260.413 147.586 263.07 145.81C265.728 144.035 267.74 142.021 269.107 139.771C270.474 137.52 271.157 135.094 271.183 132.518V128.43H280.636C280.636 133.106 279.738 137.32 277.928 141.096V141.071ZM276.852 135.582H256.16V128.417H276.852V135.582ZM271.043 172.019H261.982V157.927H271.043V172.019ZM297.987 174.82H261.982V167.792H297.987V174.82ZM288.888 145.998H279.991V138.908H288.888V145.998ZM296.645 161.653H287.774V124.778H296.645V161.653Z" fill="#4A81E6"/>
</g>
<circle cx="224.669" cy="232.586" r="6.13529" fill="url(#paint0_radial_886_1543)"/>
<circle cx="142.865" cy="6.45756" r="6.13529" fill="url(#paint1_radial_886_1543)"/>
<defs>
<radialGradient id="paint0_radial_886_1543" cx="0" cy="0" r="1" gradientUnits="userSpaceOnUse" gradientTransform="translate(226.86 232.586) rotate(78.9965) scale(16.0719)">
<stop stop-color="#A5D2FF"/>
<stop offset="0.15625" stop-color="#A9D4FF"/>
<stop offset="1" stop-color="#BCDEFF"/>
</radialGradient>
<radialGradient id="paint1_radial_886_1543" cx="0" cy="0" r="1" gradientUnits="userSpaceOnUse" gradientTransform="translate(145.056 6.45756) rotate(78.9965) scale(16.0719)">
<stop stop-color="#A5D2FF"/>
<stop offset="0.15625" stop-color="#A9D4FF"/>
<stop offset="1" stop-color="#BCDEFF"/>
</radialGradient>
<clipPath id="clip0_886_1543">
<rect width="298" height="80.051" fill="white" transform="translate(0 94.9814)"/>
</clipPath>
</defs>
</svg>
