<svg width="1920" height="479" viewBox="0 0 1920 479" fill="none" xmlns="http://www.w3.org/2000/svg">
<mask id="mask0_999_979" style="mask-type:alpha" maskUnits="userSpaceOnUse" x="0" y="0" width="1925" height="479">
<rect width="1925" height="479" transform="matrix(-1 0 0 1 1925 0)" fill="#F1F3F5"/>
<path d="M1388.27 236.503H1402.77V230.998H1388.27V236.503ZM1388.27 248.32H1402.77V242.841H1388.27V248.32ZM1383.89 259.921H1390.71V224.177H1383.89V259.921ZM1382.71 272.167H1416.33V266.635H1382.71V272.167ZM1409.45 269.455H1416.33V256.296H1409.45V269.455ZM1411.44 226.997C1409.08 226.997 1406.91 227.543 1404.94 228.635C1402.96 229.727 1401.39 231.24 1400.24 233.173C1399.1 235.107 1398.51 237.282 1398.5 239.699C1398.51 242.08 1399.11 244.229 1400.27 246.145C1401.42 248.06 1402.97 249.573 1404.94 250.683C1406.91 251.775 1409.08 252.321 1411.44 252.321C1413.89 252.321 1416.11 251.775 1418.1 250.683C1420.07 249.573 1421.63 248.06 1422.77 246.145C1423.9 244.229 1424.47 242.08 1424.47 239.699C1424.47 237.282 1423.9 235.107 1422.77 233.173C1421.63 231.24 1420.07 229.727 1418.1 228.635C1416.11 227.543 1413.89 226.997 1411.44 226.997ZM1411.44 233.093C1412.71 233.075 1413.84 233.334 1414.83 233.872C1415.81 234.409 1416.58 235.179 1417.13 236.181C1417.69 237.184 1417.97 238.356 1417.97 239.699C1417.97 241.024 1417.69 242.179 1417.13 243.164C1416.58 244.148 1415.81 244.909 1414.83 245.446C1413.84 245.965 1412.71 246.234 1411.44 246.252C1410.22 246.234 1409.13 245.965 1408.17 245.446C1407.2 244.909 1406.44 244.148 1405.88 243.164C1405.33 242.179 1405.05 241.024 1405.05 239.699C1405.05 238.356 1405.33 237.193 1405.88 236.208C1406.44 235.205 1407.2 234.436 1408.17 233.898C1409.13 233.343 1410.22 233.075 1411.44 233.093ZM1336.35 248.723H1343.17V224.069H1336.35V248.723ZM1352.09 226.003C1352.11 230.3 1352.96 234.033 1354.64 237.202C1356.31 240.353 1358.81 242.976 1362.16 245.07C1365.49 247.165 1369.65 248.758 1374.62 249.851L1376.96 244.292C1372.95 243.486 1369.65 242.376 1367.08 240.961C1364.48 239.529 1362.58 237.873 1361.38 235.993C1360.17 234.095 1359.56 231.992 1359.56 229.682V226.003H1352.09ZM1356.74 231.508H1374.22V226.003H1356.74V231.508ZM1342.37 235.483H1354.02V230.273H1342.37V235.483ZM1342.64 244.963H1354.37V239.753H1342.64V244.963ZM1336.35 263.869H1361.92V270.046H1368.77V258.793H1343.26V255.866H1368.85V250.495H1336.35V263.869ZM1335.28 272.517H1368.77V267.092H1335.28V272.517Z" fill="#458FD9"/>
</mask>
<g mask="url(#mask0_999_979)">
<circle cx="710.5" cy="710.5" r="710.5" transform="matrix(-1 0 0 1 1030 -164)" fill="url(#paint0_linear_999_979)"/>
</g>
<defs>
<linearGradient id="paint0_linear_999_979" x1="109.5" y1="392.5" x2="1016" y2="390" gradientUnits="userSpaceOnUse">
<stop stop-color="#0BC583"/>
<stop offset="1" stop-color="#0BC583" stop-opacity="0"/>
</linearGradient>
</defs>
</svg>
