<svg width="58" height="64" viewBox="0 0 58 64" fill="none" xmlns="http://www.w3.org/2000/svg">
<path fill-rule="evenodd" clip-rule="evenodd" d="M46.1176 36.6791C46.2105 36.6813 46.3036 36.6824 46.397 36.6824C52.7394 36.6824 57.8809 31.6094 57.8809 25.3516C57.8809 19.0938 52.7394 14.0209 46.397 14.0209C46.2582 14.0209 46.1199 14.0233 45.9823 14.0281C44.0426 6.61878 37.3538 1.15625 29.4004 1.15625C21.4161 1.15625 14.7062 6.6614 12.7961 14.1147C12.3164 14.0528 11.8273 14.0209 11.3308 14.0209C5.07296 14.0209 0 19.0938 0 25.3516C0 31.6094 5.07296 36.6824 11.3308 36.6824C11.4229 36.6824 11.5148 36.6813 11.6065 36.6791H46.1176Z" fill="white"/>
<path fill-rule="evenodd" clip-rule="evenodd" d="M26.5022 26.6133H31.0749V42.1876H49.1502C49.1924 42.1876 49.2344 42.1887 49.2761 42.191L49.2795 42.191C50.5422 42.191 51.5659 43.2146 51.5659 44.4774V57.0594C53.05 57.405 54.1557 58.7361 54.1557 60.3254C54.1557 62.1774 52.6544 63.6788 50.8024 63.6788H47.7538C45.9018 63.6788 44.4005 62.1774 44.4005 60.3254C44.4005 58.7351 45.5076 57.4033 46.9931 57.0587V46.7811H31.0749V57.0374C32.5591 57.383 33.6648 58.7141 33.6648 60.3035C33.6648 62.1555 32.1634 63.6569 30.3114 63.6569H27.2629C25.4109 63.6569 23.9096 62.1555 23.9096 60.3035C23.9096 58.7131 25.0166 57.3814 26.5022 57.0368V46.7811H10.5326V57.0594C12.0167 57.405 13.1224 58.7361 13.1224 60.3254C13.1224 62.1774 11.6211 63.6788 9.76906 63.6788H6.72055C4.86854 63.6788 3.36719 62.1774 3.36719 60.3254C3.36719 58.7351 4.47427 57.4033 5.95981 57.0587V44.4774C5.95981 43.2146 6.98346 42.191 8.2462 42.191C8.26017 42.191 8.27411 42.1911 8.28802 42.1913C8.33191 42.1888 8.37614 42.1876 8.42065 42.1876H26.5022V26.6133Z" fill="white"/>
<path d="M6.88281 42.2124H26.482M29.8506 1C25.4101 1.00091 15.8556 1.51969 12.5482 14.0142" stroke="#4A81E5" stroke-width="2" stroke-linecap="round"/>
</svg>
