<svg width="103" height="61" viewBox="0 0 103 61" fill="none" xmlns="http://www.w3.org/2000/svg">
<path fill-rule="evenodd" clip-rule="evenodd" d="M62.1227 20.3315L78.0939 10.9726C82.7158 8.26425 88.6581 9.81548 91.3665 14.4374C94.0748 19.0593 92.5236 25.0016 87.9017 27.71L63.3473 42.0984C60.5749 43.723 57.3274 43.815 54.5877 42.6309C62.1305 37.8517 65.1464 28.4868 62.1227 20.3315ZM57.034 12.8545L73.5317 3.18712C82.4534 -2.04084 93.924 0.953529 99.1519 9.87523C104.38 18.7969 101.386 30.2675 92.4638 35.4955L67.9095 49.8839C60.7159 54.0992 51.8653 52.969 45.966 47.6964L29.4683 57.3637C20.5466 62.5917 9.07605 59.5973 3.84809 50.6756C-1.37988 41.7539 1.61448 30.2833 10.5362 25.0554L35.0905 10.6669C42.2841 6.45161 51.1347 7.58181 57.034 12.8545ZM40.8774 40.2194L24.9062 49.5782C20.2843 52.2866 14.3419 50.7354 11.6336 46.1134C8.92521 41.4915 10.4764 35.5492 15.0983 32.8408L39.6527 18.4524C42.4251 16.8278 45.6726 16.7359 48.4123 17.92C40.8695 22.6991 37.8536 32.0641 40.8774 40.2194ZM48.9067 35.5143C48.1755 31.6058 49.9114 27.487 53.5395 25.361L54.0934 25.0365C54.8246 28.945 53.0886 33.0638 49.4605 35.1898L48.9067 35.5143Z" fill="url(#paint0_linear_960_924)"/>
<path d="M76.1776 1.50391L59.5547 11.2855" stroke="#3ED28B" stroke-width="1.8352" stroke-linecap="round"/>
<path d="M40.3846 40.9102L23.7617 50.6917" stroke="#3ED28B" stroke-width="1.8352" stroke-linecap="round"/>
<defs>
<linearGradient id="paint0_linear_960_924" x1="15.6231" y1="2.82491" x2="100.103" y2="54.0084" gradientUnits="userSpaceOnUse">
<stop stop-color="#0070ED"/>
<stop offset="0.9997" stop-color="#51A9FF"/>
<stop offset="0.9998" stop-color="#B6D3F3"/>
<stop offset="0.9999" stop-color="#E3ECF4"/>
<stop offset="1" stop-color="#E3ECF4"/>
</linearGradient>
</defs>
</svg>
