<svg width="290" height="271" viewBox="0 0 290 271" fill="none" xmlns="http://www.w3.org/2000/svg">
<path d="M193.573 46.8937C206.559 46.8554 217.117 57.3521 217.154 70.3388C217.191 83.3255 206.693 93.8844 193.706 93.9228L99.6478 94.2008C86.6611 94.2392 76.1035 83.7425 76.0667 70.7558C76.0298 57.769 86.5278 47.2101 99.5145 47.1717L193.573 46.8937Z" fill="url(#paint0_linear_919_75)"/>
<path d="M170.125 117.579C170.125 130.566 159.597 141.092 146.61 141.091C133.624 141.089 123.096 130.56 123.096 117.573L123.096 23.5148C123.096 10.528 133.624 0.00144171 146.61 0.00301383C159.597 0.00458594 170.125 10.5337 170.125 23.5205L170.125 117.579Z" fill="url(#paint1_linear_919_75)"/>
<path d="M123.486 19.5078V46.7669H97.2588" stroke="#4A81E5" stroke-width="6.10127" stroke-linecap="round"/>
<path fill-rule="evenodd" clip-rule="evenodd" d="M20.607 56.2188C9.22607 56.2188 0 65.4448 0 76.8258V157.082C0 158.136 0.0790206 159.17 0.231457 160.181C1.01591 166.551 4.63613 172.508 10.5397 175.988L54.3273 201.803V270.466H124.578V177.689H124.564C124.684 170.245 120.912 162.928 114.097 158.91L102.335 151.976C92.3753 146.104 79.6883 149.503 73.9979 159.567C73.2354 160.916 72.6372 162.316 72.1969 163.743L41.214 145.477V76.8257C41.214 65.4448 31.9879 56.2188 20.607 56.2188Z" fill="url(#paint2_linear_919_75)"/>
<path fill-rule="evenodd" clip-rule="evenodd" d="M269.551 56.1279C280.844 56.1279 289.999 65.2827 289.999 76.5758V156.212C289.999 157.258 289.921 158.285 289.769 159.288C288.991 165.608 285.398 171.518 279.541 174.972L236.091 200.587V268.721H166.382V176.66H166.397C166.278 169.273 170.021 162.012 176.783 158.026L188.454 151.145C198.337 145.319 210.926 148.691 216.572 158.678C217.329 160.016 217.923 161.405 218.359 162.821L249.103 144.696V76.5758C249.103 65.2827 258.258 56.1279 269.551 56.1279Z" fill="url(#paint3_linear_919_75)"/>
<path d="M248.798 145.078L193.534 177.598" stroke="#4A81E5" stroke-width="6.10127" stroke-linecap="round"/>
<path d="M97.0161 178.693L42.152 145.171" stroke="#4A81E5" stroke-width="6.10127" stroke-linecap="round"/>
<defs>
<linearGradient id="paint0_linear_919_75" x1="146.544" y1="47.0327" x2="146.683" y2="94.0618" gradientUnits="userSpaceOnUse">
<stop stop-color="#51D394"/>
<stop offset="1" stop-color="#3DD28B"/>
</linearGradient>
<linearGradient id="paint1_linear_919_75" x1="170.125" y1="70.5498" x2="123.096" y2="70.5498" gradientUnits="userSpaceOnUse">
<stop stop-color="#51D394"/>
<stop offset="1" stop-color="#3DD28B"/>
</linearGradient>
<linearGradient id="paint2_linear_919_75" x1="62.2892" y1="56.2187" x2="62.2892" y2="270.466" gradientUnits="userSpaceOnUse">
<stop stop-color="#50D293"/>
<stop offset="1" stop-color="#3DD28B"/>
</linearGradient>
<linearGradient id="paint3_linear_919_75" x1="228.191" y1="56.1279" x2="228.091" y2="317.624" gradientUnits="userSpaceOnUse">
<stop stop-color="#52D294"/>
<stop offset="0.729167" stop-color="#3CD18A"/>
</linearGradient>
</defs>
</svg>
