<svg width="1920" height="273" viewBox="0 0 1920 273" fill="none" xmlns="http://www.w3.org/2000/svg">
<path d="M0 199H1920V273H0V199Z" fill="#44D28E"/>
<path d="M419.168 151.618C412.185 156.035 401.829 158.152 391.251 158.152C361.85 158.152 344.722 143.83 344.722 114.56V76.2339H328V46.3362H344.708V16.6345H384.898V46.3231H411.122V76.2208H384.898V114.129C384.898 122.557 389.767 127.183 396.96 127.183C401.396 127.183 405.846 125.915 409.232 123.602L419.168 151.605V151.618Z" fill="#55DF9C"/>
<path d="M547.756 109.294H464.424C467.81 120.871 477.746 127.614 492.551 127.614C503.76 127.614 511.163 124.452 518.985 117.722L540.13 139.623C529.131 151.841 513.053 158.152 491.278 158.152C450.459 158.152 424.011 133.089 424.011 98.9838C424.011 64.8785 450.879 40.2338 487.039 40.2338C520.875 40.2338 548.373 61.7163 548.373 99.402C548.373 102.355 547.953 106.145 547.743 109.294H547.756ZM510.73 88.2296C508.616 76.2208 499.731 68.6419 487.249 68.6419C474.766 68.6419 466.104 76.2208 463.768 88.2296H510.73Z" fill="#55DF9C"/>
<path d="M559.805 98.9708C559.805 64.6433 587.092 40.2208 625.589 40.2208C651.603 40.2208 671.488 51.7983 679.31 71.5951L648.217 87.3933C642.717 76.652 634.684 72.0263 625.379 72.0263C611.413 72.0263 600.414 81.7091 600.414 98.9839C600.414 116.259 611.413 126.36 625.379 126.36C634.684 126.36 642.717 121.721 648.217 110.993L679.31 126.791C671.488 146.588 651.603 158.165 625.589 158.165C587.092 158.165 559.805 133.743 559.805 98.9969V98.9708Z" fill="#55DF9C"/>
<path d="M816.154 90.9737V156.257H775.965V97.5073C775.965 81.0818 768.772 74.1301 757.143 74.1301C744.241 74.1301 734.305 82.1272 734.305 101.088V156.257H694.116V0H734.305V52.6477C743.191 44.4415 755.24 40.2208 768.785 40.2208C795.652 40.2208 816.167 55.5878 816.167 90.9737H816.154Z" fill="#55DF9C"/>
<path d="M963.354 90.9737V156.257H923.164V97.5073C923.164 81.0818 915.971 74.1301 904.343 74.1301C891.44 74.1301 881.505 82.1272 881.505 101.088V156.257H841.315V42.1155H879.602V54.5424C888.697 45.0687 901.599 40.2208 915.985 40.2208C942.852 40.2208 963.367 55.5878 963.367 90.9737H963.354Z" fill="#55DF9C"/>
<path d="M983.015 98.9708C983.015 64.6433 1010.3 40.2208 1047.74 40.2208C1085.17 40.2208 1112.46 64.6433 1112.46 98.9708C1112.46 133.298 1085.59 158.139 1047.74 158.139C1009.88 158.139 983.015 133.507 983.015 98.9708ZM1071.85 98.9708C1071.85 81.709 1061.48 72.0132 1047.74 72.0132C1033.99 72.0132 1023.62 81.696 1023.62 98.9708C1023.62 116.246 1034.2 126.347 1047.74 126.347C1061.27 126.347 1071.85 116.455 1071.85 98.9708Z" fill="#55DF9C"/>
<path d="M1131.07 0H1171.26V156.244H1131.07V0Z" fill="#55DF9C"/>
<path d="M1190.08 98.9708C1190.08 64.6433 1217.37 40.2208 1254.8 40.2208C1292.23 40.2208 1319.52 64.6433 1319.52 98.9708C1319.52 133.298 1292.65 158.139 1254.8 158.139C1216.95 158.139 1190.08 133.507 1190.08 98.9708ZM1278.91 98.9708C1278.91 81.709 1268.54 72.0132 1254.8 72.0132C1241.06 72.0132 1230.69 81.696 1230.69 98.9708C1230.69 116.246 1241.27 126.347 1254.8 126.347C1268.33 126.347 1278.91 116.455 1278.91 98.9708Z" fill="#55DF9C"/>
<path d="M1461.43 42.1155V135.402C1461.43 178.576 1436.9 199 1394.16 199C1372.17 199 1351.23 193.943 1337.27 184.051L1351.86 156.048C1361.38 163.627 1377.04 168.266 1390.57 168.266C1412.15 168.266 1421.24 158.583 1421.24 140.681V136.892C1413.42 145.947 1401.78 150.364 1387.19 150.364C1356.73 150.364 1330.93 128.882 1330.93 95.1944C1330.93 61.5072 1356.73 40.2338 1387.19 40.2338C1403.06 40.2338 1415.32 45.2908 1423.14 56.032V42.1286H1461.43V42.1155ZM1421.66 95.1813C1421.66 81.2778 1411.08 72.0132 1396.7 72.0132C1382.31 72.0132 1371.52 81.2778 1371.52 95.1813C1371.52 109.085 1382.31 118.558 1396.7 118.558C1411.08 118.558 1421.66 109.085 1421.66 95.1813Z" fill="#55DF9C"/>
<path d="M1608 42.1155L1558.5 160.883C1546.44 190.363 1529.52 199 1506.9 199C1494.85 199 1481.3 195.001 1473.69 188.677L1487.65 160.674C1492.3 164.882 1499.07 167.417 1505.43 167.417C1513.25 167.417 1517.7 164.463 1521.07 157.734L1472 42.1286H1513.24L1541.36 111.829L1569.7 42.1286H1607.99L1608 42.1155Z" fill="#55DF9C"/>
</svg>
