<svg width="1920" height="479" viewBox="0 0 1920 479" fill="none" xmlns="http://www.w3.org/2000/svg">
<mask id="mask0_960_935" style="mask-type:alpha" maskUnits="userSpaceOnUse" x="-2" y="0" width="1925" height="479">
<rect x="-2" width="1925" height="479" fill="#F1F3F5"/>
<path d="M534.735 236.503H520.233V230.998H534.735V236.503ZM534.735 248.32H520.233V242.841H534.735V248.32ZM539.112 259.921H532.291V224.177H539.112V259.921ZM540.294 272.167H506.671V266.635H540.294V272.167ZM513.546 269.455H506.671V256.296H513.546V269.455ZM511.559 226.997C513.922 226.997 516.088 227.543 518.058 228.635C520.045 229.727 521.611 231.24 522.757 233.173C523.903 235.107 524.485 237.282 524.503 239.699C524.485 242.08 523.894 244.229 522.73 246.145C521.585 248.06 520.027 249.573 518.058 250.683C516.088 251.775 513.922 252.321 511.559 252.321C509.106 252.321 506.886 251.775 504.898 250.683C502.929 249.573 501.371 248.06 500.226 246.145C499.098 244.229 498.534 242.08 498.534 239.699C498.534 237.282 499.098 235.107 500.226 233.173C501.371 231.24 502.929 229.727 504.898 228.635C506.886 227.543 509.106 226.997 511.559 226.997ZM511.559 233.093C510.287 233.075 509.16 233.334 508.175 233.872C507.19 234.409 506.42 235.179 505.865 236.181C505.31 237.184 505.033 238.356 505.033 239.699C505.033 241.024 505.31 242.179 505.865 243.164C506.42 244.148 507.19 244.909 508.175 245.446C509.16 245.965 510.287 246.234 511.559 246.252C512.776 246.234 513.868 245.965 514.835 245.446C515.802 244.909 516.563 244.148 517.118 243.164C517.673 242.179 517.95 241.024 517.95 239.699C517.95 238.356 517.673 237.193 517.118 236.208C516.563 235.205 515.802 234.436 514.835 233.898C513.868 233.343 512.776 233.075 511.559 233.093ZM586.646 248.723H579.825V224.069H586.646V248.723ZM570.909 226.003C570.891 230.3 570.041 234.033 568.358 237.202C566.693 240.353 564.186 242.976 560.838 245.07C557.508 247.165 553.355 248.758 548.377 249.851L546.041 244.292C550.051 243.486 553.346 242.376 555.924 240.961C558.52 239.529 560.418 237.873 561.617 235.993C562.835 234.095 563.443 231.992 563.443 229.682V226.003H570.909ZM566.263 231.508H548.78V226.003H566.263V231.508ZM580.631 235.483H568.976V230.273H580.631V235.483ZM580.362 244.963H568.626V239.753H580.362V244.963ZM586.646 263.869H561.08V270.046H554.232V258.793H579.745V255.866H554.151V250.495H586.646V263.869ZM587.721 272.517H554.232V267.092H587.721V272.517Z" fill="#458FD9"/>
</mask>
<g mask="url(#mask0_960_935)">
<circle cx="1603.5" cy="546.5" r="710.5" fill="#B9EBDA"/>
</g>
</svg>
