<svg width="298" height="146" viewBox="0 0 298 146" fill="none" xmlns="http://www.w3.org/2000/svg">
<rect x="15.3115" y="0.550781" width="265.193" height="128.495" rx="10" fill="#C8F0CE"/>
<rect y="135.607" width="298" height="9.8422" fill="#C2F2CA"/>
<g clip-path="url(#clip0_886_1541)">
<path d="M37.8738 54.0451C40.6054 55.5722 42.7641 57.6835 44.3499 60.3893C45.9357 63.095 46.7337 66.1082 46.7644 69.4495C46.7439 72.7189 45.9255 75.6809 44.3192 78.3457C42.713 81.0104 40.544 83.1217 37.8226 84.6694C35.1012 86.217 32.1343 86.9959 28.9218 86.9959C25.7093 86.9959 22.5173 86.217 19.7856 84.6694C17.054 83.1217 14.8851 81.0104 13.289 78.3457C11.693 75.6809 10.9155 72.7189 10.9359 69.4495C10.9155 66.1082 11.693 63.0848 13.289 60.3893C14.8851 57.6835 17.0438 55.5722 19.7856 54.0451C22.5275 52.518 25.5661 51.7595 28.9218 51.7595C32.2775 51.7595 35.1421 52.518 37.8738 54.0451ZM33.3415 109.482H21.7909V91.7207H33.3415V109.482ZM68.2697 113.736H21.8011V104.512H68.2697V113.736ZM25.2182 62.8388C24.1644 63.4025 23.3357 64.2429 22.7321 65.3601C22.1285 66.4772 21.8318 67.8403 21.8318 69.4495C21.8318 71.0586 22.1285 72.3397 22.7321 73.4261C23.3357 74.5228 24.1542 75.3529 25.2182 75.9166C26.272 76.4803 27.5099 76.7776 28.9218 76.7981C30.2416 76.7776 31.4181 76.4803 32.4514 75.9166C33.4847 75.3529 34.293 74.5228 34.8966 73.4261C35.5002 72.3294 35.7969 71.0073 35.7969 69.4495C35.7969 67.8916 35.5002 66.4772 34.8966 65.3601C34.293 64.2429 33.4847 63.4025 32.4514 62.8388C31.4181 62.2751 30.2416 62.0086 28.9218 62.0291C27.5099 62.0086 26.272 62.2751 25.2182 62.8388ZM59.5632 65.8828H40.145V56.6996H59.5632V65.8828ZM59.5632 82.0968H40.145V72.9444H59.5632V82.0968ZM66.8271 96.4763H55.3583V48.1211H66.8271V96.4763Z" fill="#49D390"/>
<path d="M102.083 106.111C98.9934 104.707 96.5687 102.749 94.8192 100.259C93.0697 97.7579 92.1796 94.9189 92.1592 91.7212H105.47C105.521 92.9203 105.869 93.9862 106.513 94.9087C107.158 95.8311 108.017 96.5485 109.081 97.0507C110.145 97.5529 111.322 97.7989 112.59 97.7682C114.074 97.7682 115.393 97.4402 116.529 96.7945C117.665 96.1488 118.565 95.2366 119.21 94.0785C119.854 92.9203 120.181 91.5777 120.181 90.0608C120.181 88.544 119.854 87.1296 119.21 85.9509C118.565 84.7723 117.665 83.8601 116.529 83.2144C115.393 82.5688 114.063 82.2408 112.56 82.2408C110.83 82.2408 109.388 82.5995 108.222 83.3067C107.055 84.0139 106.155 85.0388 105.51 86.3917H93.2846L95.5865 55.3369H130.187V66.3239H106.84L105.766 78.0694H106.053C106.912 76.4808 108.344 75.1894 110.35 74.1952C112.355 73.2011 114.636 72.6886 117.204 72.6681C120.253 72.6681 123.005 73.3856 125.481 74.8307C127.947 76.2758 129.891 78.2949 131.292 80.8879C132.694 83.4809 133.4 86.4019 133.4 89.6406C133.4 93.2483 132.54 96.446 130.811 99.2645C129.082 102.083 126.647 104.276 123.507 105.855C120.366 107.443 116.734 108.232 112.611 108.232C108.702 108.232 105.204 107.525 102.104 106.121L102.083 106.111Z" fill="#49D390"/>
<path d="M149.053 106.11C145.891 104.706 143.405 102.748 141.605 100.258C139.804 97.7673 138.894 94.9181 138.873 91.7204H152.685C152.685 92.776 153.012 93.7189 153.657 94.5286C154.301 95.3383 155.171 95.9737 156.245 96.4247C157.319 96.8757 158.547 97.0909 159.918 97.0909C161.289 97.0909 162.506 96.8552 163.57 96.3734C164.634 95.8917 165.463 95.2255 166.036 94.3544C166.609 93.4832 166.885 92.5095 166.865 91.4026C166.865 90.3265 166.537 89.3528 165.893 88.4816C165.248 87.6105 164.307 86.9443 163.069 86.4626C161.831 85.9809 160.44 85.7451 158.874 85.7451H153.585V76.193H158.874C160.286 76.193 161.555 75.9573 162.67 75.4755C163.785 74.9938 164.645 74.3379 165.258 73.4975C165.872 72.657 166.179 71.6834 166.179 70.5765C166.179 69.5721 165.923 68.6497 165.402 67.84C164.89 67.02 164.153 66.3846 163.212 65.9131C162.261 65.4417 161.176 65.206 159.959 65.206C158.639 65.206 157.463 65.4417 156.429 65.9131C155.396 66.3846 154.567 67.0405 153.943 67.8912C153.319 68.7419 153.012 69.6951 153.012 70.7507H139.886C139.906 67.6247 140.786 64.837 142.525 62.3772C144.265 59.9174 146.648 58.0008 149.667 56.648C152.685 55.2951 156.112 54.6084 159.949 54.6084C163.785 54.6084 167.079 55.2541 170.036 56.5557C172.993 57.8574 175.295 59.651 176.942 61.957C178.579 64.263 179.397 66.8561 179.367 69.7361C179.387 71.6321 178.958 73.3437 178.067 74.8504C177.177 76.3672 175.929 77.5869 174.313 78.5093C172.696 79.4317 170.865 80.0159 168.829 80.2619V80.6923C171.54 80.9998 173.832 81.6865 175.694 82.7422C177.556 83.7978 178.968 85.1609 179.919 86.8315C180.871 88.5021 181.331 90.4085 181.3 92.5403C181.321 95.5638 180.421 98.2593 178.599 100.627C176.778 102.994 174.231 104.849 170.977 106.192C167.714 107.535 164.01 108.211 159.867 108.211C155.723 108.211 152.204 107.504 149.043 106.1L149.053 106.11Z" fill="#49D390"/>
<path d="M219.912 86.094H187.214V53.2046H219.912V86.1042V86.094ZM206.458 109.37H194.877V91.567H206.458V109.37ZM240.946 113.726H194.867V104.501H240.946V113.726ZM198.652 77.044H208.474V62.3776H198.652V77.044ZM239.013 96.5378H227.431V48.1211H239.013V96.548V96.5378ZM247.32 75.9986H235.81V66.5592H247.32V75.9986Z" fill="#49D390"/>
<path d="M278.494 86.0841C277.031 89.1793 274.882 91.8338 272.028 94.0578C269.174 96.2819 265.705 98.014 261.593 99.2644L258.697 93.5044C261.736 92.6025 264.334 91.4238 266.483 89.9685C268.631 88.5131 270.258 86.863 271.363 85.0182C272.468 83.1733 273.02 81.185 273.041 79.0737V75.7222H280.683C280.683 79.5554 279.957 83.0093 278.494 86.1046V86.0841ZM277.624 81.5847H260.897V75.712H277.624V81.5847ZM272.928 111.451H265.603V99.8998H272.928V111.451ZM294.71 113.746H265.603V107.986H294.71V113.746ZM287.354 90.1222H280.162V84.311H287.354V90.1222ZM293.625 102.954H286.454V72.7295H293.625V102.954Z" fill="#49D390"/>
</g>
<defs>
<clipPath id="clip0_886_1541">
<rect width="283.783" height="65.6147" fill="white" transform="translate(10.9365 48.1211)"/>
</clipPath>
</defs>
</svg>
